<?xml version="1.0" encoding="utf-8"?>
<!-- Generator: Adobe Illustrator 21.1.0, SVG Export Plug-In . SVG Version: 6.00 Build 0)  -->
<svg version="1.0" id="Layer_1" xmlns="http://www.w3.org/2000/svg" xmlns:xlink="http://www.w3.org/1999/xlink" x="0px" y="0px"
	 viewBox="0 0 241.6 283.7" style="enable-background:new 0 0 241.6 283.7;" xml:space="preserve">
<style type="text/css">
	.st0{fill:#EB3B23;}
</style>
<g>
	<path class="st0" d="M113.7,209.8c-25.1-9.8-45.5-36.9-45.5-65.4S87.9,87,110.9,76.2c25.3-11.9,59.7-8.5,82.4,11.4l42.6-54
		c-42.6-34.1-102-44.9-153.5-19.9C34.4,37-1.4,90.4,0,147.2c1.4,54,36.4,106.4,88.1,127.9c16.6,6.9,34.1,8.5,51.2,8.5
		c36.9,0,73.9-14.2,102.3-42.6l-51.2-45.5C173.4,215.4,139.8,219.9,113.7,209.8z"/>
</g>
</svg>
