<?xml version="1.0" encoding="utf-8"?>
<!-- Generator: Adobe Illustrator 21.1.0, SVG Export Plug-In . SVG Version: 6.00 Build 0)  -->
<svg version="1.0" id="Layer_1" xmlns="http://www.w3.org/2000/svg" xmlns:xlink="http://www.w3.org/1999/xlink" x="0px" y="0px"
	 viewBox="0 0 499.6 497.5" style="enable-background:new 0 0 499.6 497.5;" xml:space="preserve">
<style type="text/css">
	.st0{fill:#FF3400;}
	.st1{fill:#F5C900;}
</style>
<g>
	<path class="st0" d="M466.4,453.1L466.4,453.1c-6.6,6.9-17.5,7.2-24.4,0.6L200.3,224.1c-6.9-6.6-7.2-17.5-0.6-24.4l0,0
		c6.6-6.9,17.5-7.2,24.4-0.6l241.7,229.6C472.7,435.2,472.9,446.2,466.4,453.1z"/>
	<path class="st1" d="M178.4,207.5L178.4,207.5C124.3,182.4,82.8,141.2,57,86.8L38.4,47.5c-0.2-0.4,0.5-1.1,0.9-1l40.2,16.6
		c55.6,23,98.9,62.3,126.8,115l0,0C213.1,191,191.6,213.6,178.4,207.5z"/>
</g>
<g>
	<path class="st1" d="M57.4,452.8L57.4,452.8c-13-13-12.5-34.4,1.2-46.7L266,226l19.9,19.9L104.3,451.4
		C92,465.3,70.5,466,57.4,452.8z"/>
	<path class="st0" d="M315.6,243L475.2,83.5L427,35.2L267.4,194.8c9,9,9,23.6,0,32.6L283,243C292,234,306.6,234,315.6,243z"/>
</g>
</svg>
