<?xml version="1.0" encoding="utf-8"?>
<!-- Generator: Adobe Illustrator 21.1.0, SVG Export Plug-In . SVG Version: 6.00 Build 0)  -->
<svg version="1.0" id="Layer_1" xmlns="http://www.w3.org/2000/svg" xmlns:xlink="http://www.w3.org/1999/xlink" x="0px" y="0px"
	 viewBox="0 0 499.4 499" style="enable-background:new 0 0 499.4 499;" xml:space="preserve">
<style type="text/css">
	.st0{fill:#F2D2CB;}
</style>
<path class="st0" d="M464.5,63.8c-19.1,0.2-34.3,17.7-34.3,38.8V212c0,5.4-4,9.9-8.8,9.8c-4.7-0.1-8.5-4.3-8.5-9.6V58.8
	c0-21.1-15.3-38.6-34.3-38.8c-19.2-0.2-34.8,17-34.8,38.3V212c0,5.4-4,9.9-8.8,9.8c-4.7-0.1-8.5-4.3-8.5-9.6V38.8
	c0-21.1-15.3-38.6-34.3-38.8c-19.2-0.2-34.8,17-34.8,38.3V212c0,5.4-4,9.9-8.8,9.8c-4.7-0.1-8.5-4.3-8.5-9.6V69.3
	c0-19.1-14-34.6-31.3-34.6h-6.6c-17.3,0-31.3,15.5-31.3,34.6v123.1v66.4c0,7.5-7.3,12.2-13.2,8.5L46.2,176.7
	c-31.4-19.9-59.9,15.9-39.2,48.8L170.8,464v34l328.6,1V96.4v5.7C499.4,80.8,483.8,63.6,464.5,63.8z"/>
</svg>
