<?xml version="1.0" encoding="utf-8"?>
<!-- Generator: Adobe Illustrator 21.1.0, SVG Export Plug-In . SVG Version: 6.00 Build 0)  -->
<svg version="1.0" id="Layer_1" xmlns="http://www.w3.org/2000/svg" xmlns:xlink="http://www.w3.org/1999/xlink" x="0px" y="0px"
	 viewBox="0 0 300.3 348.2" style="enable-background:new 0 0 300.3 348.2;" xml:space="preserve">
<style type="text/css">
	.st0{fill:#63104F;stroke:#FFFFFF;stroke-width:10;stroke-miterlimit:10;}
</style>
<path class="st0" d="M140.6,255c-30-11.6-54.2-44-54.2-77.9s23.4-68.4,50.8-81.3c30.2-14.2,71.1-10.2,98.2,13.6L286.2,45
	C235.4,4.3,164.7-8.5,103.3,21.3C46,49.1,3.3,112.7,5.1,180.5c1.6,64.3,43.4,126.8,105,152.5c19.8,8.2,40.7,10.2,61,10.2
	c44,0,88.1-16.9,122-50.8l-61-54.2C211.7,261.8,171.7,267.1,140.6,255z"/>
</svg>
