<?xml version="1.0" encoding="utf-8"?>
<!-- Generator: Adobe Illustrator 21.1.0, SVG Export Plug-In . SVG Version: 6.00 Build 0)  -->
<svg version="1.0" id="Layer_1" xmlns="http://www.w3.org/2000/svg" xmlns:xlink="http://www.w3.org/1999/xlink" x="0px" y="0px"
	 viewBox="0 0 1499.1 454.3" style="enable-background:new 0 0 1499.1 454.3;" xml:space="preserve">
<style type="text/css">
	.st0{fill:#F5C900;}
	.st1{fill:#ED6DA2;}
	.st2{fill:#ED6DA2;stroke:#FFFFFF;stroke-width:10;stroke-miterlimit:10;}
	.st3{fill:none;stroke:#FFFFFF;stroke-width:10;stroke-miterlimit:10;}
</style>
<g>
	<circle class="st0" cx="1315.8" cy="269.6" r="183.4"/>
	<circle class="st0" cx="1315.8" cy="115" r="115"/>
	<polyline class="st1" points="1378.7,48.5 1463.2,86.3 1378.7,115 	"/>
</g>
<path class="st1" d="M157.5,6c153,0,268,448,0,448S14.5,6,157.5,6z"/>
<g>
	<g>
		<path class="st0" d="M790.7,107.9c0.3-2.7,0.4-5.4,0.4-8.1c0-45.5-36.9-82.3-82.3-82.3s-82.3,36.9-82.3,82.3
			c0,2.7,0.1,5.4,0.4,8.1c-30.1,24.1-49.3,61.1-49.3,102.6c0,72.5,58.8,131.3,131.3,131.3s131.3-58.8,131.3-131.3
			C840.1,168.9,820.8,131.9,790.7,107.9z"/>
		<polyline class="st1" points="753.8,52.1 814.3,79.1 753.8,99.7 		"/>
	</g>
	<path class="st2" d="M830.5,200l-33-48l-33,4l-29-48l-61,23c0,0-45.1-33.7-68.1-50.2C526.1,208.3,509.1,454,707.5,454
		c153.5,0,181.4-147,148.4-272.6C846.9,186.7,830.5,200,830.5,200z"/>
</g>
<path class="st3" d="M27,92c9.3,22.1,27.8,66.3,27.8,66.3l39.5-31.6l42.8,62.8l79.3-51l69.1,111.1c0,0,54-49.6,80.9-74.4"/>
</svg>
