<?xml version="1.0" encoding="utf-8"?>
<!-- Generator: Adobe Illustrator 21.1.0, SVG Export Plug-In . SVG Version: 6.00 Build 0)  -->
<svg version="1.0" id="Layer_1" xmlns="http://www.w3.org/2000/svg" xmlns:xlink="http://www.w3.org/1999/xlink" x="0px" y="0px"
	 viewBox="0 0 418.1 550.6" style="enable-background:new 0 0 418.1 550.6;" xml:space="preserve">
<style type="text/css">
	.st0{fill:#0574E3;}
	.st1{fill:#FFFFFF;}
</style>
<g>
	<path class="st0" d="M194.9,304.8c0.5-2.6-0.2-5.3-2-7.4c-1.7-2.1-4.2-3.2-6.9-3.2h-59.4L228.5,29.6l-14.7,173.5
		c-0.2,2.5,0.6,5,2.3,6.9c1.7,1.9,4.1,2.9,6.6,2.9l61.7-1L157.3,515.6L194.9,304.8z"/>
	<path class="st1" d="M219,71.1l-11.1,131.5c-0.4,4.2,1.1,8.3,3.9,11.4c2.8,3.1,6.9,4.9,11.1,4.9l0.1,0l0.1,0l52.4-0.8L172.7,463.2
		l28.1-157.3c0.8-4.4-0.4-8.9-3.3-12.3c-2.9-3.4-7.1-5.4-11.5-5.4h-50.6L219,71.1 M233.2,6c-1.1,0-2.3,0.6-2.8,1.9L119.5,296.1
		c-0.8,2,0.7,4.1,2.8,4.1H186c1.9,0,3.3,1.7,3,3.6L146.6,541c-0.4,2.2,1.3,3.6,3,3.6c1.1,0,2.2-0.6,2.7-1.9L291.9,210
		c0.8-2-0.6-4.2-2.8-4.2c0,0,0,0-0.1,0l-66.2,1.1c0,0,0,0,0,0c-1.8,0-3.2-1.5-3-3.3L236.3,9.3C236.5,7.2,234.8,6,233.2,6L233.2,6z"
		/>
</g>
<g>
	<g>
		<polygon class="st1" points="40,370.5 40,323.1 28.2,323.1 28.2,370.5 5,370.5 5,302 63.2,302 63.2,370.5 		"/>
		<path class="st1" d="M58.2,307v58.6H45v-47.4H23.2v47.4H10V307H58.2 M68.2,297h-10H10H0v10v58.6v10h10h13.2h10v-10v-37.4H35v37.4
			v10h10h13.2h10v-10V307V297L68.2,297z"/>
	</g>
	<g>
		<path class="st1" d="M90.6,371.7c-3.9,0-7.6-0.7-10.9-2.1c-3.3-1.4-6.2-3.4-8.6-6c-2.4-2.5-4.2-5.6-5.5-9.1
			c-1.3-3.4-1.9-7.3-1.9-11.3c0-4.1,0.7-7.9,2-11.3c1.3-3.5,3.2-6.5,5.6-9c2.4-2.5,5.3-4.5,8.6-5.9c3.3-1.4,6.9-2.1,10.7-2.1
			c3.9,0,7.5,0.7,10.8,2.1c3.3,1.4,6.2,3.4,8.6,5.9c2.4,2.5,4.2,5.5,5.5,9c1.3,3.4,1.9,7.2,1.9,11.3c0,4-0.6,7.8-1.8,11.2
			c-1.2,3.5-3.1,6.6-5.5,9.2c-2.4,2.6-5.3,4.6-8.6,6C98.3,371,94.6,371.7,90.6,371.7z M90.6,335.7c-1.4,0-2.1,0.5-2.6,1.2
			c-1,1.4-1.4,3.5-1.4,6.3c0,2.8,0.5,5,1.5,6.4c0.5,0.8,1.2,1.3,2.6,1.3c1.4,0,2-0.5,2.5-1.2c1-1.4,1.5-3.6,1.5-6.4
			c0-2.8-0.5-5-1.4-6.3C92.6,336.2,92,335.7,90.6,335.7z"/>
		<path class="st1" d="M90.6,319.9c3.2,0,6.2,0.6,8.8,1.7c2.7,1.1,5,2.7,6.9,4.7c1.9,2,3.4,4.5,4.5,7.4c1.1,2.9,1.6,6.1,1.6,9.5
			c0,3.5-0.5,6.7-1.5,9.6c-1,2.9-2.5,5.4-4.4,7.4c-1.9,2.1-4.2,3.6-6.9,4.8c-2.7,1.1-5.7,1.7-9,1.7c-3.3,0-6.2-0.6-8.9-1.7
			c-2.7-1.1-5-2.7-6.9-4.8c-1.9-2.1-3.4-4.5-4.5-7.4c-1.1-2.9-1.6-6.1-1.6-9.6c0-3.5,0.5-6.7,1.6-9.5c1.1-2.9,2.6-5.3,4.6-7.4
			c1.9-2,4.3-3.6,6.9-4.7C84.6,320.5,87.5,319.9,90.6,319.9 M90.6,355.9c2.9,0,5.1-1.1,6.6-3.4c1.5-2.3,2.3-5.4,2.3-9.3
			c0-3.9-0.8-6.9-2.3-9.2c-1.5-2.2-3.8-3.3-6.6-3.3s-5.1,1.1-6.7,3.3c-1.6,2.2-2.4,5.3-2.4,9.2c0,3.9,0.8,7,2.4,9.3
			C85.5,354.8,87.8,355.9,90.6,355.9 M90.6,309.9c-4.5,0-8.7,0.8-12.6,2.5c-3.9,1.7-7.4,4-10.3,7c-2.9,3-5.1,6.6-6.7,10.7
			c-1.5,4-2.3,8.4-2.3,13.1c0,4.7,0.7,9.1,2.2,13.1c1.5,4.1,3.7,7.8,6.5,10.8c2.9,3.1,6.3,5.5,10.3,7.2c3.9,1.6,8.2,2.5,12.8,2.5
			c4.6,0,9-0.8,12.9-2.5c4-1.7,7.5-4.1,10.3-7.2c2.9-3.1,5-6.8,6.5-11c1.4-3.9,2.1-8.3,2.1-12.9c0-4.7-0.8-9.1-2.2-13
			c-1.5-4.1-3.8-7.7-6.6-10.7c-2.9-3-6.3-5.4-10.3-7.1C99.4,310.7,95.2,309.9,90.6,309.9L90.6,309.9z"/>
	</g>
	<g>
		<path class="st1" d="M156.1,383.2v-12.7h-22.5v12.7h-20.7v-33h7.9c0.6-1.1,1.1-2.3,1.5-3.6c0.8-2.5,1.3-5.3,1.7-8.1
			c0.3-3,0.5-6,0.6-9c0.1-3.2,0.1-5.9,0.1-8.4v-5h44.6v34.1h7.5v33H156.1z M146.7,350.2v-13.8h-0.6c0,0.5-0.1,1-0.1,1.5
			c-0.2,2.3-0.4,4.6-0.8,6.8c-0.3,1.9-0.8,3.8-1.3,5.6H146.7z"/>
		<path class="st1" d="M164.3,321.1v34.1h7.5v23h-10.7v-12.7h-32.5v12.7h-10.7v-23h5.5c1.6-1.9,2.8-4.3,3.7-7.1
			c0.9-2.8,1.5-5.9,1.9-9c0.4-3.2,0.6-6.4,0.6-9.5c0.1-3.2,0.1-6,0.1-8.5H164.3 M136.3,355.2h15.4v-23.8h-10.3c-0.1,2-0.2,4-0.4,6.1
			c-0.1,2.1-0.4,4.2-0.8,6.3c-0.4,2.1-0.9,4.1-1.5,6C138.2,351.8,137.4,353.6,136.3,355.2 M174.3,311.1h-10h-34.6h-10v10
			c0,2.4,0,5.1-0.1,8.3c-0.1,2.8-0.2,5.7-0.6,8.5c-0.3,2.6-0.8,5-1.5,7.3c0,0,0,0,0,0.1h-9.6v10v23v10h10h10.7h10v-10v-2.7h12.5v2.7
			v10h10h10.7h10v-10v-23v-10h-7.5v-24.1V311.1L174.3,311.1z"/>
	</g>
	<g>
		<polygon class="st1" points="200.1,370.5 200.1,336.6 197,336.6 197,370.5 174.4,370.5 174.4,316.1 222.7,316.1 222.7,370.5 		"/>
		<path class="st1" d="M217.7,321.1v44.5h-12.6v-34H192v34h-12.6v-44.5H217.7 M227.7,311.1h-10h-38.3h-10v10v44.5v10h10H192h10h3.1
			h12.6h10v-10v-44.5V311.1L227.7,311.1z"/>
	</g>
	<g>
		<path class="st1" d="M252.4,370.5v-5c0-2.9,0-5.7,0.1-8.5c0-0.3,0-0.6,0-0.9c-1.5,2.2-2.8,4.3-4.1,6.4c-1.3,2-2.4,3.9-3.4,5.6
			l-1.4,2.5h-18.9v-54.5h22.6v5c0,2.7,0,5.2,0,7.7c2.9-4,5.7-7.6,8.5-10.9l1.5-1.8h18v54.5H252.4z"/>
		<path class="st1" d="M270,321.1v44.5h-12.7c0-2.8,0-5.6,0.1-8.4c0.1-2.8,0.1-5.4,0.2-7.7c0.1-2.4,0.1-4.4,0.2-6.2
			c0.1-1.8,0.1-3.1,0.1-3.9c-1.6,2.3-3.3,4.6-4.9,7c-1.6,2.4-3.2,4.7-4.7,7c-1.5,2.3-2.9,4.5-4.2,6.5c-1.3,2.1-2.5,4-3.5,5.7h-11.1
			v-44.5h12.6c0,2.8,0,5.5,0,8.1c0,2.6-0.1,4.9-0.1,7c-0.1,2.1-0.1,3.9-0.2,5.5c-0.1,1.6-0.1,2.7-0.1,3.6c3.4-5,6.5-9.4,9.3-13.4
			c2.8-3.9,5.6-7.5,8.3-10.7H270 M280,311.1h-10h-10.6h-4.7l-2.6,3.1v-3.1h-10h-12.6h-10v10v44.5v10h10h11.1h5.8l1-1.7v1.7h10H270
			h10v-10v-44.5V311.1L280,311.1z"/>
	</g>
	<g>
		<path class="st1" d="M302.9,371.7c-4.7,0-8.9-0.7-12.4-2.2c-3.6-1.5-6.6-3.6-9-6.2c-2.4-2.6-4.1-5.7-5.2-9.3
			c-1-3.3-1.5-6.9-1.5-10.7c0-3.8,0.6-7.4,1.9-10.8c1.3-3.5,3.1-6.5,5.6-9.1c2.4-2.6,5.4-4.7,8.8-6.2c3.4-1.5,7.4-2.3,11.6-2.3
			c2.7,0,5.3,0.3,7.6,0.7c2.3,0.5,4.5,1.2,6.7,2.1l4,1.7l-5.1,19.6l-5.2-2c-1-0.4-2.1-0.7-3.3-1c-1-0.2-2.2-0.4-3.6-0.4
			c-3.2,0-4.1,1.1-4.4,1.6c-1.1,1.4-1.7,3.4-1.7,6c0,2.8,0.5,4.9,1.5,6.2c0.7,0.9,2.5,1.4,5.1,1.4c1.2,0,2.6-0.1,4.1-0.4
			c1.3-0.2,2.6-0.6,3.7-1l5.8-2.5l3.5,20.4l-3.6,1.5c-1.8,0.8-3.9,1.4-6.4,1.9C308.7,371.5,305.9,371.7,302.9,371.7z"/>
		<path class="st1" d="M302.7,319.9c2.4,0,4.5,0.2,6.5,0.6c2,0.4,3.9,1,5.7,1.8l-2.6,10.1c-1.2-0.5-2.5-0.8-3.9-1.2
			c-1.4-0.3-3-0.5-4.7-0.5c-3.7,0-6.5,1.2-8.3,3.5c-1.8,2.3-2.7,5.4-2.7,9.1c0,4,0.9,7.1,2.6,9.3c1.7,2.2,4.7,3.3,9,3.3
			c1.5,0,3.2-0.1,4.9-0.4c1.7-0.3,3.4-0.7,4.8-1.4l1.8,10.3c-1.5,0.6-3.3,1.2-5.5,1.6c-2.2,0.5-4.6,0.7-7.3,0.7
			c-4.1,0-7.6-0.6-10.5-1.8c-2.9-1.2-5.3-2.9-7.2-4.9c-1.9-2.1-3.3-4.5-4.1-7.4c-0.9-2.8-1.3-5.9-1.3-9.3c0-3.2,0.5-6.2,1.6-9.1
			c1-2.8,2.5-5.3,4.5-7.4c2-2.1,4.4-3.8,7.2-5C295.8,320.5,299.1,319.9,302.7,319.9 M302.7,309.9c-5,0-9.6,0.9-13.7,2.7
			c-4.1,1.8-7.6,4.3-10.5,7.4c-2.9,3.1-5.1,6.7-6.6,10.8c-1.4,3.9-2.2,8.2-2.2,12.5c0,4.3,0.6,8.4,1.8,12.2c1.3,4.2,3.4,8,6.3,11.2
			c2.9,3.2,6.5,5.7,10.8,7.5c4.1,1.7,8.9,2.6,14.3,2.6c3.3,0,6.4-0.3,9.3-0.9c2.9-0.6,5.3-1.3,7.4-2.2l7.3-3.1l-1.3-7.8l-1.8-10.3
			l-2.1-12.4l-1.1,0.5l1.4-5.5l2.6-10.1l2.2-8.4l-7.9-3.4c-2.4-1-5-1.8-7.6-2.4C308.6,310.2,305.7,309.9,302.7,309.9L302.7,309.9z
			 M303,340.8c0.2,0,0.4,0,0.7,0c1.2,0,2,0.1,2.4,0.2c1,0.2,1.9,0.5,2.7,0.8l4.6,1.7l-3.3,1.4c-0.7,0.3-1.6,0.5-2.5,0.7
			c-1.2,0.2-2.3,0.3-3.3,0.3c-0.6,0-1,0-1.3-0.1c-0.1-0.5-0.2-1.3-0.2-2.5C302.6,342.2,302.7,341.3,303,340.8L303,340.8z"/>
	</g>
	<g>
		<path class="st1" d="M349.9,370.5l-1.5-2.2c-1-1.4-2-2.9-3.3-4.5c-1.1-1.4-2.2-2.8-3.4-4.2v10.9h-22.6v-54.5h22.6v8.3
			c1-1.1,2-2.1,2.9-3.2c1.2-1.4,2.3-2.5,3.3-3.6l1.5-1.6h28.9l-7.9,8.4c-1.1,1.2-2.5,2.7-4.2,4.4c-1.7,1.8-3.5,3.6-5.3,5.5
			c-1.9,1.9-3.8,3.8-5.7,5.7c-0.4,0.4-0.9,0.9-1.3,1.3c0.5,0.5,0.9,0.9,1.4,1.4c2,2,4,4.2,5.9,6.5c1.9,2.3,3.7,4.6,5.4,6.9
			c1.7,2.4,3.3,4.7,4.5,6.7l4.5,7.6H349.9z"/>
		<path class="st1" d="M366.8,321.1c-1.1,1.2-2.5,2.7-4.2,4.4c-1.7,1.7-3.4,3.6-5.3,5.4c-1.9,1.9-3.7,3.8-5.6,5.6
			c-1.9,1.9-3.7,3.5-5.3,4.9c1.7,1.3,3.5,2.9,5.4,4.8s3.8,4,5.6,6.2c1.8,2.2,3.6,4.4,5.2,6.7c1.7,2.3,3.1,4.4,4.3,6.3h-14.3
			c-1-1.5-2.2-3.1-3.5-4.8c-1.3-1.7-2.6-3.3-4-4.9c-1.4-1.6-2.8-3.1-4.3-4.6c-1.5-1.4-2.8-2.6-4.1-3.7v17.9h-12.6v-44.5h12.6v15.5
			c1.2-1.2,2.5-2.5,3.9-3.9s2.7-2.8,4-4.2s2.5-2.7,3.7-4c1.2-1.3,2.2-2.5,3.2-3.4H366.8 M389.8,311.1h-23h-15.3h-4.3l-0.5,0.5v-0.5
			h-10h-12.6h-10v10v44.5v10h10h12.6h10v-0.7l0.5,0.7h5.3h14.3h17.6l-9-15.1c-1.3-2.2-2.9-4.6-4.8-7.1c-1.8-2.4-3.7-4.8-5.6-7.2
			c-1.3-1.6-2.7-3.1-4.1-4.6c1.2-1.2,2.4-2.4,3.5-3.5c1.9-1.9,3.7-3.8,5.4-5.6c1.7-1.8,3.1-3.3,4.2-4.5L389.8,311.1L389.8,311.1z"/>
	</g>
	<g>
		<path class="st1" d="M388.9,371.5c-3.2,0-6.2-0.3-8.9-0.9c-3-0.6-5.6-1.7-7.8-3.3c-2.4-1.6-4.3-3.8-5.6-6.5
			c-1.2-2.5-1.9-5.6-1.9-9c0-3.5,0.8-6.5,2.2-9.1c1.1-2,2.6-3.6,4.3-5l-3-19.3l4.2-1.3c0.9-0.3,1.9-0.5,3.1-0.8
			c1.2-0.3,2.5-0.5,4-0.7c1.4-0.2,2.8-0.4,4.4-0.5c1.6-0.2,3.2-0.2,4.8-0.2c4.3,0,7.9,0.5,10.9,1.5c3.2,1.1,5.9,2.8,8,4.9
			c2.1,2.2,3.5,4.8,4.4,7.9c0.7,2.7,1.1,5.7,1.1,8.8v30.2l-3.9,0.9c-1.9,0.4-4.5,0.9-7.8,1.4C398,371.2,393.8,371.5,388.9,371.5z
			 M387.9,351.6c0.5,0.1,1.1,0.2,1.9,0.2c0.4,0,0.8,0,1.3,0v-0.4c0,0,0,0-0.1,0c-1,0-1.8,0.1-2.7,0.2
			C388.1,351.5,388,351.6,387.9,351.6z"/>
		<path class="st1" d="M388.8,319.9c3.7,0,6.8,0.4,9.3,1.3c2.5,0.8,4.5,2.1,6,3.6c1.5,1.6,2.5,3.5,3.2,5.7c0.6,2.3,0.9,4.8,0.9,7.5
			v26.2c-1.8,0.4-4.3,0.9-7.5,1.4c-3.2,0.5-7.1,0.8-11.7,0.8c-2.9,0-5.5-0.3-7.8-0.8c-2.3-0.5-4.4-1.3-6-2.5c-1.7-1.2-3-2.7-3.9-4.5
			s-1.4-4.1-1.4-6.8c0-2.6,0.5-4.8,1.6-6.6c1-1.8,2.4-3.2,4.2-4.3c1.7-1.1,3.7-1.8,6-2.3c2.3-0.5,4.6-0.7,7-0.7
			c1.6,0,3.1,0.1,4.4,0.2c1.3,0.1,2.3,0.3,3.1,0.5v-1.2c0-2.1-0.6-3.9-1.9-5.2c-1.3-1.3-3.5-1.9-6.8-1.9c-2.1,0-4.3,0.2-6.3,0.5
			c-2.1,0.3-3.9,0.7-5.4,1.3L374,322c0.7-0.2,1.6-0.5,2.7-0.7c1.1-0.3,2.3-0.5,3.6-0.7c1.3-0.2,2.7-0.4,4.1-0.5
			C385.9,320,387.3,319.9,388.8,319.9 M389.8,356.8c1.2,0,2.4,0,3.5-0.1c1.1-0.1,2-0.1,2.7-0.3v-9.5c-0.5-0.1-1.3-0.2-2.3-0.3
			c-1-0.1-1.9-0.2-2.8-0.2c-1.2,0-2.3,0.1-3.3,0.2c-1,0.1-2,0.4-2.7,0.8c-0.8,0.4-1.4,0.9-1.9,1.6c-0.5,0.7-0.7,1.5-0.7,2.5
			c0,2,0.7,3.3,2,4.1C385.7,356.4,387.5,356.8,389.8,356.8 M388.8,309.9c-1.8,0-3.6,0.1-5.3,0.3c-1.6,0.2-3.2,0.4-4.6,0.6
			c-1.5,0.2-3,0.5-4.3,0.8c-1.3,0.3-2.4,0.6-3.4,0.9l-8.3,2.5l1.4,8.6l1.6,10.1l0.3,2.1c-1.3,1.3-2.4,2.8-3.3,4.4
			c-1.9,3.3-2.9,7.2-2.9,11.6c0,4.2,0.8,8,2.4,11.2c1.7,3.4,4.1,6.3,7.2,8.4c2.8,1.9,6,3.2,9.6,4c3,0.7,6.4,1,9.9,1
			c5.2,0,9.5-0.3,13.3-0.9c3.4-0.6,6-1.1,8-1.5l7.9-1.7v-8v-26.2c0-3.6-0.4-7.1-1.3-10.2c-1.1-3.8-2.9-7.2-5.5-10
			c-2.6-2.8-6-4.9-10-6.2C397.7,310.5,393.6,309.9,388.8,309.9L388.8,309.9z"/>
	</g>
</g>
<g>
	<g>
		<path d="M58.2,307v58.6H45v-47.4H23.2v47.4H10V307H58.2z"/>
		<path class="st1" d="M58.2,307v58.6H45v-47.4H23.2v47.4H10V307H58.2 M68.2,297h-10H10H0v10v58.6v10h10h13.2h10H35h10h13.2h10v-10
			V307V297L68.2,297z"/>
	</g>
	<g>
		<path d="M112.4,343.2c0,3.5-0.5,6.7-1.5,9.6c-1,2.9-2.5,5.4-4.4,7.4c-1.9,2.1-4.2,3.6-6.9,4.8c-2.7,1.1-5.7,1.7-9,1.7
			c-3.3,0-6.2-0.6-8.9-1.7c-2.7-1.1-5-2.7-6.9-4.8c-1.9-2.1-3.4-4.5-4.5-7.4c-1.1-2.9-1.6-6.1-1.6-9.6c0-3.5,0.5-6.7,1.6-9.5
			c1.1-2.9,2.6-5.3,4.6-7.4c1.9-2,4.3-3.6,6.9-4.7c2.7-1.1,5.6-1.7,8.7-1.7c3.2,0,6.2,0.6,8.8,1.7c2.7,1.1,5,2.7,6.9,4.7
			c1.9,2,3.4,4.5,4.5,7.4C111.9,336.6,112.4,339.7,112.4,343.2z M99.6,343.2c0-3.9-0.8-6.9-2.3-9.2c-1.5-2.2-3.8-3.3-6.6-3.3
			s-5.1,1.1-6.7,3.3c-1.6,2.2-2.4,5.3-2.4,9.2c0,3.9,0.8,7,2.4,9.3c1.6,2.3,3.8,3.4,6.7,3.4s5.1-1.1,6.6-3.4
			C98.8,350.2,99.6,347.1,99.6,343.2z"/>
		<path class="st1" d="M90.6,319.9c3.2,0,6.2,0.6,8.8,1.7c2.7,1.1,5,2.7,6.9,4.7c1.9,2,3.4,4.5,4.5,7.4c1.1,2.9,1.6,6.1,1.6,9.5
			c0,3.5-0.5,6.7-1.5,9.6c-1,2.9-2.5,5.4-4.4,7.4c-1.9,2.1-4.2,3.6-6.9,4.8c-2.7,1.1-5.7,1.7-9,1.7c-3.3,0-6.2-0.6-8.9-1.7
			c-2.7-1.1-5-2.7-6.9-4.8c-1.9-2.1-3.4-4.5-4.5-7.4c-1.1-2.9-1.6-6.1-1.6-9.6c0-3.5,0.5-6.7,1.6-9.5c1.1-2.9,2.6-5.3,4.6-7.4
			c1.9-2,4.3-3.6,6.9-4.7C84.6,320.5,87.5,319.9,90.6,319.9 M90.6,355.9c2.9,0,5.1-1.1,6.6-3.4c1.5-2.3,2.3-5.4,2.3-9.3
			c0-3.9-0.8-6.9-2.3-9.2c-1.5-2.2-3.8-3.3-6.6-3.3s-5.1,1.1-6.7,3.3c-1.6,2.2-2.4,5.3-2.4,9.2c0,3.9,0.8,7,2.4,9.3
			C85.5,354.8,87.8,355.9,90.6,355.9 M90.6,309.9c-4.5,0-8.7,0.8-12.6,2.5c-3.9,1.7-7.4,4-10.3,7c-2.9,3-5.1,6.6-6.7,10.7
			c-1.5,4-2.3,8.4-2.3,13.1c0,4.7,0.7,9.1,2.2,13.1c1.5,4.1,3.7,7.8,6.5,10.8c2.9,3.1,6.3,5.5,10.3,7.2c3.9,1.6,8.2,2.5,12.8,2.5
			c4.6,0,9-0.8,12.9-2.5c4-1.7,7.5-4.1,10.3-7.2c2.9-3.1,5-6.8,6.5-11c1.4-3.9,2.1-8.3,2.1-12.9c0-4.7-0.8-9.1-2.2-13
			c-1.5-4.1-3.8-7.7-6.6-10.7c-2.9-3-6.3-5.4-10.3-7.1C99.4,310.7,95.2,309.9,90.6,309.9L90.6,309.9z"/>
	</g>
	<g>
		<path d="M117.9,355.2h5.5c1.6-1.9,2.8-4.3,3.7-7.1c0.9-2.8,1.5-5.9,1.9-9c0.4-3.2,0.6-6.4,0.6-9.5c0.1-3.2,0.1-6,0.1-8.5h34.6
			v34.1h7.5v23h-10.7v-12.7h-32.5v12.7h-10.7V355.2z M151.7,355.2v-23.8h-10.3c-0.1,2-0.2,4-0.4,6.1c-0.1,2.1-0.4,4.2-0.8,6.3
			c-0.4,2.1-0.9,4.1-1.5,6c-0.6,2-1.4,3.8-2.5,5.4H151.7z"/>
		<path class="st1" d="M164.3,321.1v34.1h7.5v23h-10.7v-12.7h-32.5v12.7h-10.7v-23h5.5c1.6-1.9,2.8-4.3,3.7-7.1
			c0.9-2.8,1.5-5.9,1.9-9c0.4-3.2,0.6-6.4,0.6-9.5c0.1-3.2,0.1-6,0.1-8.5H164.3 M136.3,355.2h15.4v-23.8h-10.3c-0.1,2-0.2,4-0.4,6.1
			c-0.1,2.1-0.4,4.2-0.8,6.3c-0.4,2.1-0.9,4.1-1.5,6C138.2,351.8,137.4,353.6,136.3,355.2 M174.3,311.1h-10h-34.6h-10v10
			c0,2.4,0,5.1-0.1,8.3c-0.1,2.8-0.2,5.7-0.6,8.5c-0.3,2.6-0.8,5-1.5,7.3c0,0,0,0,0,0.1l-9.6,33v10h10h10.7h10v-10v-2.7h12.5v2.7v10
			h10h10.7h10v-10v-23v-10h-7.5v-24.1V311.1L174.3,311.1z"/>
	</g>
	<g>
		<path d="M217.7,321.1v44.5h-12.6v-34H192v34h-12.6v-44.5H217.7z"/>
		<path class="st1" d="M217.7,321.1v44.5h-12.6v-34H192v34h-12.6v-44.5H217.7 M227.7,311.1h-10h-38.3h-10v10l10,54.5H192h10h3.1
			h12.6h10v-10v-44.5V311.1L227.7,311.1z"/>
	</g>
	<g>
		<path d="M270,321.1v44.5h-12.7c0-2.8,0-5.6,0.1-8.4c0.1-2.8,0.1-5.4,0.2-7.7c0.1-2.4,0.1-4.4,0.2-6.2c0.1-1.8,0.1-3.1,0.1-3.9
			c-1.6,2.3-3.3,4.6-4.9,7c-1.6,2.4-3.2,4.7-4.7,7c-1.5,2.3-2.9,4.5-4.2,6.5c-1.3,2.1-2.5,4-3.5,5.7h-11.1v-44.5h12.6
			c0,2.8,0,5.5,0,8.1c0,2.6-0.1,4.9-0.1,7c-0.1,2.1-0.1,3.9-0.2,5.5c-0.1,1.6-0.1,2.7-0.1,3.6c3.4-5,6.5-9.4,9.3-13.4
			c2.8-3.9,5.6-7.5,8.3-10.7H270z"/>
		<path class="st1" d="M270,321.1v44.5h-12.7c0-2.8,0-5.6,0.1-8.4c0.1-2.8,0.1-5.4,0.2-7.7c0.1-2.4,0.1-4.4,0.2-6.2
			c0.1-1.8,0.1-3.1,0.1-3.9c-1.6,2.3-3.3,4.6-4.9,7c-1.6,2.4-3.2,4.7-4.7,7c-1.5,2.3-2.9,4.5-4.2,6.5c-1.3,2.1-2.5,4-3.5,5.7h-11.1
			v-44.5h12.6c0,2.8,0,5.5,0,8.1c0,2.6-0.1,4.9-0.1,7c-0.1,2.1-0.1,3.9-0.2,5.5c-0.1,1.6-0.1,2.7-0.1,3.6c3.4-5,6.5-9.4,9.3-13.4
			c2.8-3.9,5.6-7.5,8.3-10.7H270 M280,311.1h-10h-10.6h-4.7h-2.6h-10h-12.6h-10v10v44.5v10h10h11.1h5.8h1h10H270h10v-10v-44.5V311.1
			L280,311.1z"/>
	</g>
	<g>
		<path d="M279.8,343.3c0-3.2,0.5-6.2,1.6-9.1c1-2.8,2.5-5.3,4.5-7.4c2-2.1,4.4-3.8,7.2-5c2.8-1.2,6-1.9,9.6-1.9
			c2.4,0,4.5,0.2,6.5,0.6c2,0.4,3.9,1,5.7,1.8l-2.6,10.1c-1.2-0.5-2.5-0.8-3.9-1.2c-1.4-0.3-3-0.5-4.7-0.5c-3.7,0-6.5,1.2-8.3,3.5
			c-1.8,2.3-2.7,5.4-2.7,9.1c0,4,0.9,7.1,2.6,9.3c1.7,2.2,4.7,3.3,9,3.3c1.5,0,3.2-0.1,4.9-0.4c1.7-0.3,3.4-0.7,4.8-1.4l1.8,10.3
			c-1.5,0.6-3.3,1.2-5.5,1.6c-2.2,0.5-4.6,0.7-7.3,0.7c-4.1,0-7.6-0.6-10.5-1.8c-2.9-1.2-5.3-2.9-7.2-4.9c-1.9-2.1-3.3-4.5-4.1-7.4
			C280.2,349.7,279.8,346.6,279.8,343.3z"/>
		<path class="st1" d="M302.7,319.9c2.4,0,4.5,0.2,6.5,0.6c2,0.4,3.9,1,5.7,1.8l-2.6,10.1c-1.2-0.5-2.5-0.8-3.9-1.2
			c-1.4-0.3-3-0.5-4.7-0.5c-3.7,0-6.5,1.2-8.3,3.5c-1.8,2.3-2.7,5.4-2.7,9.1c0,4,0.9,7.1,2.6,9.3c1.7,2.2,4.7,3.3,9,3.3
			c1.5,0,3.2-0.1,4.9-0.4c1.7-0.3,3.4-0.7,4.8-1.4l1.8,10.3c-1.5,0.6-3.3,1.2-5.5,1.6c-2.2,0.5-4.6,0.7-7.3,0.7
			c-4.1,0-7.6-0.6-10.5-1.8c-2.9-1.2-5.3-2.9-7.2-4.9c-1.9-2.1-3.3-4.5-4.1-7.4c-0.9-2.8-1.3-5.9-1.3-9.3c0-3.2,0.5-6.2,1.6-9.1
			c1-2.8,2.5-5.3,4.5-7.4c2-2.1,4.4-3.8,7.2-5C295.8,320.5,299.1,319.9,302.7,319.9 M302.7,309.9c-5,0-9.6,0.9-13.7,2.7
			c-4.1,1.8-7.6,4.3-10.5,7.4c-2.9,3.1-5.1,6.7-6.6,10.8c-1.4,3.9-2.2,8.2-2.2,12.5c0,4.3,0.6,8.4,1.8,12.2c1.3,4.2,3.4,8,6.3,11.2
			c2.9,3.2,6.5,5.7,10.8,7.5c4.1,1.7,8.9,2.6,14.3,2.6c3.3,0,6.4-0.3,9.3-0.9c2.9-0.6,5.3-1.3,7.4-2.2l7.3-3.1l-1.3-7.8l-1.8-10.3
			l-2.1-12.4l-1.1,0.5l1.4-5.5l2.6-10.1l2.2-8.4l-7.9-3.4c-2.4-1-5-1.8-7.6-2.4C308.6,310.2,305.7,309.9,302.7,309.9L302.7,309.9z"
			/>
	</g>
	<g>
		<path d="M336.7,336.6c1.2-1.2,2.5-2.5,3.9-3.9s2.7-2.8,4-4.2s2.5-2.7,3.7-4c1.2-1.3,2.2-2.5,3.2-3.4h15.3
			c-1.1,1.2-2.5,2.7-4.2,4.4c-1.7,1.7-3.4,3.6-5.3,5.4c-1.9,1.9-3.7,3.8-5.6,5.6c-1.9,1.9-3.7,3.5-5.3,4.9c1.7,1.3,3.5,2.9,5.4,4.8
			s3.8,4,5.6,6.2c1.8,2.2,3.6,4.4,5.2,6.7c1.7,2.3,3.1,4.4,4.3,6.3h-14.3c-1-1.5-2.2-3.1-3.5-4.8c-1.3-1.7-2.6-3.3-4-4.9
			c-1.4-1.6-2.8-3.1-4.3-4.6c-1.5-1.4-2.8-2.6-4.1-3.7v17.9h-12.6v-44.5h12.6V336.6z"/>
		<path class="st1" d="M366.8,321.1c-1.1,1.2-2.5,2.7-4.2,4.4c-1.7,1.7-3.4,3.6-5.3,5.4c-1.9,1.9-3.7,3.8-5.6,5.6
			c-1.9,1.9-3.7,3.5-5.3,4.9c1.7,1.3,3.5,2.9,5.4,4.8s3.8,4,5.6,6.2c1.8,2.2,3.6,4.4,5.2,6.7c1.7,2.3,3.1,4.4,4.3,6.3h-14.3
			c-1-1.5-2.2-3.1-3.5-4.8c-1.3-1.7-2.6-3.3-4-4.9c-1.4-1.6-2.8-3.1-4.3-4.6c-1.5-1.4-2.8-2.6-4.1-3.7v17.9h-12.6v-44.5h12.6v15.5
			c1.2-1.2,2.5-2.5,3.9-3.9s2.7-2.8,4-4.2s2.5-2.7,3.7-4c1.2-1.3,2.2-2.5,3.2-3.4H366.8 M389.8,311.1h-23h-15.3h-4.3h-0.5h-10h-12.6
			h-10v10v44.5v10h10h12.6h10h0.5h5.3h14.3h17.6l-9-15.1c-1.3-2.2-2.9-4.6-4.8-7.1c-1.8-2.4-2.5-19.1-0.8-20.9
			c1.7-1.8,3.1-3.3,4.2-4.5L389.8,311.1L389.8,311.1z"/>
	</g>
	<g>
		<path d="M388.8,319.9c3.7,0,6.8,0.4,9.3,1.3c2.5,0.8,4.5,2.1,6,3.6c1.5,1.6,2.5,3.5,3.2,5.7c0.6,2.3,0.9,4.8,0.9,7.5v26.2
			c-1.8,0.4-4.3,0.9-7.5,1.4c-3.2,0.5-7.1,0.8-11.7,0.8c-2.9,0-5.5-0.3-7.8-0.8c-2.3-0.5-4.4-1.3-6-2.5c-1.7-1.2-3-2.7-3.9-4.5
			s-1.4-4.1-1.4-6.8c0-2.6,0.5-4.8,1.6-6.6c1-1.8,2.4-3.2,4.2-4.3c1.7-1.1,3.7-1.8,6-2.3c2.3-0.5,4.6-0.7,7-0.7
			c1.6,0,3.1,0.1,4.4,0.2c1.3,0.1,2.3,0.3,3.1,0.5v-1.2c0-2.1-0.6-3.9-1.9-5.2c-1.3-1.3-3.5-1.9-6.8-1.9c-2.1,0-4.3,0.2-6.3,0.5
			c-2.1,0.3-3.9,0.7-5.4,1.3L374,322c0.7-0.2,1.6-0.5,2.7-0.7c1.1-0.3,2.3-0.5,3.6-0.7c1.3-0.2,2.7-0.4,4.1-0.5
			C385.9,320,387.3,319.9,388.8,319.9z M389.8,356.8c1.2,0,2.4,0,3.5-0.1c1.1-0.1,2-0.1,2.7-0.3v-9.5c-0.5-0.1-1.3-0.2-2.3-0.3
			c-1-0.1-1.9-0.2-2.8-0.2c-1.2,0-2.3,0.1-3.3,0.2c-1,0.1-2,0.4-2.7,0.8c-0.8,0.4-1.4,0.9-1.9,1.6c-0.5,0.7-0.7,1.5-0.7,2.5
			c0,2,0.7,3.3,2,4.1C385.7,356.4,387.5,356.8,389.8,356.8z"/>
		<path class="st1" d="M388.8,319.9c3.7,0,6.8,0.4,9.3,1.3c2.5,0.8,4.5,2.1,6,3.6c1.5,1.6,2.5,3.5,3.2,5.7c0.6,2.3,0.9,4.8,0.9,7.5
			v26.2c-1.8,0.4-4.3,0.9-7.5,1.4c-3.2,0.5-7.1,0.8-11.7,0.8c-2.9,0-5.5-0.3-7.8-0.8c-2.3-0.5-4.4-1.3-6-2.5c-1.7-1.2-3-2.7-3.9-4.5
			s-1.4-4.1-1.4-6.8c0-2.6,0.5-4.8,1.6-6.6c1-1.8,2.4-3.2,4.2-4.3c1.7-1.1,3.7-1.8,6-2.3c2.3-0.5,4.6-0.7,7-0.7
			c1.6,0,3.1,0.1,4.4,0.2c1.3,0.1,2.3,0.3,3.1,0.5v-1.2c0-2.1-0.6-3.9-1.9-5.2c-1.3-1.3-3.5-1.9-6.8-1.9c-2.1,0-4.3,0.2-6.3,0.5
			c-2.1,0.3-3.9,0.7-5.4,1.3L374,322c0.7-0.2,1.6-0.5,2.7-0.7c1.1-0.3,2.3-0.5,3.6-0.7c1.3-0.2,2.7-0.4,4.1-0.5
			C385.9,320,387.3,319.9,388.8,319.9 M389.8,356.8c1.2,0,2.4,0,3.5-0.1c1.1-0.1,2-0.1,2.7-0.3v-9.5c-0.5-0.1-1.3-0.2-2.3-0.3
			c-1-0.1-1.9-0.2-2.8-0.2c-1.2,0-2.3,0.1-3.3,0.2c-1,0.1-2,0.4-2.7,0.8c-0.8,0.4-1.4,0.9-1.9,1.6c-0.5,0.7-0.7,1.5-0.7,2.5
			c0,2,0.7,3.3,2,4.1C385.7,356.4,387.5,356.8,389.8,356.8 M388.8,309.9c-1.8,0-3.6,0.1-5.3,0.3c-1.6,0.2-3.2,0.4-4.6,0.6
			c-1.5,0.2-3,0.5-4.3,0.8c-1.3,0.3-2.4,0.6-3.4,0.9l-8.3,2.5c0,0,3.8,3.8,4.6,14c1.3,16,0.2,41.2,2.1,42.5c2.8,1.9,6,3.2,9.6,4
			c3,0.7,6.4,1,9.9,1c5.2,0,9.5-0.3,13.3-0.9c3.4-0.6,6-1.1,8-1.5l7.9-1.7v-8v-26.2c0-3.6-0.4-7.1-1.3-10.2c-1.1-3.8-2.9-7.2-5.5-10
			c-2.6-2.8-6-4.9-10-6.2C397.7,310.5,393.6,309.9,388.8,309.9L388.8,309.9z"/>
	</g>
</g>
</svg>
