<?xml version="1.0" encoding="utf-8"?>
<!-- Generator: Adobe Illustrator 21.1.0, SVG Export Plug-In . SVG Version: 6.00 Build 0)  -->
<svg version="1.0" id="Layer_1" xmlns="http://www.w3.org/2000/svg" xmlns:xlink="http://www.w3.org/1999/xlink" x="0px" y="0px"
	 viewBox="0 0 1805.6 373.8" style="enable-background:new 0 0 1805.6 373.8;" xml:space="preserve">
<g>
	<path d="M242.7,0v295.1h-66.4V56.2H66.4v238.9H0V0H242.7z"/>
	<path d="M529.6,0v56.6h-89v238.4h-66.4V56.6h-89V0H529.6z"/>
	<path d="M572.2,295.1V0h199.3v55.8H638.6v57.9h117.9v54.5H638.6v71.1h142.6v55.8H572.2z"/>
	<path d="M1008.2,0h66.4v295.1h-66.4V169.9H896.6v125.2h-66.4V0h66.4v112.8h111.5V0z"/>
	<path d="M1385.4,238.9h51.1v135h-63.9v-78.8h-229.9V0h66.4v238.9H1319V0h66.4V238.9z"/>
	<path d="M1702.2,198.4c0,16.5-3.2,30.9-9.6,43.4c-6.4,12.5-15.5,23-27.2,31.5c-11.8,8.5-26.1,14.9-43,19.2
		c-16.9,4.3-35.7,6.4-56.4,6.4c-11.9,0-25.5-0.9-40.7-2.6c-15.2-1.7-30.6-4.4-46.2-8.1V0h66.4v97.9c3.1-0.3,6-0.4,8.7-0.4
		c2.7,0,5.6,0,8.7,0c46.3,0,81,8.2,104.3,24.7C1690.5,138.7,1702.2,164.1,1702.2,198.4z M1558.7,153.7c-1.4,0-3.4,0-6,0
		c-2.6,0-5,0.1-7.2,0.4v88.1c3.1,0.3,6.7,0.4,10.6,0.4c4,0,8.8,0,14.5,0c8.8,0,17-0.7,24.7-2.1c7.7-1.4,14.4-3.8,20.2-7.2
		c5.8-3.4,10.4-7.9,13.6-13.6c3.3-5.7,4.9-12.8,4.9-21.3c0-17.3-6.5-29.1-19.4-35.3C1601.8,156.8,1583.1,153.7,1558.7,153.7z
		 M1739.2,0h66.4v295.1h-66.4V0z"/>
</g>
</svg>
