<?xml version="1.0" encoding="utf-8"?>
<!-- Generator: Adobe Illustrator 21.1.0, SVG Export Plug-In . SVG Version: 6.00 Build 0)  -->
<svg version="1.0" id="Layer_1" xmlns="http://www.w3.org/2000/svg" xmlns:xlink="http://www.w3.org/1999/xlink" x="0px" y="0px"
	 viewBox="0 0 333.3 451.5" style="enable-background:new 0 0 333.3 451.5;" xml:space="preserve">
<style type="text/css">
	.st0{fill:#F5C900;stroke:#FFFFFF;stroke-width:15;stroke-miterlimit:10;}
	.st1{fill:#ED6DA2;}
	.st2{fill:#ED6DA2;stroke:#FFFFFF;stroke-width:15;stroke-miterlimit:10;}
</style>
<g>
	<g>
		<path class="st0" d="M248.3,97.9c0.3-2.7,0.4-5.4,0.4-8.1c0-45.5-36.9-82.3-82.3-82.3S84,44.3,84,89.7c0,2.7,0.1,5.4,0.4,8.1
			C54.3,121.9,35,158.9,35,200.4c0,72.5,58.8,131.3,131.3,131.3s131.3-58.8,131.3-131.3C297.6,158.9,278.3,121.9,248.3,97.9z"/>
		<polyline class="st1" points="211.3,42.1 271.8,69.1 211.3,89.7 		"/>
	</g>
	<path class="st2" d="M288,190l-33-48l-33,4l-29-48l-61,23c0,0-45.1-33.7-68.1-50.2C-16.4,198.3-33.4,444,165,444
		c153.5,0,181.4-147,148.4-272.6C304.4,176.7,288,190,288,190z"/>
</g>
</svg>
