<?xml version="1.0" encoding="utf-8"?>
<!-- Generator: Adobe Illustrator 21.1.0, SVG Export Plug-In . SVG Version: 6.00 Build 0)  -->
<svg version="1.0" id="Layer_1" xmlns="http://www.w3.org/2000/svg" xmlns:xlink="http://www.w3.org/1999/xlink" x="0px" y="0px"
	 viewBox="0 0 502.5 499.9" style="enable-background:new 0 0 502.5 499.9;" xml:space="preserve">
<style type="text/css">
	.st0{fill:#F5C900;}
</style>
<g>
	<polygon class="st0" points="214.5,319.2 146.7,351.1 180.8,284.4 107.2,270.4 174,236.4 122.7,181.8 196.7,193.6 187.3,119.3 
		240.3,172.3 276.4,106.7 288,180.7 355.8,148.8 321.7,215.5 395.3,229.5 328.5,263.5 379.8,318.1 305.8,306.3 315.2,380.6 
		262.2,327.6 226.1,393.3 	"/>
	<path class="st0" d="M257.7,213.3l3,18.9l17.3-8.2l-8.7,17.1l18.8,3.6l-17.1,8.7l13.1,14l-18.9-3l2.4,19l-13.5-13.6l-9.2,16.8
		l-3-18.9l-17.3,8.2l8.7-17.1l-18.8-3.6l17.1-8.7l-13.1-14l18.9,3l-2.4-19l13.5,13.6L257.7,213.3 M295,0l-63,114.6L139.8,22
		l16.4,129.7L27.1,131.1l89.5,95.3L0,285.5L128.4,310L68.9,426.4l118.3-55.7l20.3,129.1l63-114.6l92.3,92.6l-16.4-129.7l129.1,20.6
		l-89.5-95.3l116.6-59.2l-128.4-24.5l59.5-116.4l-118.3,55.7L295,0L295,0z"/>
</g>
</svg>
