<?xml version="1.0" encoding="utf-8"?>
<!-- Generator: Adobe Illustrator 21.1.0, SVG Export Plug-In . SVG Version: 6.00 Build 0)  -->
<svg version="1.0" id="Layer_1" xmlns="http://www.w3.org/2000/svg" xmlns:xlink="http://www.w3.org/1999/xlink" x="0px" y="0px"
	 viewBox="0 0 1092 633" style="enable-background:new 0 0 1092 633;" xml:space="preserve">
<style type="text/css">
	.st0{fill:#F2D2CB;stroke:#000000;stroke-width:9.0922;stroke-miterlimit:10;}
	.st1{fill:#63104F;}
	.st2{fill:#FF3400;}
	.st3{fill:#F2D2CB;stroke:#000000;stroke-width:5;stroke-miterlimit:10;}
</style>
<path class="st0" d="M597.2,628.5l-31.5-166.9l75.1-44.8c17.1-10.2,26.8-29.3,25-49.1l-21.3-230.4h-75.8l-1,105.2l-220.3-68.8v454.8
	H597.2z"/>
<rect x="0" y="153" class="st1" width="1092" height="126.2"/>
<rect x="845.7" y="0" class="st2" width="215.9" height="424.6"/>
<g>
	<path class="st3" d="M347.5,307L347.5,307V128.2c0-30.1,24.4-54.6,54.6-54.6l0,0c30.1,0,54.6,24.4,54.6,54.6v69.7
		C456.6,258.2,407.7,307,347.5,307z"/>
	<path class="st3" d="M402,307L402,307V128.2c0-30.1,24.4-54.6,54.6-54.6l0,0c30.1,0,54.6,24.4,54.6,54.6v69.7
		C511.1,258.2,462.3,307,402,307z"/>
	<path class="st3" d="M456.6,307L456.6,307V128.2c0-30.1,24.4-54.6,54.6-54.6l0,0c30.1,0,54.6,24.4,54.6,54.6v69.7
		C565.7,258.2,516.9,307,456.6,307z"/>
	<path class="st3" d="M511.1,307L511.1,307V128.2c0-30.1,24.4-54.6,54.6-54.6l0,0c30.1,0,54.6,24.4,54.6,54.6v69.7
		C620.3,258.2,571.4,307,511.1,307z"/>
</g>
<path class="st0" d="M664.5,358.5l-20-221.2l0,0c-42,0-76.1,33.8-76.5,75.8l-0.6,94.6c-0.1,7.2-5.9,13-13.1,13h-60.8
	c-7.3,0-13.1,5.9-13.1,13.1v39.9"/>
</svg>
