<?xml version="1.0" encoding="utf-8"?>
<!-- Generator: Adobe Illustrator 21.1.0, SVG Export Plug-In . SVG Version: 6.00 Build 0)  -->
<svg version="1.0" id="Layer_1" xmlns="http://www.w3.org/2000/svg" xmlns:xlink="http://www.w3.org/1999/xlink" x="0px" y="0px"
	 viewBox="0 0 1195.9 40.2" style="enable-background:new 0 0 1195.9 40.2;" xml:space="preserve">
<g>
	<path d="M18.7,0.9h7v31h-7V18.7H7v13.2H0v-31h7v11.9h11.7V0.9z"/>
	<path d="M53.7,31.9c-0.3-1.1-0.7-2.2-1.1-3.3c-0.4-1.1-0.8-2.3-1.2-3.4H39.3c-0.4,1.1-0.8,2.3-1.2,3.4s-0.8,2.2-1.1,3.3h-7.3
		c1.2-3.3,2.3-6.4,3.3-9.3c1-2.8,2.1-5.5,3.1-8s2-4.9,3-7.1s2-4.5,3-6.6h6.6c1,2.2,2,4.4,3,6.6c1,2.3,2,4.6,3,7.1s2,5.2,3.1,8
		c1,2.8,2.2,5.9,3.3,9.3H53.7z M45.3,7.9c-0.2,0.5-0.4,1.1-0.7,1.8c-0.3,0.8-0.6,1.7-1,2.7s-0.8,2.1-1.3,3.4c-0.5,1.2-1,2.5-1.4,3.8
		h8.9c-0.5-1.3-0.9-2.6-1.4-3.9c-0.4-1.2-0.9-2.3-1.3-3.4c-0.4-1-0.8-1.9-1.1-2.7C45.7,8.9,45.5,8.3,45.3,7.9z"/>
	<path d="M71.8,6.8v5.1h2.3c2.3,0,4.4,0.2,6.2,0.5c1.8,0.4,3.3,0.9,4.6,1.7c1.2,0.8,2.2,1.9,2.8,3.1c0.7,1.3,1,2.9,1,4.7
		c0,3.4-1.2,6-3.7,7.7s-6.1,2.5-10.7,2.5c-1.3,0-2.7-0.1-4.3-0.2c-1.6-0.1-3.2-0.4-4.8-0.8V0.8h20.6v5.9L71.8,6.8L71.8,6.8z
		 M74.6,26.3c0.9,0,1.8-0.1,2.6-0.2c0.8-0.1,1.6-0.3,2.2-0.6c0.6-0.3,1.2-0.7,1.5-1.3c0.4-0.5,0.6-1.2,0.6-2.1s-0.2-1.6-0.5-2.2
		c-0.4-0.6-0.9-1-1.5-1.3c-0.7-0.3-1.5-0.6-2.4-0.7c-1-0.1-2-0.2-3.2-0.2h-2.1v8.5c0.3,0,0.7,0.1,1.2,0.1
		C73.5,26.2,74,26.3,74.6,26.3z"/>
	<path d="M123.9,16.4c0,2.7-0.4,5-1.2,7c-0.8,2-1.9,3.7-3.2,5.1c-1.4,1.4-3,2.4-4.9,3.1s-3.9,1-6.1,1c-2.1,0-4.1-0.3-6-1
		s-3.5-1.7-4.9-3.1s-2.5-3-3.3-5.1c-0.8-2-1.2-4.4-1.2-7c0-2.7,0.4-5,1.3-7c0.8-2,2-3.7,3.4-5.1s3.1-2.4,4.9-3.1
		c1.9-0.7,3.8-1,5.9-1s4.1,0.3,6,1s3.5,1.7,4.9,3.1s2.5,3.1,3.3,5.1C123.5,11.4,123.9,13.7,123.9,16.4z M100.2,16.4
		c0,1.5,0.2,2.9,0.6,4.1s0.9,2.3,1.6,3.2c0.7,0.9,1.6,1.6,2.6,2c1,0.5,2.2,0.7,3.5,0.7s2.4-0.2,3.5-0.7c1-0.5,1.9-1.2,2.6-2
		c0.7-0.9,1.2-1.9,1.6-3.2c0.4-1.2,0.6-2.6,0.6-4.1s-0.2-2.9-0.6-4.1s-0.9-2.3-1.6-3.2c-0.7-0.9-1.6-1.6-2.6-2
		c-1-0.5-2.2-0.7-3.5-0.7S106,6.6,105,7.1s-1.9,1.2-2.6,2.1s-1.2,1.9-1.6,3.2C100.3,13.5,100.2,14.9,100.2,16.4z"/>
	<path d="M139,0.5c4.6,0,8.2,0.8,10.7,2.4s3.7,4.3,3.7,8s-1.3,6.4-3.8,8.1s-6.1,2.5-10.8,2.5h-2.2v10.4h-7V1.3
		c1.5-0.3,3.1-0.5,4.8-0.6C136.2,0.6,137.7,0.5,139,0.5z M139.4,6.5c-0.5,0-1,0-1.5,0s-0.9,0.1-1.3,0.1v9h2.2c2.4,0,4.2-0.3,5.5-1
		c1.2-0.7,1.8-1.9,1.8-3.7c0-0.9-0.2-1.6-0.5-2.2s-0.8-1-1.3-1.4c-0.6-0.3-1.3-0.6-2.1-0.7C141.4,6.5,140.5,6.5,139.4,6.5z"/>
	<path d="M182,21.7c0,1.7-0.3,3.3-1,4.6c-0.7,1.3-1.6,2.4-2.9,3.3c-1.2,0.9-2.7,1.6-4.5,2s-3.8,0.7-5.9,0.7c-1.3,0-2.7-0.1-4.3-0.3
		c-1.6-0.2-3.2-0.5-4.9-0.9V0.8h7v10.3c0.3,0,0.6,0,0.9,0c0.3,0,0.6,0,0.9,0c4.9,0,8.5,0.9,11,2.6C180.8,15.4,182,18.1,182,21.7z
		 M166.9,17c-0.1,0-0.4,0-0.6,0c-0.3,0-0.5,0-0.8,0v9.3c0.3,0,0.7,0,1.1,0c0.4,0,0.9,0,1.5,0c0.9,0,1.8-0.1,2.6-0.2s1.5-0.4,2.1-0.8
		s1.1-0.8,1.4-1.4c0.3-0.6,0.5-1.3,0.5-2.2c0-1.8-0.7-3.1-2-3.7C171.4,17.4,169.5,17,166.9,17z M185.9,0.9h7v31h-7V0.9z"/>
	<path d="M208.1,26h4.5c1.1-1.9,2-3.8,2.6-5.7c0.6-1.9,1.1-3.8,1.4-5.7c0.3-1.9,0.5-3.9,0.6-6s0.1-4.2,0.1-6.5V0.9h20.5V26h5.3v14.2
		h-6.7v-8.3h-21.6v8.3h-6.7V26z M223.9,6.8c-0.1,1.6-0.2,3.3-0.3,5s-0.4,3.4-0.7,5c-0.3,1.7-0.7,3.3-1.2,4.8c-0.5,1.6-1.1,3-1.9,4.4
		H231V6.8H223.9z"/>
	<path d="M261.9,6.8c-0.1,2-0.2,4-0.3,6c-0.1,2-0.4,4-0.7,5.8c-0.3,1.9-0.8,3.6-1.5,5.3c-0.6,1.6-1.5,3.1-2.6,4.3
		c-1.1,1.3-2.5,2.3-4.2,3c-1.7,0.7-3.7,1.2-6.1,1.3l-0.8-6.1c2.2-0.2,3.8-0.8,5-1.6c1.2-0.9,2-2.2,2.6-3.9c0.7-2.2,1.3-5,1.6-8.4
		s0.5-7.3,0.5-11.6h21.2v31h-7V6.8H261.9z"/>
	<path d="M297.9,0.5c1.3,0,2.7,0.1,4.4,0.2c1.7,0.2,3.4,0.4,5,0.8v30.4h-7V20.7h-2.2c-0.4,0-0.8,0-1.1,0s-0.8,0-1.3-0.1
		c-1,1.3-2.1,3-3.3,5c-1.2,2-2.3,4.1-3.3,6.2h-7.4c0.5-1.2,1.1-2.4,1.7-3.6s1.2-2.3,1.9-3.4c0.6-1.1,1.2-2.1,1.8-3
		c0.6-0.9,1.1-1.7,1.7-2.4c-0.7-0.3-1.3-0.7-1.9-1.2s-1.2-1.1-1.7-1.8c-0.5-0.7-0.9-1.5-1.2-2.4c-0.3-0.9-0.5-2-0.5-3.2
		c0-1.7,0.3-3.2,1-4.5s1.6-2.4,2.9-3.2c1.2-0.9,2.7-1.5,4.5-1.9S295.7,0.5,297.9,0.5z M297.6,6.5c-0.9,0-1.8,0.1-2.6,0.2
		c-0.8,0.1-1.5,0.4-2.2,0.7c-0.6,0.3-1.1,0.7-1.5,1.3c-0.4,0.6-0.6,1.2-0.6,2.1c0,1.6,0.6,2.7,1.7,3.3c1.1,0.6,2.8,0.9,5,0.9h2.9
		V6.6c-0.4,0-0.7,0-1.2,0C298.8,6.5,298.3,6.5,297.6,6.5z"/>
	<path d="M322.6,26h4.5c1.1-1.9,2-3.8,2.6-5.7c0.6-1.9,1.1-3.8,1.4-5.7c0.3-1.9,0.5-3.9,0.6-6s0.1-4.2,0.1-6.5V0.9h20.5V26h5.3v14.2
		h-6.7v-8.3h-21.6v8.3h-6.7L322.6,26L322.6,26z M338.4,6.8c-0.1,1.6-0.2,3.3-0.3,5c-0.1,1.7-0.4,3.4-0.7,5c-0.3,1.7-0.7,3.3-1.2,4.8
		c-0.5,1.6-1.1,3-1.9,4.4h11.2V6.8H338.4z"/>
	<path d="M362.1,31.9v-31h21v5.9h-14v6.1h12.4v5.7h-12.4v7.5h15V32h-22V31.9z"/>
	<path d="M412.3,0.9v6h-9.4V32h-7V6.8h-9.4v-6h25.8V0.9z"/>
	<path d="M430.9,32.5c-5,0-8.9-1.4-11.5-4.2c-2.6-2.8-4-6.8-4-12c0-2.6,0.4-4.9,1.2-6.9c0.8-2,1.9-3.7,3.3-5.1s3.1-2.4,5-3.2
		c1.9-0.7,4-1.1,6.3-1.1c1.3,0,2.5,0.1,3.6,0.3c1.1,0.2,2,0.4,2.8,0.7c0.8,0.3,1.5,0.5,2,0.8s0.9,0.5,1.2,0.6l-2,5.6
		c-1-0.5-2.1-0.9-3.3-1.3c-1.3-0.4-2.7-0.5-4.3-0.5c-1.1,0-2.1,0.2-3.2,0.5c-1,0.4-1.9,0.9-2.7,1.7c-0.8,0.8-1.4,1.8-1.9,3.1
		c-0.5,1.3-0.7,2.8-0.7,4.6c0,1.4,0.2,2.8,0.5,4s0.8,2.3,1.5,3.2c0.7,0.9,1.6,1.6,2.8,2.1c1.1,0.5,2.5,0.8,4.1,0.8
		c1,0,1.9-0.1,2.7-0.2c0.8-0.1,1.5-0.3,2.2-0.4c0.6-0.2,1.2-0.4,1.7-0.6s0.9-0.4,1.3-0.6l1.9,5.6c-1,0.6-2.4,1.1-4.2,1.6
		S433.3,32.5,430.9,32.5z"/>
	<path d="M464.1,31.9c-0.6-1-1.4-2.1-2.2-3.3s-1.8-2.4-2.8-3.5s-2-2.3-3.1-3.4s-2.2-2.1-3.2-2.9v13.1h-7v-31h7v11.7
		c1.8-1.9,3.6-3.9,5.5-5.9c1.9-2.1,3.6-4,5.1-5.7h8.3c-2.1,2.5-4.2,4.9-6.4,7.3c-2.1,2.3-4.4,4.7-6.8,7c2.5,2.1,4.9,4.5,7.2,7.4
		s4.5,6,6.7,9.4h-8.3L464.1,31.9L464.1,31.9z"/>
	<path d="M503.5,16.4c0,2.7-0.4,5-1.2,7c-0.8,2-1.9,3.7-3.2,5.1c-1.4,1.4-3,2.4-4.9,3.1s-3.9,1-6.1,1c-2.1,0-4.1-0.3-6-1
		s-3.5-1.7-4.9-3.1s-2.5-3-3.3-5.1c-0.8-2-1.2-4.4-1.2-7c0-2.7,0.4-5,1.3-7c0.8-2,2-3.7,3.4-5.1s3.1-2.4,4.9-3.1
		c1.9-0.7,3.8-1,5.9-1s4.1,0.3,6,1s3.5,1.7,4.9,3.1s2.5,3.1,3.3,5.1C503.1,11.4,503.5,13.7,503.5,16.4z M479.8,16.4
		c0,1.5,0.2,2.9,0.6,4.1s0.9,2.3,1.6,3.2c0.7,0.9,1.6,1.6,2.6,2c1,0.5,2.2,0.7,3.5,0.7s2.4-0.2,3.5-0.7c1-0.5,1.9-1.2,2.6-2
		c0.7-0.9,1.2-1.9,1.6-3.2c0.4-1.2,0.6-2.6,0.6-4.1s-0.2-2.9-0.6-4.1s-0.9-2.3-1.6-3.2c-0.7-0.9-1.6-1.6-2.6-2
		c-1-0.5-2.2-0.7-3.5-0.7s-2.5,0.2-3.5,0.7s-1.9,1.2-2.6,2.1s-1.2,1.9-1.6,3.2C480,13.5,479.8,14.9,479.8,16.4z"/>
	<path d="M516.3,31.9h-7v-31h21.2v5.9h-14.2V31.9z"/>
	<path d="M564.5,16.4c0,2.7-0.4,5-1.2,7s-1.9,3.7-3.2,5.1c-1.4,1.4-3,2.4-4.9,3.1s-3.9,1-6.1,1c-2.1,0-4.1-0.3-6-1s-3.5-1.7-4.9-3.1
		s-2.5-3-3.3-5.1c-0.8-2-1.2-4.4-1.2-7c0-2.7,0.4-5,1.3-7c0.8-2,2-3.7,3.4-5.1s3.1-2.4,4.9-3.1c1.9-0.7,3.8-1,5.9-1
		c2.1,0,4.1,0.3,6,1s3.5,1.7,4.9,3.1s2.5,3.1,3.3,5.1C564.1,11.4,564.5,13.7,564.5,16.4z M540.8,16.4c0,1.5,0.2,2.9,0.6,4.1
		s0.9,2.3,1.6,3.2c0.7,0.9,1.6,1.6,2.6,2c1,0.5,2.2,0.7,3.5,0.7s2.4-0.2,3.5-0.7c1-0.5,1.9-1.2,2.6-2c0.7-0.9,1.2-1.9,1.6-3.2
		c0.4-1.2,0.6-2.6,0.6-4.1s-0.2-2.9-0.6-4.1c-0.4-1.2-0.9-2.3-1.6-3.2c-0.7-0.9-1.6-1.6-2.6-2c-1-0.5-2.2-0.7-3.5-0.7
		s-2.5,0.2-3.5,0.7s-1.9,1.2-2.6,2.1c-0.7,0.9-1.2,1.9-1.6,3.2C541,13.5,540.8,14.9,540.8,16.4z"/>
	<path d="M581,31.9v-31h6.9v18.3c1.1-1.6,2.2-3.3,3.4-5s2.5-3.4,3.7-5.1c1.2-1.6,2.5-3.2,3.7-4.6s2.3-2.6,3.3-3.6h5.7v31h-6.9V11.6
		c-2.6,3.1-5.1,6.3-7.4,9.8c-2.3,3.5-4.5,7-6.5,10.5L581,31.9L581,31.9z"/>
	<path d="M653.3,0.1c2,0,4,0.4,5.8,1.1s3.4,1.7,4.8,3.1s2.4,3.1,3.2,5.1s1.2,4.4,1.2,7c0,2.7-0.4,5-1.2,7s-1.9,3.7-3.2,5.1
		s-3,2.4-4.8,3.1s-3.7,1-5.8,1c-1.9,0-3.7-0.3-5.4-0.9s-3.2-1.5-4.6-2.6s-2.4-2.6-3.3-4.3c-0.9-1.7-1.4-3.7-1.7-6h-5.7V32h-7V1h7
		v11.8h5.8c0.4-2.1,1-3.9,1.9-5.5s2-2.9,3.3-4s2.8-1.9,4.4-2.4C649.8,0.4,651.5,0.1,653.3,0.1z M653.3,26.4c2.5,0,4.4-0.9,5.8-2.7
		c1.4-1.8,2-4.3,2-7.4s-0.7-5.6-2-7.4c-1.4-1.8-3.3-2.7-5.8-2.7s-4.4,0.9-5.8,2.7c-1.4,1.8-2.1,4.3-2.1,7.4s0.7,5.6,2.1,7.4
		C648.8,25.5,650.8,26.4,653.3,26.4z"/>
	<path d="M692.8,0.9h7v31h-7V18.7h-11.7v13.2h-7v-31h7v11.9h11.7V0.9z"/>
	<path d="M736.5,16.4c0,2.7-0.4,5-1.2,7s-1.9,3.7-3.2,5.1s-3,2.4-4.9,3.1s-3.9,1-6.1,1c-2.1,0-4.1-0.3-6-1s-3.5-1.7-4.9-3.1
		s-2.5-3-3.3-5.1c-0.8-2-1.2-4.4-1.2-7c0-2.7,0.4-5,1.3-7c0.8-2,2-3.7,3.4-5.1s3.1-2.4,4.9-3.1c1.9-0.7,3.8-1,5.9-1
		c2.1,0,4.1,0.3,6,1s3.5,1.7,4.9,3.1s2.5,3.1,3.3,5.1C736.1,11.4,736.5,13.7,736.5,16.4z M712.8,16.4c0,1.5,0.2,2.9,0.6,4.1
		c0.4,1.2,0.9,2.3,1.6,3.2c0.7,0.9,1.6,1.6,2.6,2c1,0.5,2.2,0.7,3.5,0.7s2.4-0.2,3.5-0.7c1-0.5,1.9-1.2,2.6-2
		c0.7-0.9,1.2-1.9,1.6-3.2c0.4-1.2,0.6-2.6,0.6-4.1s-0.2-2.9-0.6-4.1c-0.4-1.2-0.9-2.3-1.6-3.2c-0.7-0.9-1.6-1.6-2.6-2
		c-1-0.5-2.2-0.7-3.5-0.7s-2.5,0.2-3.5,0.7s-1.9,1.2-2.6,2.1c-0.7,0.9-1.2,1.9-1.6,3.2C713,13.5,712.8,14.9,712.8,16.4z"/>
	<path d="M780.9,31.9h-38.5v-31h7V26h8.8V0.9h7V26h8.8V0.9h7L780.9,31.9L780.9,31.9z"/>
	<path d="M788.1,31.9v-31h21v5.9h-14v6.1h12.4v5.7h-12.4v7.5h15V32h-22V31.9z"/>
	<path d="M829.4,32.5c-5,0-8.9-1.4-11.5-4.2c-2.6-2.8-4-6.8-4-12c0-2.6,0.4-4.9,1.2-6.9s1.9-3.7,3.3-5.1c1.4-1.4,3.1-2.4,5-3.2
		s4-1.1,6.3-1.1c1.3,0,2.5,0.1,3.6,0.3c1.1,0.2,2,0.4,2.8,0.7c0.8,0.3,1.5,0.5,2,0.8s0.9,0.5,1.2,0.6l-2,5.6c-1-0.5-2.1-0.9-3.3-1.3
		s-2.7-0.5-4.3-0.5c-1.1,0-2.1,0.2-3.2,0.5s-1.9,0.9-2.7,1.7s-1.4,1.8-1.9,3.1c-0.5,1.3-0.7,2.8-0.7,4.6c0,1.4,0.2,2.8,0.5,4
		s0.8,2.3,1.5,3.2c0.7,0.9,1.6,1.6,2.8,2.1s2.5,0.8,4.1,0.8c1,0,1.9-0.1,2.7-0.2s1.5-0.3,2.2-0.4c0.6-0.2,1.2-0.4,1.7-0.6
		s0.9-0.4,1.3-0.6l1.9,5.6c-1,0.6-2.4,1.1-4.2,1.6C833.8,32.3,831.7,32.5,829.4,32.5z"/>
	<path d="M862.5,31.9c-0.6-1-1.4-2.1-2.2-3.3c-0.9-1.2-1.8-2.4-2.8-3.5s-2-2.3-3.1-3.4s-2.2-2.1-3.2-2.9v13.1h-7v-31h7v11.7
		c1.8-1.9,3.6-3.9,5.5-5.9c1.9-2.1,3.6-4,5.1-5.7h8.3c-2.1,2.5-4.2,4.9-6.4,7.3s-4.4,4.7-6.8,7c2.5,2.1,4.9,4.5,7.2,7.4
		c2.3,2.8,4.5,6,6.7,9.4h-8.3V31.9z"/>
	<path d="M902,16.4c0,2.7-0.4,5-1.2,7s-1.9,3.7-3.2,5.1s-3,2.4-4.9,3.1s-3.9,1-6.1,1c-2.1,0-4.1-0.3-6-1s-3.5-1.7-4.9-3.1
		s-2.5-3-3.3-5.1c-0.8-2-1.2-4.4-1.2-7c0-2.7,0.4-5,1.3-7c0.8-2,2-3.7,3.4-5.1s3.1-2.4,4.9-3.1c1.9-0.7,3.8-1,5.9-1
		c2.1,0,4.1,0.3,6,1s3.5,1.7,4.9,3.1s2.5,3.1,3.3,5.1C901.6,11.4,902,13.7,902,16.4z M878.3,16.4c0,1.5,0.2,2.9,0.6,4.1
		c0.4,1.2,0.9,2.3,1.6,3.2c0.7,0.9,1.6,1.6,2.6,2c1,0.5,2.2,0.7,3.5,0.7s2.4-0.2,3.5-0.7c1-0.5,1.9-1.2,2.6-2
		c0.7-0.9,1.2-1.9,1.6-3.2c0.4-1.2,0.6-2.6,0.6-4.1s-0.2-2.9-0.6-4.1c-0.4-1.2-0.9-2.3-1.6-3.2c-0.7-0.9-1.6-1.6-2.6-2
		c-1-0.5-2.2-0.7-3.5-0.7s-2.5,0.2-3.5,0.7s-1.9,1.2-2.6,2.1c-0.7,0.9-1.2,1.9-1.6,3.2C878.5,13.5,878.3,14.9,878.3,16.4z"/>
	<path d="M914.8,31.9h-7v-31H929v5.9h-14.2V31.9z"/>
	<path d="M962.9,16.4c0,2.7-0.4,5-1.2,7s-1.9,3.7-3.2,5.1s-3,2.4-4.9,3.1s-3.9,1-6.1,1c-2.1,0-4.1-0.3-6-1s-3.5-1.7-4.9-3.1
		s-2.5-3-3.3-5.1c-0.8-2-1.2-4.4-1.2-7c0-2.7,0.4-5,1.3-7c0.8-2,2-3.7,3.4-5.1s3.1-2.4,4.9-3.1c1.9-0.7,3.8-1,5.9-1
		c2.1,0,4.1,0.3,6,1s3.5,1.7,4.9,3.1s2.5,3.1,3.3,5.1C962.5,11.4,962.9,13.7,962.9,16.4z M939.2,16.4c0,1.5,0.2,2.9,0.6,4.1
		c0.4,1.2,0.9,2.3,1.6,3.2c0.7,0.9,1.6,1.6,2.6,2c1,0.5,2.2,0.7,3.5,0.7s2.4-0.2,3.5-0.7c1-0.5,1.9-1.2,2.6-2
		c0.7-0.9,1.2-1.9,1.6-3.2c0.4-1.2,0.6-2.6,0.6-4.1s-0.2-2.9-0.6-4.1c-0.4-1.2-0.9-2.3-1.6-3.2c-0.7-0.9-1.6-1.6-2.6-2
		c-1-0.5-2.2-0.7-3.5-0.7S945,6.6,944,7.1s-1.9,1.2-2.6,2.1c-0.7,0.9-1.2,1.9-1.6,3.2C939.4,13.5,939.2,14.9,939.2,16.4z"/>
	<path d="M988.8,0.5c4.6,0,8.2,0.8,10.7,2.4s3.7,4.3,3.7,8s-1.3,6.4-3.8,8.1s-6.1,2.5-10.8,2.5h-2.2v10.4h-7V1.3
		c1.5-0.3,3.1-0.5,4.8-0.6C986,0.6,987.5,0.5,988.8,0.5z M989.3,6.5c-0.5,0-1,0-1.5,0s-0.9,0.1-1.3,0.1v9h2.2c2.4,0,4.2-0.3,5.5-1
		c1.2-0.7,1.8-1.9,1.8-3.7c0-0.9-0.2-1.6-0.5-2.2s-0.8-1-1.3-1.4c-0.6-0.3-1.3-0.6-2.1-0.7S990.3,6.5,989.3,6.5z"/>
	<path d="M1008.3,31.9v-31h21v5.9h-14v6.1h12.4v5.7h-12.4v7.5h15V32h-22V31.9z"/>
	<path d="M1043.7,0.9c0.5,1,1.2,2.2,1.9,3.7c0.7,1.4,1.4,3,2.2,4.7s1.5,3.4,2.3,5.2c0.7,1.8,1.5,3.4,2.1,5c0.7-1.6,1.4-3.2,2.1-5
		s1.5-3.5,2.3-5.2s1.5-3.3,2.2-4.7c0.7-1.4,1.3-2.7,1.9-3.7h6.4c0.3,2.1,0.6,4.4,0.8,6.9s0.5,5.2,0.7,8s0.4,5.5,0.5,8.3
		c0.2,2.8,0.3,5.4,0.4,7.8h-6.8c-0.1-3-0.2-6.3-0.4-9.9c-0.2-3.6-0.4-7.1-0.7-10.8c-0.5,1.3-1.1,2.6-1.8,4.2c-0.7,1.5-1.3,3-2,4.6
		c-0.6,1.5-1.3,3-1.9,4.4s-1.1,2.6-1.5,3.6h-4.9c-0.4-1-0.9-2.2-1.5-3.6s-1.2-2.8-1.9-4.4c-0.6-1.5-1.3-3-2-4.6
		c-0.7-1.5-1.3-2.9-1.8-4.2c-0.3,3.6-0.5,7.2-0.7,10.8c-0.2,3.6-0.3,6.8-0.4,9.9h-6.8c0.1-2.4,0.3-5.1,0.4-7.8
		c0.2-2.8,0.3-5.5,0.5-8.3s0.4-5.4,0.7-8c0.3-2.6,0.5-4.9,0.8-6.9H1043.7z"/>
	<path d="M1075.7,31.9v-31h21v5.9h-14v6.1h12.4v5.7h-12.4v7.5h15V32h-22V31.9z"/>
	<path d="M1117,32.5c-5,0-8.9-1.4-11.5-4.2c-2.6-2.8-4-6.8-4-12c0-2.6,0.4-4.9,1.2-6.9c0.8-2,1.9-3.7,3.3-5.1s3.1-2.4,5-3.2
		s4-1.1,6.3-1.1c1.3,0,2.5,0.1,3.6,0.3c1.1,0.2,2,0.4,2.8,0.7c0.8,0.3,1.5,0.5,2,0.8s0.9,0.5,1.2,0.6l-2,5.6c-1-0.5-2.1-0.9-3.3-1.3
		s-2.7-0.5-4.3-0.5c-1.1,0-2.1,0.2-3.2,0.5s-1.9,0.9-2.7,1.7s-1.4,1.8-1.9,3.1c-0.5,1.3-0.7,2.8-0.7,4.6c0,1.4,0.2,2.8,0.5,4
		s0.8,2.3,1.5,3.2c0.7,0.9,1.6,1.6,2.8,2.1s2.5,0.8,4.1,0.8c1,0,1.9-0.1,2.7-0.2c0.8-0.1,1.5-0.3,2.2-0.4c0.6-0.2,1.2-0.4,1.7-0.6
		s0.9-0.4,1.3-0.6l1.9,5.6c-1,0.6-2.4,1.1-4.2,1.6C1121.4,32.3,1119.3,32.5,1117,32.5z"/>
	<path d="M1145.9,6.8c-0.1,2-0.2,4-0.3,6c-0.1,2-0.4,4-0.7,5.8s-0.8,3.6-1.5,5.3s-1.5,3.1-2.6,4.3c-1.1,1.3-2.5,2.3-4.2,3
		s-3.7,1.2-6.1,1.3l-0.8-6.1c2.2-0.2,3.8-0.8,5-1.6c1.2-0.9,2-2.2,2.6-3.9c0.7-2.2,1.3-5,1.6-8.4s0.5-7.3,0.5-11.6h21.2v31h-7V6.8
		H1145.9z"/>
	<path d="M1188.5,31.9c-0.3-1.1-0.7-2.2-1.1-3.3c-0.4-1.1-0.8-2.3-1.2-3.4h-12.1c-0.4,1.1-0.8,2.3-1.2,3.4c-0.4,1.1-0.8,2.2-1.1,3.3
		h-7.3c1.2-3.3,2.3-6.4,3.3-9.3c1-2.8,2.1-5.5,3.1-8s2-4.9,3-7.1c1-2.3,2-4.5,3-6.6h6.6c1,2.2,2,4.4,3,6.6s2,4.6,3,7.1s2,5.2,3.1,8
		c1,2.8,2.2,5.9,3.3,9.3H1188.5z M1180.1,7.9c-0.2,0.5-0.4,1.1-0.7,1.8c-0.3,0.8-0.6,1.7-1,2.7s-0.8,2.1-1.3,3.4
		c-0.5,1.2-1,2.5-1.4,3.8h8.9c-0.5-1.3-0.9-2.6-1.4-3.9s-0.9-2.3-1.3-3.4c-0.4-1-0.8-1.9-1.1-2.7C1180.6,8.9,1180.3,8.3,1180.1,7.9z
		"/>
</g>
</svg>
