<?xml version="1.0" encoding="utf-8"?>
<!-- Generator: Adobe Illustrator 21.1.0, SVG Export Plug-In . SVG Version: 6.00 Build 0)  -->
<svg version="1.0" id="Layer_1" xmlns="http://www.w3.org/2000/svg" xmlns:xlink="http://www.w3.org/1999/xlink" x="0px" y="0px"
	 viewBox="0 0 2054.8 268.9" style="enable-background:new 0 0 2054.8 268.9;" xml:space="preserve">
<style type="text/css">
	.st0{fill:#000000;}
</style>
<g>
	<path class="st0" d="M128.7,268.9c-41.9,0-73.8-11.7-95.8-35C11,210.7,0,177.6,0,134.7c0-21.3,3.3-40.4,10-57.1
		s15.9-30.9,27.5-42.4C49.2,23.6,63.1,14.9,79.2,8.9C95.3,3,112.8,0,131.7,0c10.9,0,20.8,0.8,29.8,2.4c8.9,1.6,16.7,3.5,23.4,5.6
		c6.7,2.1,12.3,4.3,16.7,6.5s7.7,4,9.7,5.2l-16.7,46.9c-7.9-4.2-17.2-7.8-27.7-10.8c-10.5-3-22.5-4.5-35.9-4.5
		c-8.9,0-17.7,1.5-26.2,4.5c-8.6,3-16.1,7.8-22.7,14.3c-6.6,6.6-11.8,15.1-15.8,25.5c-4,10.4-6,23.1-6,37.9c0,11.9,1.3,23,3.9,33.3
		c2.6,10.3,6.8,19.2,12.6,26.6c5.8,7.4,13.4,13.3,22.9,17.7c9.4,4.3,20.8,6.5,34.2,6.5c8.4,0,16-0.5,22.7-1.5
		c6.7-1,12.6-2.2,17.9-3.5c5.2-1.4,9.8-2.9,13.8-4.6c4-1.7,7.6-3.3,10.8-4.8l16,46.5c-8.2,5-19.7,9.4-34.6,13.4
		C165.5,267,148.3,268.9,128.7,268.9z"/>
	<path class="st0" d="M451.2,6v49.5h-77.7v208.3h-58V55.4h-77.7V6H451.2z"/>
	<path class="st0" d="M565.8,3c38.4,0,67.9,6.8,88.5,20.3c20.6,13.5,30.9,35.7,30.9,66.4c0,31-10.4,53.4-31.2,67.1
		c-20.8,13.8-50.6,20.6-89.3,20.6h-18.2v86.3h-58V9.7c12.6-2.5,26-4.2,40.2-5.2C542.7,3.5,555.1,3,565.8,3z M569.5,52.4
		c-4.2,0-8.4,0.1-12.5,0.4c-4.1,0.2-7.6,0.5-10.6,0.7V128h18.2c20.1,0,35.2-2.7,45.4-8.2c10.2-5.5,15.3-15.6,15.3-30.5
		c0-7.2-1.3-13.1-3.9-17.9c-2.6-4.7-6.3-8.5-11.2-11.3c-4.8-2.8-10.7-4.8-17.7-6C585.6,53,577.9,52.4,569.5,52.4z"/>
	<path class="st0" d="M728,263.7V6h57.7v152.1c8.9-13.4,18.5-27.3,28.6-41.8c10.2-14.5,20.4-28.5,30.7-42
		c10.3-13.5,20.4-26.2,30.3-38.1c9.9-11.9,19-21.9,27.2-30.1h47.2v257.8h-57.3V94.9c-21.8,25.5-42.4,52.7-61.7,81.5
		c-19.3,28.8-37.3,57.9-53.9,87.4H728z"/>
	<path class="st0" d="M983.1,263.7c7.2-12.7,14.9-25.3,23.1-38c8.2-12.7,16.6-24.9,25.2-36.7c8.6-11.8,17.4-22.8,26.5-33.2
		c9.1-10.3,18.2-19.6,27.4-27.8c-10.4-10.6-20.1-21-29.1-31.2c-8.9-10.1-17.5-20.2-25.5-30.1c-8.1-9.9-16-19.9-23.7-29.9
		c-7.7-10-15.5-20.4-23.5-31h70c7.4,10.4,14.4,20,21,28.6c6.6,8.7,13,17.1,19.3,25.3c6.3,8.2,12.7,16.2,19.1,24.2
		c6.4,7.9,13.4,16.4,20.8,25.3V6h56.5v103.5c7.4-9.2,14.6-17.9,21.4-26.2c6.8-8.3,13.4-16.6,19.9-24.8c6.5-8.2,12.9-16.6,19.3-25.1
		c6.4-8.6,13-17.7,19.7-27.4h69.6c-8.9,11.6-17.3,22.5-25.1,32.7c-7.8,10.2-15.7,20.1-23.6,29.7c-7.9,9.7-16,19.3-24.3,29
		c-8.3,9.7-17.4,19.8-27.3,30.5c20.1,18.6,38.4,39.6,55,62.8c16.6,23.2,32.1,47.6,46.4,73.2h-64.6c-7.7-11.7-14.9-22.5-21.6-32.5
		c-6.7-10-13.4-19.6-20.1-28.8s-13.7-18.2-20.8-27.1c-7.2-8.8-15.1-18-23.8-27.5v115.9h-56.5V148.5c-8.9,10.4-17,20.1-24.2,29
		c-7.2,8.9-14.1,17.8-20.6,26.8c-6.6,8.9-13.2,18.2-19.9,27.7c-6.7,9.5-13.9,20.1-21.6,31.8H983.1z"/>
	<path class="st0" d="M1557.1,263.7c-2.9-9-6-18.2-9.3-27.6c-3.3-9.4-6.6-18.8-9.9-28.2h-100.7c-3.3,9.4-6.5,18.8-9.8,28.3
		c-3.3,9.5-6.3,18.6-9.1,27.5h-60.3c9.7-27.8,18.9-53.4,27.6-77c8.7-23.6,17.2-45.8,25.6-66.6c8.3-20.8,16.5-40.6,24.6-59.3
		c8.1-18.7,16.5-37,25.2-54.9h55c8.5,17.9,16.8,36.1,25,54.9c8.2,18.7,16.5,38.5,24.9,59.3c8.3,20.8,16.9,43,25.6,66.6
		c8.7,23.6,17.9,49.2,27.7,77H1557.1z M1487.4,64.4c-1.3,3.7-3.2,8.8-5.7,15.3c-2.5,6.4-5.3,13.9-8.5,22.3
		c-3.2,8.4-6.7,17.7-10.7,27.9c-3.9,10.2-7.9,20.8-12,31.9h73.7c-3.9-11.2-7.8-21.9-11.5-32c-3.7-10.2-7.2-19.5-10.5-28
		c-3.3-8.4-6.2-15.9-8.8-22.3C1490.9,73.1,1488.9,68,1487.4,64.4z"/>
	<path class="st0" d="M1813,6v49.5h-77.7v208.3h-58V55.4h-77.7V6H1813z"/>
	<path class="st0" d="M1992.7,263.7c-2.9-9-6-18.2-9.3-27.6c-3.3-9.4-6.6-18.8-9.9-28.2h-100.7c-3.3,9.4-6.5,18.8-9.8,28.3
		c-3.3,9.5-6.3,18.6-9.1,27.5h-60.3c9.7-27.8,18.9-53.4,27.6-77c8.7-23.6,17.2-45.8,25.6-66.6c8.3-20.8,16.5-40.6,24.6-59.3
		c8.1-18.7,16.5-37,25.2-54.9h55c8.5,17.9,16.8,36.1,25,54.9c8.2,18.7,16.5,38.5,24.9,59.3c8.3,20.8,16.9,43,25.6,66.6
		c8.7,23.6,17.9,49.2,27.7,77H1992.7z M1923,64.4c-1.3,3.7-3.2,8.8-5.7,15.3c-2.5,6.4-5.3,13.9-8.5,22.3
		c-3.2,8.4-6.7,17.7-10.7,27.9c-3.9,10.2-7.9,20.8-12,31.9h73.7c-3.9-11.2-7.8-21.9-11.5-32c-3.7-10.2-7.2-19.5-10.5-28
		c-3.3-8.4-6.2-15.9-8.8-22.3C1926.5,73.1,1924.5,68,1923,64.4z"/>
</g>
</svg>
