<?xml version="1.0" encoding="utf-8"?>
<!-- Generator: Adobe Illustrator 21.1.0, SVG Export Plug-In . SVG Version: 6.00 Build 0)  -->
<svg version="1.0" id="Layer_1" xmlns="http://www.w3.org/2000/svg" xmlns:xlink="http://www.w3.org/1999/xlink" x="0px" y="0px"
	 viewBox="0 0 496.4 493" style="enable-background:new 0 0 496.4 493;" xml:space="preserve">
<style type="text/css">
	.st0{fill:#FFFFFF;}
	.st1{fill:#F2120A;}
	.st2{fill:#63104F;}
</style>
<g>
	<polygon class="st0" points="7.1,434.2 305.5,142.6 252.6,88.5 336,7.1 388.8,61.2 399.6,50.7 450.1,102.4 439.4,112.9 
		489.4,164.1 406.1,245.5 356,194.3 57.6,485.9 	"/>
	<path class="st0" d="M335.9,14.1l52.9,54.1l10.7-10.5l43.5,44.6l-10.7,10.5l50,51.2l-76.2,74.4l-50-51.2L57.7,478.9l-43.5-44.6
		l298.4-291.6l-52.9-54.1L335.9,14.1 M336,0l-7.2,7l-76.2,74.4l-7.2,7l7,7.2l45.9,46.9L7.2,427.1l-7.2,7l7,7.2l43.5,44.6l7,7.2
		l7.2-7L356,201.4l43,44l7,7.2l7.2-7l76.2-74.4l7.2-7l-7-7.2l-43-44l3.6-3.5l7.2-7l-7-7.2l-43.5-44.6l-7-7.2l-7.2,7l-3.6,3.5
		L343,7.2L336,0L336,0z"/>
</g>
<g>
	
		<rect x="-40.8" y="237.1" transform="matrix(0.7152 -0.6989 0.6989 0.7152 -122.4153 236.1694)" class="st1" width="538.8" height="62.3"/>
	
		<rect x="317.8" y="21.5" transform="matrix(0.7152 -0.6989 0.6989 0.7152 17.4047 295.2628)" class="st2" width="106.5" height="209.5"/>
</g>
</svg>
