<?xml version="1.0" encoding="utf-8"?>
<!-- Generator: Adobe Illustrator 21.1.0, SVG Export Plug-In . SVG Version: 6.00 Build 0)  -->
<svg version="1.0" id="Layer_1" xmlns="http://www.w3.org/2000/svg" xmlns:xlink="http://www.w3.org/1999/xlink" x="0px" y="0px"
	 viewBox="0 0 220.1 245.7" style="enable-background:new 0 0 220.1 245.7;" xml:space="preserve">
<style type="text/css">
	.st0{fill:#FF0000;stroke:#FFFFFF;stroke-width:10;stroke-miterlimit:10;}
	.st1{fill:#FFFFFF;}
</style>
<g id="XMLID_184_">
	<path id="XMLID_182_" class="st0" d="M177.8,75.6c-2.8-7.4-9.4-12.7-17.2-13.9c-14-2.2-68.8,3.8-68.8,3.8s-54.7,5.9-68,11.1
		c-7.3,2.8-12.6,9.5-13.8,17.3c-2.2,14.1,1,42.8,1,42.8s3.1,28.7,8.3,42c2.8,7.4,9.4,12.7,17.2,13.9c14,2.2,68.8-3.8,68.8-3.8
		s54.7-5.9,68-11.1c7.3-2.8,12.6-9.5,13.8-17.3c2.2-14.1-1-42.8-1-42.8S182.9,88.9,177.8,75.6z"/>
	<polygon id="XMLID_1355_" class="st1" points="83.5,155.1 126.4,124.1 77.8,103 	"/>
</g>
<g>
	<g>
		<g>
			<path d="M6.2,18.1l4.8-1.4c4.5-1.3,6.9-1.9,11.4-3.1l4.8-1.3l4.4,17c3.1-0.8,5.7-1.4,8.8-2.1L36.8,10l4.9-1c4.6-1,7-1.4,11.6-2.3
				l4.9-0.9l10.1,55.1l-4.9,0.9c-4.1,0.7-6,1.1-10.1,2l-4.9,1l-4-19.1c-2.8,0.6-5.2,1.2-8,1.9l4.9,18.9l-4.8,1.3c-4,1-6,1.6-9.9,2.7
				l-4.8,1.4L6.2,18.1z"/>
			<path class="st1" d="M54.2,11.6c2.8,15.1,5.5,30.2,8.3,45.2c-4.1,0.8-6.1,1.2-10.2,2c-1.6-7.6-2.4-11.5-4-19.1
				C41,41.3,37.4,42.2,30.3,44c2,7.6,2.9,11.3,4.9,18.9c-4,1-6.1,1.6-10.1,2.8C20.9,51,16.6,36.2,12.4,21.5
				c4.5-1.3,6.8-1.9,11.3-3.1c1.8,6.8,2.7,10.2,4.4,17c7.3-1.9,11-2.8,18.3-4.3c-1.5-6.9-2.2-10.3-3.6-17.2
				C47.3,12.9,49.6,12.5,54.2,11.6 M62.2,0l-9.8,1.8c-4.7,0.9-7.1,1.3-11.7,2.3l-9.8,2.1l0.3,1.5l-0.4-1.5l-9.7,2.5
				c-4.6,1.2-7,1.8-11.5,3.2L0,14.7l2.8,9.6l12.8,44.2l2.8,9.6l9.6-2.8c3.9-1.1,5.9-1.7,9.8-2.7l8.3-2.1l8.4-1.8c4-0.8,6-1.2,10-2
				l9.8-1.8l-1.8-9.8C69.6,40,66.8,24.9,64,9.8L62.2,0L62.2,0z"/>
		</g>
		<g>
			<path d="M80.8,59.4c-0.8,0-1.6,0-2.3-0.1c-2.5-0.2-4.8-0.8-6.8-1.7c-2.2-1.1-4.1-2.6-5.5-4.7c-1.4-2-2.3-4.4-2.8-7.2
				c-0.5-2.9-0.2-5.6,0.7-8c0.7-1.6,1.6-3.1,2.7-4.3l-1-2.9c-1-3.1-1.5-4.6-2.5-7.6l-1.4-4.3l4.1-1.9c0.7-0.3,1.6-0.7,2.6-1
				c1-0.4,2.2-0.7,3.4-1.1c1.2-0.3,2.4-0.7,3.7-0.9c1.4-0.3,2.8-0.6,4.2-0.7c1.7-0.2,3.3-0.3,4.7-0.3c1.8,0,3.4,0.2,4.9,0.5
				c3,0.6,5.5,1.7,7.5,3.3c2.1,1.7,3.6,3.8,4.6,6.3c0.8,2.2,1.4,4.6,1.6,7.2l2.1,24.5l-3.9,1.2c-1.6,0.5-3.8,1.1-6,1.7
				c-2.7,0.7-5.8,1.3-9.8,1.8C84,59.3,82.4,59.4,80.8,59.4z"/>
			<path class="st1" d="M84.6,17.6c1.5,0,2.8,0.1,4,0.4c2.2,0.4,4,1.2,5.4,2.3c1.4,1.1,2.4,2.5,3.1,4.3c0.7,1.7,1.1,3.7,1.3,5.8
				c0.7,8.2,1,12.3,1.7,20.5c-1.4,0.4-3.3,1-5.8,1.6c-2.5,0.7-5.5,1.2-9.1,1.6c-1.5,0.2-2.9,0.3-4.3,0.3c-0.7,0-1.3,0-1.9-0.1
				c-1.9-0.1-3.6-0.6-5-1.2c-1.5-0.7-2.7-1.7-3.6-3c-0.9-1.3-1.6-3-1.9-5.1c-0.3-2-0.2-3.8,0.4-5.3c0.6-1.5,1.6-2.8,2.9-3.9
				c1.3-1,2.9-1.9,4.7-2.5c1.8-0.6,3.7-1.1,5.7-1.3c1.4-0.2,2.6-0.3,3.6-0.3c0.1,0,0.2,0,0.3,0c0.9,0,1.7,0,2.3,0.1
				c0-0.4-0.1-0.6-0.1-0.9c-0.2-1.7-0.9-3-2.1-3.8c-0.9-0.6-2.1-1-3.8-1c-0.6,0-1.3,0-2,0.1c-1.8,0.2-3.6,0.6-5.3,1.1
				c-1.7,0.5-3.2,1-4.4,1.7c-1-3.1-1.5-4.6-2.6-7.7c0.6-0.3,1.3-0.6,2.3-0.9c0.9-0.3,1.9-0.7,3-1c1.1-0.3,2.2-0.6,3.4-0.9
				c1.2-0.3,2.4-0.5,3.7-0.6C82,17.7,83.3,17.6,84.6,17.6 M83.1,46.6c0.5,0,1.1,0,1.7-0.1c1-0.1,1.9-0.3,2.8-0.4
				c0.9-0.1,1.6-0.3,2.1-0.4c-0.3-3-0.5-4.5-0.8-7.5c-0.4,0-0.9-0.1-1.6-0.1c-0.1,0-0.2,0-0.3,0c-0.8,0-1.6,0.1-2.3,0.1
				c-1,0.1-1.9,0.3-2.7,0.5c-0.8,0.2-1.6,0.5-2.2,0.9c-0.6,0.4-1,0.9-1.3,1.5c-0.3,0.6-0.4,1.3-0.3,2c0.2,1.5,0.9,2.5,2,3
				C81.1,46.5,82,46.6,83.1,46.6 M84.6,7.6c-1.7,0-3.5,0.1-5.4,0.3c-1.6,0.2-3.1,0.5-4.7,0.8c-1.4,0.3-2.7,0.7-4,1
				c-1.3,0.4-2.6,0.8-3.7,1.2c-1.1,0.4-2.1,0.8-2.9,1.2l-8.2,3.7l2.9,8.6c1,3,1.5,4.6,2.5,7.6l0.1,0.4c-0.7,1.1-1.3,2.2-1.8,3.4
				c-1.3,3.2-1.7,6.8-1,10.7c0.6,3.6,1.8,6.7,3.7,9.3c1.9,2.7,4.4,4.8,7.5,6.3c2.6,1.2,5.5,2,8.6,2.2c0.9,0.1,1.8,0.1,2.7,0.1
				c1.7,0,3.6-0.1,5.5-0.4c4.2-0.5,7.6-1.1,10.5-1.9c2.2-0.6,4.5-1.2,6.2-1.7l7.7-2.4l-0.7-8l-1.7-20.5c-0.3-3.1-0.9-6-1.9-8.6
				c-1.3-3.4-3.4-6.2-6.1-8.4c-2.7-2.1-5.9-3.6-9.7-4.4C88.7,7.8,86.7,7.6,84.6,7.6L84.6,7.6z"/>
		</g>
		<g>
			<path d="M156.8,56.3c-7.7-0.5-15.7-0.8-23.8-0.8c-7.6,0-15.6,0.2-23.7,0.7l-5,0.3l-2.7-44.8l5-0.3c4.4-0.3,6.6-0.4,11-0.5l5-0.2
				l0.1,4.3l0-4.3l5-0.1c1.9,0,3.4,0,4.9,0c1.9,0,3.7,0,6.1,0.1l5,0.1l0,1.7l0.1-1.7l5,0.2c4.4,0.2,6.6,0.3,11,0.6l5,0.3l-2.9,44.8
				L156.8,56.3z"/>
			<path class="st1" d="M132.6,15.6c1.8,0,3.6,0,6.1,0.1c-0.2,10.7-0.2,16.1-0.4,26.8c3.7,0.1,5.6,0.1,9.3,0.2
				c0.4-10.7,0.6-16.1,1-26.8c4.3,0.2,6.5,0.3,10.9,0.6c-0.7,11.6-1.5,23.2-2.3,34.8c-8-0.6-16.1-0.8-24.2-0.8c-8,0-16,0.2-24,0.7
				c-0.7-11.6-1.4-23.2-2.1-34.9c4.3-0.3,6.5-0.4,10.8-0.5c0.4,10.7,0.6,16.1,0.9,26.8c3.7-0.1,5.6-0.2,9.3-0.2
				c-0.1-10.7-0.2-16.1-0.3-26.8C129.7,15.6,131.2,15.6,132.6,15.6 M127.5,5.5l-4.9,0.2l-4.9,0.1l0,0.1l-0.2,0
				c-4.4,0.2-6.7,0.3-11.1,0.5L96.4,7L97,17l0.2,3.7l1.9,31.2l0.6,9.9l9.9-0.6c8-0.5,15.9-0.7,23.4-0.7c8,0,15.9,0.3,23.5,0.8
				l10,0.7l0.6-10l2.3-34.8l0.6-10l-10-0.6c-4.4-0.3-6.7-0.4-11.1-0.6l-0.2,0l0-0.1l-4.9-0.1L139,5.6l0,0.1l-0.2,0
				c-2.7,0-4.4-0.1-6.2-0.1c-1.5,0-3,0-4.9,0l-0.2,0L127.5,5.5L127.5,5.5z"/>
		</g>
	</g>
</g>
<g>
	<g>
		<g>
			<path d="M48.2,240.1c-4.8-0.1-7.4-0.1-12.3-0.3l-2.6-0.1l-1.4-2.1c-0.7-1.1-1.6-2.3-2.6-3.6c-0.5-0.7-1-1.3-1.5-2l-0.4,7.4
				l-5-0.3c-4.3-0.3-6.5-0.4-10.8-0.8l-5-0.4l3.6-44.8l5,0.4c4,0.3,5.9,0.5,9.9,0.7l5,0.3l-0.3,4.9c0.2-0.2,0.4-0.4,0.5-0.5
				c1-1,1.9-1.9,2.7-2.7l1.5-1.5l2.1,0.1c4.8,0.2,7.2,0.2,12,0.3l11.6,0.1l-8,8.3c-0.9,0.9-2.1,2.1-3.4,3.5
				c-1.4,1.4-2.9,2.8-4.4,4.3c-1.6,1.5-3.2,2.9-4.8,4.4c-0.1,0.1-0.1,0.1-0.2,0.2c0.1,0.1,0.2,0.2,0.3,0.3c1.6,1.7,3.2,3.4,4.7,5.3
				c1.5,1.8,3,3.7,4.4,5.5c1.5,1.9,2.7,3.7,3.8,5.4l4.9,7.8L48.2,240.1z"/>
			<path class="st1" d="M14.7,198.6c4,0.3,6,0.5,10,0.7c-0.3,4.9-0.4,7.3-0.7,12.2c1-0.9,2.1-1.8,3.3-2.9c1.2-1,2.3-2.1,3.4-3.1
				c1.1-1,2.1-2,3.1-3c1-1,1.8-1.9,2.6-2.6c4.8,0.2,7.3,0.2,12.1,0.3c-0.9,0.9-2,2.1-3.4,3.4c-1.4,1.3-2.8,2.7-4.3,4.2
				c-1.5,1.4-3.1,2.9-4.7,4.3c-1.6,1.4-3.1,2.6-4.5,3.7c1.3,1.1,2.8,2.4,4.3,4c1.5,1.6,3,3.2,4.5,5c1.5,1.8,2.9,3.5,4.3,5.3
				c1.4,1.8,2.5,3.5,3.5,5c-4.9-0.1-7.3-0.1-12.2-0.3c-0.8-1.2-1.8-2.5-2.8-3.9c-1-1.4-2.1-2.7-3.2-4c-1.1-1.3-2.2-2.6-3.4-3.8
				c-1.1-1.2-2.2-2.2-3.2-3.1c-0.3,5.6-0.5,8.4-0.8,14.1c-4.3-0.3-6.4-0.4-10.7-0.7C12.9,221.9,13.8,210.3,14.7,198.6 M5.6,187.9
				l-0.8,10L2,232.7l-0.8,10l10,0.8c4.3,0.3,6.5,0.5,10.9,0.8l10,0.6l0-0.1l3.7,0.1c4.9,0.2,7.5,0.2,12.4,0.3l18.3,0.2l-9.8-15.5
				c-1.1-1.8-2.4-3.7-4-5.8c-1.4-1.9-3-3.8-4.6-5.7c-0.6-0.7-1.1-1.3-1.7-2c0.4-0.4,0.9-0.8,1.3-1.2c1.6-1.5,3.1-3,4.5-4.4
				c1.3-1.3,2.5-2.5,3.5-3.6l16-16.7l-23.1-0.3c-4.8-0.1-7.1-0.1-11.9-0.3l-4.3-0.2l0,0l-7.2-0.4c-3.9-0.2-5.8-0.4-9.8-0.7
				L5.6,187.9L5.6,187.9z"/>
		</g>
		<g>
			<path d="M73.4,240.3c-1.9,0.2-4.1,0.3-6.3,0.4c-2.8,0.1-5.4-0.1-7.7-0.6c-2.6-0.5-4.9-1.4-6.9-2.6c-2.2-1.4-3.9-3.2-5-5.5
				c-1.1-2.2-1.7-4.8-1.7-7.7c0-2.9,0.7-5.5,2.1-7.7c0.9-1.4,2-2.7,3.3-3.8l-0.5-3.1c-0.5-3.2-0.8-4.8-1.3-8l-0.7-4.3l4.2-1.3
				c0.7-0.2,1.5-0.4,2.5-0.7c1-0.2,2-0.4,3.2-0.6c1.1-0.2,2.3-0.3,3.5-0.5l0.3,0c1.2-0.1,2.4-0.2,3.6-0.2c3.5-0.1,6.4,0.2,8.9,1
				c2.7,0.8,5.1,2.1,6.9,3.8c1.8,1.7,3.2,3.9,4.1,6.4c0.7,2.2,1.2,4.6,1.3,7.2l1.4,24.6l-4,1c-1.7,0.5-3.9,0.9-6.6,1.5
				C76.4,239.9,75,240.1,73.4,240.3z"/>
			<path class="st1" d="M62.7,199.4c1.1-0.1,2.1-0.2,3.2-0.2c2.9-0.1,5.4,0.2,7.4,0.8c2,0.6,3.6,1.5,4.8,2.6
				c1.2,1.2,2.2,2.6,2.8,4.4c0.6,1.7,1,3.7,1.1,5.9c0.5,8.2,0.7,12.3,1.1,20.5c-1.5,0.4-3.6,0.9-6.3,1.4c-1.2,0.2-2.5,0.4-3.9,0.6
				c-1.8,0.2-3.8,0.3-5.9,0.4c-2.4,0.1-4.7-0.1-6.6-0.5c-2-0.4-3.7-1-5.1-1.9c-1.4-0.9-2.5-2.1-3.3-3.6c-0.8-1.5-1.1-3.3-1.1-5.4
				c0-2,0.5-3.8,1.3-5.2c0.9-1.4,2-2.5,3.4-3.4c1.4-0.8,3-1.5,4.9-1.9c1-0.2,2-0.4,3.1-0.5c0.9-0.1,1.7-0.2,2.6-0.2
				c1.3,0,2.5,0,3.5,0.1c1,0.1,1.9,0.2,2.5,0.3c0-0.4,0-0.6,0-0.9c-0.1-1.7-0.6-3-1.7-4c-1.1-1-2.9-1.4-5.5-1.4
				c-1.1,0-2.2,0.1-3.3,0.2c-0.6,0.1-1.2,0.1-1.8,0.2c-1.7,0.3-3.1,0.6-4.3,1.1c-0.5-3.2-0.8-4.8-1.3-8c0.6-0.2,1.3-0.4,2.2-0.6
				c0.9-0.2,1.8-0.4,2.8-0.6c1-0.2,2.1-0.3,3.2-0.4C62.6,199.4,62.6,199.4,62.7,199.4 M71.4,227.8c0.5-0.1,0.9-0.1,1.3-0.2
				c-0.1-3-0.2-4.5-0.3-7.5c-0.4-0.1-1.1-0.1-1.9-0.2c-0.8-0.1-1.6-0.1-2.3-0.1c-0.7,0-1.3,0.1-1.9,0.1c-0.3,0-0.6,0.1-0.8,0.1
				c-0.9,0.1-1.6,0.4-2.3,0.7c-0.6,0.3-1.1,0.8-1.5,1.3c-0.4,0.5-0.5,1.2-0.5,2c0,1.5,0.6,2.6,1.7,3.2c1.1,0.6,2.6,0.8,4.6,0.8
				c1,0,2-0.1,3-0.2C70.8,227.9,71.1,227.9,71.4,227.8 M61.6,189.4l-0.3,0c-1.3,0.1-2.5,0.3-3.7,0.5c-1.3,0.2-2.4,0.4-3.5,0.7
				c-1.1,0.3-2,0.5-2.8,0.7l-8.3,2.5l1.4,8.6c0.5,3.2,0.8,4.8,1.3,8l0.1,0.5c-0.8,0.9-1.5,1.9-2.2,2.9c-1.8,3-2.8,6.5-2.8,10.3
				c0,3.7,0.7,7.1,2.2,10c1.6,3.1,3.9,5.6,6.8,7.4c2.5,1.6,5.4,2.7,8.6,3.3c2.7,0.5,5.6,0.7,8.7,0.6c2.4-0.1,4.7-0.2,6.8-0.4
				c1.7-0.2,3.3-0.4,4.8-0.7c2.8-0.5,5.1-1.1,6.9-1.5l7.9-2.1l-0.5-8.2L92,212.6l0-0.3c-0.2-3-0.7-5.9-1.6-8.5
				c-1.1-3.3-2.9-6.1-5.4-8.4c-2.4-2.3-5.4-3.9-8.9-5c-3-0.9-6.4-1.3-10.4-1.2C64.3,189.2,63,189.3,61.6,189.4L61.6,189.4z"/>
		</g>
		<g>
			<path d="M166.6,224.5c-1.3-3.1-1.9-4.6-3.2-7.7l-1.9-4.6l4.5-1.9c2.1-0.9,3.1-1.7,3.4-2c0.3-0.3,0.7-0.8,0.8-1.3
				c0.1-0.5,0.2-1.3,0.2-2.8c0-1.3-0.2-2.6-0.4-4c-0.2-1.5-0.5-3-0.9-4.5c-0.4-1.6-0.7-3.2-1.1-4.6l-2.2-8.7l4.9-1.2
				c10.2-2.5,15.2-3.9,25.3-7l4.8-1.5l13.1,43L209,217c-4.1,1.3-6.2,1.9-10.4,3.1l-4.8,1.4c0,0-3-10.6-3.7-13.1c0,0,0,0,0,0.1
				c-0.2,1.9-0.7,3.8-1.4,5.6c-0.7,1.9-1.8,3.7-3.3,5.4c-1.4,1.7-3.2,3.2-5.4,4.6c-2.1,1.3-4.6,2.4-7.4,3.3l-4.4,1.4L166.6,224.5z"
				/>
			<path class="st1" d="M197.4,178.8c3.4,11.1,6.8,22.3,10.2,33.4c-4.1,1.3-6.2,1.9-10.3,3c-2.9-10.3-4.4-15.5-7.3-25.8
				c-2.7,0.8-4,1.1-6.7,1.9c0.3,1.3,0.6,2.6,0.9,4c0.3,1.4,0.6,2.8,0.7,4.3c0.2,1.4,0.3,2.9,0.4,4.3c0.1,1.4,0,2.7-0.1,4
				c-0.2,1.5-0.5,3-1.1,4.4c-0.5,1.4-1.3,2.7-2.4,4c-1.1,1.3-2.5,2.5-4.2,3.5c-1.7,1.1-3.8,2-6.3,2.8c-1.3-3.1-1.9-4.6-3.2-7.7
				c2.2-1,3.9-2,5-3.1c1.1-1.1,1.8-2.4,2.1-3.8c0.3-1.2,0.3-2.5,0.3-4c-0.1-1.5-0.2-3-0.5-4.6c-0.3-1.6-0.6-3.2-1-4.9
				c-0.4-1.6-0.8-3.2-1.1-4.7c-0.4-1.5-0.6-2.3-1-3.9C182.1,183.3,187.2,181.9,197.4,178.8 M204,166.3l-9.6,2.9
				c-10,3-14.9,4.4-25,6.9l-9.7,2.4l2.4,9.7l0.5,1.9l0.5,1.9c0.4,1.5,0.7,3,1.1,4.6c0.3,1.4,0.6,2.8,0.8,4.1
				c0.2,1.2,0.3,2.4,0.4,3.5c0,0.3,0,0.5,0,0.7c-0.3,0.2-0.7,0.4-1.3,0.7l-9.1,3.9l3.8,9.1c1.3,3.1,1.9,4.7,3.2,7.8l3.5,8.5l8.7-2.8
				c3.2-1,6.1-2.3,8.5-3.9c2.5-1.6,4.6-3.3,6.3-5.3l1.3,4.7l9.6-2.7c4.2-1.2,6.3-1.8,10.5-3.1l9.6-2.9l-2.9-9.6
				c-3.4-11.1-6.8-22.3-10.2-33.4L204,166.3L204,166.3z"/>
		</g>
		<g>
			<path d="M146.4,232.7c-1.6,0.2-3.2,0.2-4.6,0.2c-2.6-0.1-5.1-0.6-7.2-1.5c-2.4-1-4.3-2.6-5.8-4.7c-1.4-2-2.4-4.4-2.8-7.3
				c-0.4-2.9-0.2-5.6,0.8-8c0.6-1.6,1.5-3,2.6-4.2l-1-3c-1-3.1-1.5-4.6-2.5-7.7l-1.4-4.1l3.9-1.9c0.6-0.3,1.4-0.7,2.4-1
				c0.9-0.4,1.9-0.7,3-1.1c1.1-0.3,2.2-0.7,3.3-1c1.2-0.3,2.5-0.6,3.8-0.9c1-0.2,2-0.3,2.9-0.4c2.2-0.2,4.2-0.2,6,0
				c2.8,0.4,5.3,1.3,7.4,2.7c2.1,1.4,3.8,3.3,5,5.7c1.1,2,1.9,4.4,2.4,6.9l5.2,24.1l-3.7,1.6c-1.6,0.7-3.7,1.5-6.3,2.5
				c-2.9,1.1-6.4,2-10.4,2.7C148.4,232.4,147.4,232.6,146.4,232.7z"/>
			<path class="st1" d="M144.4,191c1.8-0.2,3.4-0.2,4.9,0c2.1,0.3,3.8,0.9,5.2,1.9c1.4,1,2.6,2.3,3.4,3.9c0.9,1.6,1.5,3.5,2,5.6
				c1.7,8,2.6,12.1,4.3,20.1c-1.4,0.6-3.4,1.4-6,2.4c-2.6,1-5.8,1.8-9.6,2.5c-0.9,0.2-1.8,0.3-2.7,0.4c-1.4,0.2-2.7,0.2-4,0.2
				c-2-0.1-3.8-0.4-5.4-1.1c-1.6-0.7-2.8-1.7-3.8-3c-1-1.3-1.6-3-1.9-5.1c-0.3-2-0.1-3.8,0.5-5.3c0.6-1.5,1.6-2.8,2.9-3.9
				c1.3-1.1,2.8-1.9,4.5-2.6c1.7-0.7,3.6-1.2,5.5-1.5c1-0.2,1.9-0.3,2.8-0.4c0.3,0,0.5-0.1,0.7-0.1c1-0.1,1.9-0.1,2.5,0
				c-0.1-0.4-0.1-0.5-0.2-0.9c-0.3-1.7-1.1-2.9-2.3-3.7c-1-0.7-2.5-0.9-4.4-0.7c-0.4,0-0.8,0.1-1.2,0.2c-1.7,0.3-3.3,0.7-5,1.2
				c-1.6,0.5-3,1.1-4.1,1.7c-1-3.1-1.5-4.6-2.5-7.7c0.5-0.3,1.2-0.6,2.1-0.9c0.8-0.3,1.7-0.7,2.7-1c1-0.3,2-0.6,3.1-0.9
				c1.1-0.3,2.2-0.6,3.4-0.8C142.8,191.2,143.6,191.1,144.4,191 M146.7,219.8c0.4,0,0.8-0.1,1.2-0.2c1-0.2,2-0.4,2.9-0.6
				c0.9-0.2,1.6-0.4,2.2-0.6c-0.6-2.9-0.9-4.4-1.4-7.4c-0.4,0-1.1,0-1.9,0.1c-0.2,0-0.5,0-0.7,0.1c-0.6,0.1-1.1,0.1-1.6,0.2
				c-1,0.2-1.9,0.4-2.7,0.7c-0.8,0.3-1.5,0.6-2.1,1c-0.6,0.4-1,0.9-1.3,1.5c-0.3,0.6-0.3,1.3-0.2,2.1c0.3,1.5,1,2.5,2.2,2.9
				C144.2,219.9,145.4,220,146.7,219.8 M143.3,181L143.3,181c-1,0.1-2.1,0.3-3.3,0.5c-1.4,0.3-2.8,0.6-4.2,1
				c-1.3,0.3-2.4,0.7-3.6,1.1c-1.2,0.4-2.3,0.8-3.4,1.2c-1,0.4-1.9,0.8-2.7,1.2l-7.8,3.8l2.7,8.3c1,3.1,1.5,4.6,2.5,7.7l0.2,0.5
				c-0.7,1-1.2,2.1-1.7,3.2c-1.3,3.2-1.7,6.8-1.1,10.6c0.6,3.7,1.8,6.9,3.7,9.5c2,2.8,4.7,4.9,7.9,6.3c2.7,1.2,5.8,1.8,9,1.9
				c1.7,0.1,3.5,0,5.3-0.2c1.1-0.1,2.2-0.3,3.4-0.5c4.3-0.8,8.1-1.8,11.3-2.9c2.6-1,4.8-1.8,6.6-2.6l7.5-3.3l-1.7-8l-4.1-18.9
				l-0.3-1.2c-0.6-3-1.6-5.7-2.9-8.2c-1.6-3.1-3.8-5.6-6.6-7.5c-2.7-1.9-5.9-3-9.6-3.5C148.3,180.7,146,180.7,143.3,181L143.3,181z"
				/>
		</g>
		<g>
			<path d="M108.5,223.5c-0.3,0-0.6,0.1-0.9,0.1l1.3,13.8l-5,0.5c-4.2,0.4-6.5,0.6-10.7,0.9l-5,0.4l-3.3-44.8l5-0.4
				c4-0.3,5.9-0.5,9.8-0.8l5-0.5l1.2,12.9c0.2,0,0.3,0,0.5-0.1l-1.5-12.9l5-0.6c3.9-0.5,5.9-0.7,9.8-1.2l5-0.7l6.1,44.5l-5,0.7
				c-4.3,0.6-6.5,0.9-10.7,1.3l-5,0.6L108.5,223.5z"/>
			<path class="st1" d="M90.2,198.9c4-0.3,6-0.5,9.9-0.8c0.5,5.2,0.7,7.8,1.2,13c2.7-0.3,4.5-0.4,6.5-0.7c1.2-0.1,2.5-0.3,4.1-0.5
				c-0.6-5.2-0.9-7.8-1.5-12.9c4-0.5,5.9-0.7,9.9-1.2c1.6,11.5,3.1,23.1,4.7,34.6c-4.2,0.6-6.3,0.8-10.6,1.3
				c-0.6-5.5-1-8.2-1.6-13.7c-1.6,0.2-2.9,0.3-4.1,0.5c-2.1,0.2-3.9,0.4-6.6,0.7c0.5,5.5,0.8,8.2,1.3,13.7
				c-4.2,0.4-6.4,0.6-10.6,0.9C91.9,222.1,91.1,210.5,90.2,198.9 M79.5,189.7l0.7,10l0.9,11.6l1.7,23.2l0.7,10l10-0.7
				c4.3-0.3,6.5-0.5,10.8-0.9l1.3-0.1l0,0.1l4.3-0.5l4.3-0.4l0-0.1l1.3-0.2c4.3-0.5,6.5-0.8,10.8-1.4l9.9-1.4L135,229l-2.4-17.2
				l-2.4-17.4l-1.4-9.9l-9.9,1.4c-3.9,0.5-5.8,0.8-9.7,1.2l-5,0.6l-5.1,0.5c-3.9,0.4-5.8,0.5-9.7,0.8L79.5,189.7L79.5,189.7z"/>
		</g>
	</g>
</g>
</svg>
