<?xml version="1.0" encoding="utf-8"?>
<!-- Generator: Adobe Illustrator 21.1.0, SVG Export Plug-In . SVG Version: 6.00 Build 0)  -->
<svg version="1.0" id="Layer_1" xmlns="http://www.w3.org/2000/svg" xmlns:xlink="http://www.w3.org/1999/xlink" x="0px" y="0px"
	 viewBox="0 0 3265 599.1" style="enable-background:new 0 0 3265 599.1;" xml:space="preserve">
<style type="text/css">
	.st0{fill:#EB3B23;}
	.st1{fill:none;stroke:#EB3B23;stroke-width:10;stroke-miterlimit:10;}
	.st2{fill:#FFFFFF;}
</style>
<g>
	<path class="st0" d="M1579.4,300.1c0-96.6,78.4-175,175-175c96.6,0,175,78.4,175,175"/>
	<line class="st1" x1="1754.4" y1="0.1" x2="1754.4" y2="150.1"/>
	<g>
		
			<ellipse transform="matrix(0.4398 -0.8981 0.8981 0.4398 721.6979 1957.7305)" class="st0" cx="1930.1" cy="400.4" rx="100" ry="100"/>
		<polygon class="st0" points="2064.8,466.4 1953,467.3 1997,377.5 		"/>
		<g>
			
				<ellipse transform="matrix(9.657725e-02 -0.9953 0.9953 9.657725e-02 1322.6591 2348.8167)" class="st2" cx="1955.2" cy="445.8" rx="15" ry="15"/>
		</g>
	</g>
</g>
<g>
	<path class="st0" d="M300,573c-96.6,0-175-78.4-175-175s78.4-175,175-175"/>
	<line class="st1" x1="0" y1="398" x2="150" y2="398"/>
	<g>
		
			<ellipse transform="matrix(0.9267 -0.3759 0.3759 0.9267 -51.2778 166.1546)" class="st0" cx="400.2" cy="214.5" rx="100" ry="100"/>
		<polygon class="st0" points="343.8,75.5 427.7,149.4 335.1,187 		"/>
		<g>
			
				<ellipse transform="matrix(0.7358 -0.6772 0.6772 0.7358 -2.2006 322.1412)" class="st2" cx="411.8" cy="163.9" rx="15" ry="15"/>
		</g>
	</g>
</g>
<g>
	<g>
		<path class="st0" d="M847.4,351.6c68.3-68.3,179.1-68.3,247.5,0c68.3,68.3,68.3,179.1,0,247.5"/>
		<line class="st1" x1="1033" y1="201" x2="1033" y2="351"/>
		<polyline class="st0" points="1108,551 1208,501 1108,451 		"/>
	</g>
	<g>
		<circle class="st2" cx="1093.4" cy="507.1" r="15"/>
	</g>
</g>
<g>
	<g>
		<path class="st0" d="M2904.4,150.6c68.3-68.3,179.1-68.3,247.5,0s68.3,179.1,0,247.5"/>
		<line class="st1" x1="3090" y1="0" x2="3090" y2="150"/>
		<polyline class="st0" points="3165,350 3265,300 3165,250 		"/>
	</g>
	<g>
		<circle class="st2" cx="3150.4" cy="306.1" r="15"/>
	</g>
</g>
<g>
	<polygon class="st0" points="1032,251.1 1282,1.1 782,1.1 	"/>
</g>
</svg>
