<?xml version="1.0" encoding="utf-8"?>
<!-- Generator: Adobe Illustrator 21.1.0, SVG Export Plug-In . SVG Version: 6.00 Build 0)  -->
<svg version="1.0" id="Layer_1" xmlns="http://www.w3.org/2000/svg" xmlns:xlink="http://www.w3.org/1999/xlink" x="0px" y="0px"
	 viewBox="0 0 508.6 490.9" style="enable-background:new 0 0 508.6 490.9;" xml:space="preserve">
<style type="text/css">
	.st0{fill:#F5C900;}
	.st1{fill:#63104F;}
</style>
<g>
	<polygon class="st0" points="233.6,289.9 165,304.3 204.9,267 132.3,219.5 194.5,224 168.6,142.9 219.4,175.7 242.4,109.3 
		263.9,174.6 327.9,130.4 290.2,202.5 370.9,220.7 292.3,244.3 336.3,317.9 267.9,269.9 249,348.1 	"/>
	<path class="st0" d="M241.6,218.6l0.3,0.9l-1.7,3.3L241.6,218.6 M231.6,225.2l6.3,4.1l0.9-2.5l2.7,0.6l0.5,0.8l-4,16.8L231.6,225.2
		 M243.2,0l-42.3,122.1l-95.3-61.5l39.8,124.7L0,174.6l148.4,97.2l-98.6,92.3L208.3,331l42.4,159.9l39.2-162.8l160.8,112.8
		l-105.2-176l163.2-49.1l-166.3-37.4l82.2-157.2l-142,98.1L243.2,0L243.2,0z"/>
</g>
<path class="st1" d="M247.8,326.2c-28.2-11-51-41.4-51-73.3s22-64.4,47.8-76.5c28.4-13.4,66.9-9.6,92.4,12.7l47.8-60.6
	c-47.8-38.2-114.4-50.3-172.1-22.3c-53.9,26.2-94.1,86-92.4,149.8c1.6,60.5,40.9,119.3,98.8,143.4c18.6,7.8,38.2,9.6,57.4,9.6
	c41.4,0,82.9-15.9,114.7-47.8l-57.4-51C314.7,332.6,277.1,337.6,247.8,326.2z"/>
</svg>
