<?xml version="1.0" standalone="no"?>
<!DOCTYPE svg PUBLIC "-//W3C//DTD SVG 20010904//EN"
 "http://www.w3.org/TR/2001/REC-SVG-20010904/DTD/svg10.dtd">
<svg version="1.0" xmlns="http://www.w3.org/2000/svg"
 width="1136.000000pt" height="1136.000000pt" viewBox="0 0 1136.000000 1136.000000"
 preserveAspectRatio="xMidYMid meet">
<metadata>
Created by potrace 1.11, written by Peter Selinger 2001-2013
</metadata>
<g transform="translate(0.000000,1136.000000) scale(0.100000,-0.100000)"
fill="#000000" stroke="none">
<path d="M6288 11355 c-2 -1 -52 -6 -113 -9 -151 -10 -232 -17 -335 -31 -19
-3 -53 -7 -75 -10 -22 -2 -51 -7 -65 -9 -14 -3 -41 -8 -60 -10 -32 -5 -75 -12
-125 -21 -11 -2 -40 -8 -65 -14 -25 -5 -56 -12 -70 -15 -57 -11 -161 -36 -255
-61 -55 -14 -107 -28 -115 -30 -97 -24 -488 -161 -504 -176 -6 -5 -16 -9 -23
-9 -7 0 -36 -11 -65 -24 -29 -13 -82 -37 -118 -52 -36 -16 -128 -60 -205 -98
-77 -38 -143 -69 -147 -68 -5 1 -8 -2 -8 -8 0 -5 -4 -10 -9 -10 -5 0 -44 -20
-85 -45 -42 -25 -81 -45 -86 -45 -6 0 -10 -4 -10 -10 0 -5 -5 -10 -11 -10 -6
0 -31 -13 -56 -30 -24 -16 -46 -30 -48 -30 -3 0 -73 -46 -156 -102 -83 -57
-158 -107 -167 -113 -10 -5 -19 -13 -22 -16 -3 -3 -45 -37 -95 -74 -152 -116
-337 -272 -455 -385 -26 -25 -65 -61 -86 -81 -56 -53 -230 -235 -291 -305 -98
-112 -149 -173 -199 -234 -19 -25 -43 -54 -52 -65 -10 -11 -37 -47 -61 -80
-25 -33 -52 -66 -60 -72 -8 -7 -11 -13 -5 -13 5 0 2 -6 -6 -13 -9 -7 -26 -29
-39 -50 -13 -21 -28 -43 -35 -50 -7 -6 -21 -27 -31 -44 -11 -18 -23 -33 -27
-33 -4 0 -8 -6 -8 -13 0 -8 -11 -27 -25 -43 -14 -16 -25 -32 -25 -36 0 -5 -68
-113 -97 -154 -8 -10 -24 -39 -60 -106 -10 -18 -20 -35 -24 -38 -3 -3 -20 -34
-38 -70 -19 -36 -36 -67 -40 -70 -10 -8 -101 -196 -101 -208 0 -7 -4 -12 -10
-12 -5 0 -10 -4 -10 -9 0 -5 -22 -57 -50 -116 -27 -59 -50 -108 -50 -110 0 -1
-8 -20 -17 -41 -9 -22 -16 -42 -15 -46 1 -5 -3 -8 -10 -8 -6 0 -8 -3 -5 -6 3
-4 1 -16 -5 -28 -7 -11 -13 -26 -14 -32 -1 -6 -9 -27 -17 -45 -16 -36 -51
-131 -52 -139 0 -3 -4 -11 -8 -17 -5 -7 -10 -21 -12 -30 -2 -10 -20 -65 -40
-123 -20 -58 -37 -114 -40 -125 -2 -11 -15 -60 -30 -110 -14 -49 -28 -101 -31
-115 -2 -14 -7 -32 -11 -40 -3 -8 -7 -19 -7 -25 -1 -8 -15 -67 -31 -135 -8
-34 -16 -71 -20 -95 -2 -16 -9 -55 -15 -85 -15 -74 -17 -87 -25 -140 -3 -25
-8 -58 -11 -75 -6 -34 -12 -84 -28 -240 -29 -268 -29 -793 -1 -1040 3 -22 7
-60 9 -85 3 -25 6 -45 7 -45 0 0 3 -13 4 -30 2 -16 6 -52 10 -80 4 -27 8 -59
10 -70 1 -11 4 -20 5 -20 1 0 3 -16 5 -35 1 -19 5 -42 8 -50 3 -8 8 -31 11
-50 5 -35 12 -73 22 -120 3 -14 7 -34 9 -45 2 -11 11 -45 19 -77 8 -31 17 -67
20 -80 10 -47 14 -64 24 -89 6 -15 8 -30 5 -33 -3 -3 -1 -11 4 -18 6 -7 16
-38 24 -68 7 -30 16 -59 21 -64 4 -6 8 -23 8 -38 0 -15 5 -28 12 -28 6 0 9 -3
6 -6 -13 -12 184 -537 213 -568 5 -6 9 -16 9 -24 0 -7 47 -106 103 -220 121
-241 139 -276 150 -280 4 -2 7 -8 7 -13 0 -5 18 -39 40 -75 22 -36 40 -70 40
-75 0 -5 4 -9 9 -9 5 0 11 -8 14 -17 6 -19 38 -74 48 -83 12 -11 69 -102 69
-110 0 -4 3 -10 8 -12 4 -1 27 -32 51 -68 25 -36 48 -66 53 -68 4 -2 8 -9 8
-16 0 -7 9 -21 20 -31 11 -10 20 -22 20 -27 0 -5 6 -15 13 -22 6 -7 24 -28 38
-47 100 -128 154 -194 161 -197 4 -2 8 -8 8 -12 0 -5 10 -20 22 -32 13 -13 48
-52 78 -87 212 -246 486 -507 775 -736 55 -44 102 -83 103 -87 2 -5 9 -8 17
-8 7 0 18 -7 25 -15 6 -8 60 -47 118 -87 59 -39 109 -75 110 -80 2 -4 8 -8 14
-8 5 0 29 -13 53 -30 24 -16 46 -30 50 -30 3 0 15 -9 27 -20 12 -11 28 -20 35
-20 7 0 13 -4 13 -10 0 -5 4 -10 10 -10 5 0 33 -14 62 -32 210 -125 505 -269
738 -361 75 -29 103 -40 110 -41 3 -1 11 -5 18 -9 6 -5 12 -6 12 -2 0 3 10 0
23 -7 12 -7 27 -13 32 -14 6 0 13 -2 18 -4 4 -1 12 -4 17 -5 6 -1 12 -4 15 -5
6 -3 9 -4 58 -13 20 -5 37 -11 37 -15 0 -4 8 -8 18 -9 9 0 51 -10 92 -21 41
-11 102 -26 135 -33 33 -7 62 -13 65 -14 3 -1 21 -5 40 -10 19 -4 46 -9 60
-11 14 -1 25 -3 25 -4 0 -1 20 -4 45 -6 25 -3 52 -7 60 -11 8 -3 24 -7 35 -8
56 -6 142 -17 160 -20 27 -6 167 -20 300 -30 317 -24 878 -24 1075 -1 36 5
135 15 205 22 49 5 107 12 160 20 22 3 51 7 65 9 14 2 25 4 25 5 0 2 25 7 77
14 38 5 65 10 118 20 8 2 26 6 40 9 14 4 36 9 50 12 22 4 140 30 180 40 44 10
102 25 155 40 33 10 67 19 75 20 8 2 16 4 18 5 1 2 7 4 12 5 6 1 13 4 18 5 4
2 12 4 17 5 6 1 18 5 28 8 18 7 46 16 50 17 6 0 231 80 289 103 36 14 69 23
72 20 3 -4 6 -1 6 5 0 7 8 12 18 12 10 0 22 3 26 7 4 5 11 8 14 9 4 0 29 10
55 22 27 12 50 22 52 22 2 0 43 19 92 42 102 48 92 44 121 53 12 4 22 10 22
14 0 4 15 12 33 19 17 6 75 34 127 62 52 27 98 50 102 50 4 0 8 5 8 11 0 5 5
7 10 4 6 -3 10 -1 10 4 0 6 7 11 15 11 8 0 15 5 15 10 0 6 6 10 13 10 11 0
120 64 242 142 22 14 44 25 49 26 5 0 12 4 15 9 3 5 42 34 86 64 44 30 82 57
83 62 2 4 10 7 18 7 8 0 14 5 14 10 0 6 4 10 10 10 9 0 18 6 72 52 12 10 24
18 27 18 3 0 17 10 31 23 14 12 50 41 80 64 30 23 62 48 70 55 9 7 51 44 95
83 44 38 88 76 99 85 21 17 106 97 188 175 l57 55 -30 30 c-17 16 -34 30 -38
30 -3 0 -13 8 -22 18 -8 9 -48 46 -89 82 -40 36 -83 74 -96 85 -12 11 -37 33
-55 49 -19 16 -72 63 -119 105 -47 42 -100 89 -119 106 -19 16 -49 45 -68 63
-18 17 -36 32 -39 32 -3 0 -15 10 -28 23 -12 12 -55 51 -96 87 -40 36 -83 74
-95 85 -13 11 -53 47 -91 80 -65 58 -140 125 -192 173 -14 12 -47 40 -73 63
-26 22 -63 54 -82 72 -19 18 -50 46 -69 62 -18 17 -74 66 -123 110 -50 43
-101 88 -114 100 -13 11 -33 29 -45 40 -19 18 -111 100 -214 190 -45 39 -71
63 -114 103 l-35 33 -104 -103 c-98 -97 -285 -248 -307 -248 -6 0 -12 -3 -14
-8 -4 -10 -102 -72 -115 -72 -5 0 -20 -9 -33 -20 -13 -11 -29 -20 -37 -20 -7
0 -13 -4 -13 -10 0 -5 -5 -10 -11 -10 -5 0 -31 -10 -57 -22 -26 -12 -49 -22
-52 -23 -3 -1 -23 -9 -45 -19 -100 -44 -279 -105 -385 -131 -54 -13 -118 -27
-137 -31 -13 -2 -33 -6 -45 -9 -52 -10 -76 -14 -123 -20 -27 -4 -63 -9 -80
-11 -176 -24 -607 -24 -760 1 -16 3 -50 7 -75 10 -85 11 -105 14 -155 25 -27
6 -68 13 -90 16 -22 4 -46 11 -52 16 -7 6 -13 8 -13 5 0 -10 -225 56 -285 82
-22 10 -53 21 -69 25 -58 14 -344 152 -408 197 -14 11 -30 19 -35 19 -6 0 -18
9 -28 20 -10 11 -23 20 -28 20 -13 0 -170 116 -277 204 -106 88 -297 278 -373
371 -32 39 -63 77 -71 85 -32 36 -126 170 -126 179 0 6 -4 11 -8 11 -5 0 -19
18 -31 41 -13 22 -38 64 -57 92 -47 71 -175 333 -214 437 -17 47 -35 94 -40
105 -8 17 -19 52 -47 150 -10 38 -34 133 -37 150 -2 11 -9 43 -15 70 -6 28
-13 64 -15 80 -3 17 -7 48 -11 70 -20 126 -26 430 -11 555 2 19 7 62 11 95 9
76 59 325 78 387 8 26 12 49 9 52 -3 4 0 6 5 6 6 0 10 8 9 17 -2 14 16 72 41
133 3 8 7 17 8 20 1 3 4 12 8 20 3 8 13 35 21 60 8 25 21 59 29 75 8 17 21 45
28 64 25 62 168 341 180 351 4 3 15 22 26 42 28 51 171 263 199 293 13 14 20
25 16 25 -4 0 -2 4 3 8 6 4 41 45 79 92 67 83 316 335 391 395 20 17 51 42 68
57 18 15 35 28 38 28 4 0 22 13 40 30 19 16 42 32 52 36 9 3 17 10 17 15 0 5
7 9 15 9 8 0 15 3 15 8 0 4 9 12 19 17 11 6 46 26 78 45 236 140 497 246 753
305 48 12 159 35 185 39 17 2 30 5 30 6 0 1 16 3 35 6 19 2 53 6 75 9 41 6 99
12 195 20 124 11 444 5 565 -10 17 -2 53 -7 80 -10 28 -3 73 -9 100 -15 28 -5
67 -12 89 -15 21 -3 42 -7 46 -10 3 -2 22 -7 41 -10 61 -10 222 -54 314 -85
50 -17 106 -36 125 -42 19 -7 37 -15 40 -18 3 -3 11 -6 19 -8 8 -2 29 -9 48
-17 18 -8 35 -14 38 -15 3 0 71 -35 152 -76 82 -42 158 -81 170 -88 13 -6 23
-14 23 -18 0 -5 5 -8 10 -8 12 0 73 -41 78 -52 2 -5 8 -8 14 -8 9 0 145 -94
158 -109 3 -3 21 -18 40 -32 19 -15 48 -38 64 -52 l29 -25 69 86 c37 48 76 96
86 108 9 11 26 33 37 49 11 15 30 37 43 48 12 11 22 24 22 29 0 8 28 44 63 80
9 10 14 18 10 18 -5 0 -3 4 2 8 11 7 105 123 157 192 14 19 35 45 47 57 12 12
21 26 21 32 0 5 3 11 8 13 4 2 30 31 57 66 28 35 73 92 100 126 28 34 61 77
75 95 14 19 33 42 43 52 9 11 17 23 17 28 0 5 4 11 8 13 4 2 45 50 90 108 45
58 87 112 94 120 7 8 46 57 87 110 41 52 77 97 81 100 3 3 17 21 30 40 14 19
32 42 40 51 24 26 50 59 50 64 0 3 8 13 18 23 9 10 28 33 42 51 22 30 139 177
179 226 9 11 29 38 46 60 36 48 55 72 74 92 13 13 12 17 -6 32 -144 113 -222
169 -227 164 -3 -4 -6 -1 -6 5 0 12 -289 206 -456 306 -169 100 -242 139 -444
237 -102 50 -193 95 -204 100 -10 6 -35 17 -55 24 -20 7 -54 21 -76 31 -22 10
-42 18 -45 19 -3 1 -16 6 -30 12 -48 21 -139 55 -145 54 -3 -1 -18 5 -33 12
-15 8 -72 29 -127 47 -55 18 -107 36 -115 40 -9 4 -31 11 -50 16 -19 4 -37 8
-40 9 -3 1 -18 5 -35 10 -16 4 -36 12 -42 18 -7 5 -13 7 -13 3 0 -3 -15 0 -34
8 -19 8 -37 12 -40 8 -3 -3 -16 0 -29 6 -32 16 -339 88 -422 98 -16 2 -39 7
-50 11 -11 3 -33 7 -50 9 -29 2 -85 11 -129 20 -11 2 -39 6 -61 9 -22 3 -62 8
-90 11 -27 4 -63 8 -80 9 -48 4 -177 17 -215 21 -41 5 -637 14 -642 9z"/>
</g>
</svg>
