<?xml version="1.0" encoding="utf-8"?>
<!-- Generator: Adobe Illustrator 23.0.2, SVG Export Plug-In . SVG Version: 6.00 Build 0)  -->
<svg version="1.1" id="Layer_1" xmlns="http://www.w3.org/2000/svg" xmlns:xlink="http://www.w3.org/1999/xlink" x="0px" y="0px"
	 viewBox="0 0 336.29 148.16" style="enable-background:new 0 0 336.29 148.16;" xml:space="preserve">
<style type="text/css">
	.st0{fill:#FFFFFF;}
</style>
<g>
	<g>
		<path class="st0" d="M63.92,76.09H6.29v4.87h57.63v6.35H6.29v11.64H0.07V69.32h63.85V76.09z"/>
		<path class="st0" d="M68.16,75.67c0-4.11,2.24-6.35,6.35-6.35h51.15c4.11,0,6.35,2.24,6.35,6.35v16.94c0,4.11-2.24,6.35-6.35,6.35
			H74.51c-4.11,0-6.35-2.24-6.35-6.35V75.67z M125.36,92.73c0.25,0,0.42-0.17,0.42-0.42V75.97c0-0.25-0.17-0.42-0.42-0.42H74.81
			c-0.25,0-0.42,0.17-0.42,0.42v16.34c0,0.25,0.17,0.42,0.42,0.42H125.36z"/>
		<path class="st0" d="M193.75,69.32c4.11,0,6.35,2.24,6.35,6.35v4.78c0,4.11-2.24,6.35-6.35,6.35h-9.53l10.8,12.15H186
			l-10.84-12.15h-32.14v12.15h-6.77V69.32H193.75z M193.75,76.09c0-0.25-0.17-0.42-0.42-0.42h-50.3v4.78h50.3
			c0.25,0,0.42-0.17,0.42-0.42V76.09z"/>
		<path class="st0" d="M204.34,75.67c0-4.11,2.24-6.35,6.35-6.35h51.15c4.11,0,6.35,2.24,6.35,6.35v2.79h-6.82v-1.31
			c0-0.68-0.38-1.06-1.06-1.06h-48.69c-0.68,0-1.06,0.38-1.06,1.06v13.93c0,0.68,0.38,1.06,1.06,1.06h48.69
			c0.68,0,1.06-0.38,1.06-1.06v-1.27h6.82v2.79c0,4.11-2.24,6.35-6.35,6.35h-51.15c-4.11,0-6.35-2.24-6.35-6.35V75.67z"/>
		<path class="st0" d="M336.29,76.09h-57.63v4.87h57.63v6.35h-57.63v4.83h57.63v6.82h-63.85V69.32h63.85V76.09z"/>
		<path class="st0" d="M61.83,126.02H6.03v4.72h55.8v6.15H6.03v11.28H0v-28.7h61.83V126.02z"/>
		<path class="st0" d="M65.93,148.16v-28.7h6.6v28.7H65.93z"/>
		<path class="st0" d="M138.46,126.02h-55.8v4.72h55.8v6.15h-55.8v4.67h55.8v6.6H76.63v-28.7h61.83V126.02z"/>
		<path class="st0" d="M149.16,141.97h55.19v6.19h-61.79v-28.7h6.6V141.97z"/>
		<path class="st0" d="M263.75,119.46c3.98,0,6.15,2.17,6.15,6.15v16.4c0,3.98-2.17,6.15-6.15,6.15h-55.31v-28.7H263.75z
			 M263.26,127.04c0-0.66-0.37-1.03-1.03-1.03H215v15.5h47.23c0.66,0,1.03-0.37,1.03-1.03V127.04z"/>
		<path class="st0" d="M280.19,148.16c-4,0-6.19-2.19-6.19-6.19v-2.72h6.65v2.68c0,0.25,0.17,0.41,0.41,0.41h48.58
			c0.25,0,0.41-0.17,0.41-0.41v-4.46c0-0.25-0.17-0.41-0.41-0.41h-49.45c-4,0-6.19-2.19-6.19-6.19v-5.41c0-4,2.19-6.19,6.19-6.19
			h49.9c4,0,6.19,2.19,6.19,6.19v2.72h-6.65v-2.68c0-0.25-0.17-0.41-0.41-0.41h-48.58c-0.25,0-0.41,0.17-0.41,0.41v4.46
			c0,0.25,0.17,0.41,0.41,0.41h49.45c4,0,6.19,2.19,6.19,6.19v5.41c0,4-2.19,6.19-6.19,6.19H280.19z"/>
	</g>
</g>
<g>
	<g>
		<path class="st0" d="M11.46,0v37.31c0,1.14,0.64,1.78,1.78,1.78h80.82c1.14,0,1.78-0.64,1.78-1.78V0h11.46v39.16
			c0,6.91-3.77,10.68-10.68,10.68H10.68C3.77,49.84,0,46.07,0,39.16V0H11.46z"/>
		<path class="st0" d="M221.8,11.39h-96.91v8.19h96.91v10.68h-96.91v19.58h-10.47V0H221.8V11.39z"/>
		<path class="st0" d="M228.91,10.68c0-6.91,3.77-10.68,10.68-10.68h86.01c6.91,0,10.68,3.77,10.68,10.68v28.48
			c0,6.91-3.77,10.68-10.68,10.68h-86.01c-6.91,0-10.68-3.77-10.68-10.68V10.68z M325.11,39.38c0.43,0,0.71-0.28,0.71-0.71V11.18
			c0-0.43-0.29-0.71-0.71-0.71h-85.02c-0.43,0-0.71,0.28-0.71,0.71v27.49c0,0.43,0.28,0.71,0.71,0.71H325.11z"/>
	</g>
</g>
<g>
</g>
<g>
</g>
<g>
</g>
<g>
</g>
<g>
</g>
<g>
</g>
<g>
</g>
<g>
</g>
<g>
</g>
<g>
</g>
<g>
</g>
<g>
</g>
<g>
</g>
<g>
</g>
<g>
</g>
</svg>
