<?xml version="1.0" encoding="utf-8"?>
<!-- Generator: Adobe Illustrator 23.0.2, SVG Export Plug-In . SVG Version: 6.00 Build 0)  -->
<svg version="1.1" id="Layer_1" xmlns="http://www.w3.org/2000/svg" xmlns:xlink="http://www.w3.org/1999/xlink" x="0px" y="0px"
	 viewBox="0 0 102.37 27.51" style="enable-background:new 0 0 102.37 27.51;" xml:space="preserve">
<path d="M24.12,17.25v3.42h-1.72v1.72h-1.7v1.7h-3.42v1.72h-1.72v1.7h-5.28v-1.7h-1.7v-1.72H5.15v-1.7H3.42v-1.72h-1.7v-3.42H0V8.54
	h1.72V5.12h1.7v-1.7h1.72V1.7h3.42V0h8.7v1.7h3.42v1.72h1.7v1.7h1.72v3.42h1.7v8.71H24.12z M23.95,8.71h-1.7V5.28h-1.72V3.56h-3.42
	v-1.7h-8.4v1.7H5.28v1.72h-1.7v3.42H1.86v8.4h1.72v3.42h1.7v1.7h3.29v-3.26H6.84v-1.72h-1.7v-1.86h1.86v1.72h10.1v-1.72h1.72v-1.7
	h1.86v1.86h-1.72v1.7h-1.7v4.98h3.26v-1.7h1.72v-3.42h1.7V8.71z M5.15,10.4V8.54h1.7v-1.7h1.86v1.7h1.72v1.86H5.15z M8.57,13.82
	v-1.86h5.28v1.86H8.57z M15.41,18.97h-1.56v5.12h-1.86v-5.12h-1.56v6.68h4.98V18.97z M13.69,10.4V8.54h1.72v-1.7h1.86v1.7h1.7v1.86
	H13.69z M29.11,8.71V6.84h8.71v1.86H29.11z M34.39,17.25v1.72h-3.56v-1.72h-1.72v-5.28h1.72v-1.7h3.56v1.7h1.72v5.28H34.39z
	 M29.11,22.39v-1.86h8.71v1.86H29.11z M34.25,12.13h-3.29v4.98h3.29V12.13z M37.81,8.71V6.84h8.71v1.86H37.81z M42.96,18.97v-1.72
	h-1.72v-1.7h-1.56v3.42h-1.86v-8.71h1.86v3.42h1.56v-1.72h1.72v-1.7h1.86v1.86H43.1v1.7h-1.7v1.56h1.7v1.72h1.72v1.86H42.96z
	 M37.81,22.39v-1.86h8.71v1.86H37.81z M46.52,8.71V6.84h5.28v1.86H46.52z M46.52,22.39v-1.86h5.28v1.86H46.52z M51.8,8.71V6.84h8.7
	v1.86H51.8z M57.09,17.25v1.72H51.8v-1.86h5.15v-1.56h-3.42v-1.72H51.8v-1.86h1.72v-1.7h5.28v1.86h-5.15v1.56h3.42v1.7h1.72v1.86
	H57.09z M51.8,22.39v-1.86h8.7v1.86H51.8z M60.51,8.71V6.84h7.01v1.86H60.51z M60.51,18.97v-8.71h5.28v1.86h-3.42v1.56h3.42v1.86
	h-3.42v1.56h3.42v1.86H60.51z M60.51,22.39v-1.86h7.01v1.86H60.51z M67.52,8.71V6.84h8.71v1.86H67.52z M72.67,18.97v-1.72h-3.29
	v1.72h-1.86v-8.71h5.28v1.7h1.72v3.59H72.8v1.56h1.72v1.86H72.67z M67.52,22.39v-1.86h8.71v1.86H67.52z M72.67,12.13h-3.29v3.26
	h3.29V12.13z M76.23,8.71V6.84h8.71v1.86H76.23z M77.95,18.97v-1.72h-1.72v-5.28h1.72v-1.7h5.28v1.86h-5.15v4.98h3.29v-1.56h-1.72
	v-1.86h3.59v5.28H77.95z M76.23,22.39v-1.86h8.71v1.86H76.23z M84.93,8.71V6.84h7.01v1.86H84.93z M84.93,18.97v-8.71h5.28v1.86
	h-3.42v1.56h3.42v1.86h-3.42v1.56h3.42v1.86H84.93z M84.93,22.39v-1.86h7.01v1.86H84.93z M91.94,8.71V6.84h10.43v1.86H91.94z
	 M98.95,13.82v1.72h-1.72v3.42h-1.86v-3.42h-1.7v-1.72h-1.72v-3.56h1.86v3.42h1.72v1.7h1.56v-1.7h1.7v-3.42h1.86v3.56H98.95z
	 M91.94,22.39v-1.86h10.43v1.86H91.94z"/>
<g>
</g>
<g>
</g>
<g>
</g>
<g>
</g>
<g>
</g>
<g>
</g>
<g>
</g>
<g>
</g>
<g>
</g>
<g>
</g>
<g>
</g>
<g>
</g>
<g>
</g>
<g>
</g>
<g>
</g>
</svg>
