<?xml version="1.0" encoding="utf-8"?>
<!-- Generator: Adobe Illustrator 23.0.2, SVG Export Plug-In . SVG Version: 6.00 Build 0)  -->
<svg version="1.1" id="Layer_1" xmlns="http://www.w3.org/2000/svg" xmlns:xlink="http://www.w3.org/1999/xlink" x="0px" y="0px"
	 viewBox="0 0 103.82 26.19" style="enable-background:new 0 0 103.82 26.19;" xml:space="preserve">
<style type="text/css">
	.st0{fill:#3900FF;}
</style>
<g>
	<path class="st0" d="M20.69,8.72c0.75,0.43,1.35,1.03,1.78,1.79s0.65,1.62,0.65,2.58s-0.22,1.82-0.66,2.59s-1.03,1.36-1.79,1.79
		c-0.75,0.43-1.59,0.64-2.5,0.64s-1.75-0.21-2.5-0.64s-1.35-1.03-1.79-1.79c-0.44-0.77-0.66-1.63-0.66-2.59s0.22-1.82,0.66-2.58
		s1.03-1.36,1.79-1.79c0.75-0.43,1.59-0.64,2.5-0.64C19.1,8.07,19.94,8.29,20.69,8.72z M16.33,11.03c-0.46,0.5-0.69,1.19-0.69,2.06
		c0,0.86,0.23,1.54,0.69,2.05c0.46,0.51,1.07,0.76,1.85,0.76c0.77,0,1.38-0.25,1.84-0.76c0.46-0.51,0.69-1.19,0.69-2.05
		c0-0.86-0.23-1.54-0.69-2.05s-1.07-0.76-1.85-0.76C17.4,10.28,16.78,10.53,16.33,11.03z"/>
	<path class="st0" d="M29.41,13.02l3.95,5h-2.87l-3.32-4.39v4.39H24.8V8.23h2.37v4.31l3.35-4.31h2.84L29.41,13.02z"/>
	<path class="st0" d="M44.45,16.69c-0.26,0.43-0.65,0.78-1.16,1.04c-0.51,0.26-1.13,0.39-1.86,0.39c-1.1,0-2-0.27-2.71-0.8
		c-0.71-0.54-1.1-1.28-1.16-2.24h2.52c0.04,0.37,0.17,0.66,0.39,0.87c0.23,0.21,0.51,0.32,0.87,0.32c0.3,0,0.54-0.08,0.72-0.25
		s0.26-0.39,0.26-0.66c0-0.25-0.08-0.46-0.24-0.62c-0.16-0.17-0.36-0.3-0.6-0.41c-0.24-0.11-0.57-0.23-1-0.38
		c-0.62-0.21-1.12-0.42-1.52-0.62c-0.39-0.2-0.73-0.49-1.01-0.89c-0.28-0.39-0.42-0.9-0.42-1.53c0-0.58,0.15-1.08,0.44-1.51
		c0.3-0.42,0.7-0.75,1.23-0.98c0.52-0.23,1.12-0.34,1.79-0.34c1.09,0,1.95,0.26,2.6,0.78c0.64,0.52,1,1.23,1.09,2.13h-2.56
		c-0.05-0.32-0.16-0.58-0.35-0.77c-0.19-0.19-0.45-0.28-0.77-0.28c-0.28,0-0.5,0.07-0.67,0.22c-0.17,0.15-0.26,0.36-0.26,0.65
		c0,0.23,0.08,0.43,0.23,0.59c0.15,0.16,0.34,0.29,0.57,0.4c0.23,0.1,0.56,0.23,1,0.39c0.63,0.21,1.14,0.42,1.54,0.63
		s0.74,0.51,1.03,0.91c0.29,0.4,0.43,0.91,0.43,1.55C44.85,15.78,44.72,16.26,44.45,16.69z"/>
	<path class="st0" d="M48.88,10.11v2.05h3.31v1.79h-3.31v2.17h3.73v1.9h-6.09V8.23h6.09v1.88H48.88z"/>
	<path class="st0" d="M59.32,18.02l-2.12-3.7h-0.54v3.7h-2.37V8.23h4.04c0.78,0,1.43,0.13,1.97,0.4c0.54,0.27,0.94,0.64,1.2,1.1
		c0.27,0.47,0.4,1,0.4,1.6c0,0.71-0.2,1.32-0.59,1.81c-0.39,0.5-0.96,0.84-1.71,1.03l2.33,3.85C61.93,18.02,59.32,18.02,59.32,18.02
		z M56.66,12.7h1.47c0.47,0,0.82-0.1,1.04-0.31s0.33-0.51,0.33-0.92c0-0.39-0.11-0.69-0.34-0.91s-0.57-0.33-1.03-0.33h-1.47
		C56.66,10.23,56.66,12.7,56.66,12.7z"/>
	<path class="st0" d="M71.06,9.03c0.79,0.6,1.29,1.41,1.48,2.44h-2.51c-0.17-0.35-0.42-0.63-0.76-0.84
		c-0.34-0.21-0.75-0.31-1.23-0.31c-0.75,0-1.35,0.25-1.8,0.75c-0.45,0.5-0.68,1.18-0.68,2.04c0,0.93,0.24,1.65,0.71,2.15
		s1.15,0.75,2.03,0.75c0.56,0,1.06-0.15,1.48-0.46c0.42-0.31,0.72-0.75,0.9-1.32H67.7v-1.7h4.97v2.34c-0.18,0.57-0.48,1.1-0.89,1.59
		c-0.41,0.49-0.93,0.89-1.56,1.19c-0.63,0.31-1.36,0.46-2.17,0.46c-0.99,0-1.85-0.21-2.59-0.63s-1.31-1.01-1.71-1.77
		s-0.6-1.62-0.6-2.59s0.2-1.83,0.6-2.59c0.4-0.76,0.97-1.35,1.7-1.77c0.73-0.42,1.59-0.63,2.57-0.63
		C69.26,8.13,70.27,8.43,71.06,9.03z"/>
	<path class="st0" d="M76.71,10.11v2.05h3.31v1.79h-3.31v2.17h3.73v1.9h-6.09V8.23h6.09v1.88H76.71z"/>
	<path class="st0" d="M90.59,8.23l-3.39,6.54v3.25h-2.38v-3.25l-3.39-6.54h2.71l1.88,3.99l1.88-3.99
		C87.9,8.23,90.59,8.23,90.59,8.23z"/>
</g>
</svg>
