<?xml version="1.0" encoding="utf-8"?>
<!-- Generator: Adobe Illustrator 23.0.1, SVG Export Plug-In . SVG Version: 6.00 Build 0)  -->
<svg version="1.1" id="Layer_1" xmlns="http://www.w3.org/2000/svg" xmlns:xlink="http://www.w3.org/1999/xlink" x="0px" y="0px"
	 viewBox="0 0 421.2 134" style="enable-background:new 0 0 421.2 134;" xml:space="preserve">
<style type="text/css">
	.st0{fill:#F5C900;}
</style>
<g>
	<g>
		<path class="st0" d="M54,79.9V54h26L54.2,79.9H54z M187.9,54h7l-3.5,3.5L187.9,54z M149.6,54h7l-3.5,3.5L149.6,54z M302.8,54h7
			l-3.5,3.5L302.8,54z M341.1,54h7l-3.5,3.5L341.1,54z M226.2,54h7l-3.5,3.5L226.2,54z M111.4,54h7l-3.5,3.5L111.4,54z M264.5,54h7
			l-3.5,3.5L264.5,54z"/>
		<polygon class="st0" points="421.2,0 0,0 0,134 76.6,134 95.7,114.8 114.9,134 134,114.8 153.1,134 172.3,114.8 191.4,134 
			210.6,114.8 229.7,134 248.9,114.8 268,134 287.2,114.8 306.3,134 325.4,114.8 344.6,134 363.7,114.8 382.9,134 402,114.8 
			421.2,134 421.2,0 		"/>
	</g>
</g>
</svg>
