<?xml version="1.0" encoding="utf-8"?>
<!-- Generator: Adobe Illustrator 23.0.2, SVG Export Plug-In . SVG Version: 6.00 Build 0)  -->
<svg version="1.1" id="Layer_1" xmlns="http://www.w3.org/2000/svg" xmlns:xlink="http://www.w3.org/1999/xlink" x="0px" y="0px"
	 viewBox="0 0 1194.3 221.8" style="enable-background:new 0 0 1194.3 221.8;" xml:space="preserve">
<style type="text/css">
	.st0{fill:#FD3401;}
</style>
<g>
	<g>
		<polygon class="st0" points="217.4,57.1 292.2,57.1 292.2,217.5 345.6,217.5 345.6,57.1 420.5,57.1 420.5,3.7 217.4,3.7 		"/>
	</g>
	<g>
		<polygon class="st0" points="1194.3,3.7 1123.7,3.7 1072.5,57.1 1072.5,3.7 1021.2,3.7 1021.2,57.1 972,3.7 901.4,3.7 982.7,87 
			903.6,217.5 967.7,217.5 1021.2,123.4 1021.2,217.5 1072.5,217.5 1072.5,123.4 1128,217.5 1192.1,217.5 1113.1,87 		"/>
	</g>
	<g>
		<path class="st0" d="M88.9,164.1c-19.6-7.7-35.6-28.9-35.6-51.1s15.4-44.9,33.3-53.4c19.8-9.3,46.7-6.7,64.5,8.9l33.3-42.2
			c-33.3-26.7-79.8-35.1-120-15.6C26.9,29-1.1,70.7,0,115.1c1.1,42.2,28.5,83.2,68.9,100c12.9,5.4,26.6,6.7,40,6.7
			c28.9,0,57.8-11.1,80-33.3l-40-35.6C135.6,168.5,109.3,172,88.9,164.1z"/>
	</g>
	<g>
		<path class="st0" d="M559.4,3.7h-34.2h-51.3v213.8h51.3v-57.7h34.2c42.8,0,76.9-36.3,76.9-79.1S602.2,3.7,559.4,3.7z M559.4,108.5
			h-34.2V55h34.2c12.8,0,25.6,10.7,25.6,25.6S572.2,108.5,559.4,108.5z"/>
	</g>
	<g>
		<polygon class="st0" points="732.5,124.6 732.6,3.7 681.2,3.7 681.2,217.5 728.3,217.5 811.7,95.6 811.7,217.5 863,217.5 863,3.7 
			815.9,3.7 		"/>
	</g>
</g>
</svg>
