<?xml version="1.0" encoding="utf-8"?>
<!-- Generator: Adobe Illustrator 23.0.1, SVG Export Plug-In . SVG Version: 6.00 Build 0)  -->
<svg version="1.1" id="Layer_1" xmlns="http://www.w3.org/2000/svg" xmlns:xlink="http://www.w3.org/1999/xlink" x="0px" y="0px"
	 viewBox="0 0 635 311" style="enable-background:new 0 0 635 311;" xml:space="preserve">
<style type="text/css">
	.st0{clip-path:url(#SVGID_2_);}
	.st1{fill:#FD3401;}
	.st2{fill:#6EBDE5;}
	.st3{fill:#D16D9E;}
	.st4{fill:#FFFFFF;}
</style>
<g>
	<defs>
		<rect id="SVGID_1_" width="635" height="311"/>
	</defs>
	<use xlink:href="#SVGID_1_"  style="overflow:visible;fill:#56174F;"/>
	<clipPath id="SVGID_2_">
		<use xlink:href="#SVGID_1_"  style="overflow:visible;"/>
	</clipPath>
	<g class="st0">
		<g>
			<path class="st1" d="M838.81,213.78L838.81,213.78c-0.04-12.98-10.6-23.47-23.58-23.43l-454.26,1.39
				c-12.98,0.04-23.47,10.6-23.43,23.58v0c0.04,12.98,10.6,23.47,23.58,23.43l454.26-1.39
				C828.36,237.32,838.85,226.76,838.81,213.78z"/>
		</g>
		<path class="st2" d="M323.79,187.8L323.79,187.8c-77.07-25.73-156.74-23.66-233.14,6.06l-55.26,21.49
			c-0.59,0.23-0.59,1.58,0.01,1.8l55.39,21.15c76.58,29.25,156.26,30.83,233.17,4.63l0,0C342.64,236.56,342.51,194.05,323.79,187.8z
			"/>
	</g>
	<g class="st0">
		<g>
			<path class="st3" d="M-21.06,181.37L-140.58,61.9c-27.87-27.86-27.87-73.03,0-100.88s73.06-27.86,100.93,0l18.6,18.59l18.6-18.59
				c27.87-27.86,73.06-27.86,100.93,0s27.87,73.03,0,100.88L-21.06,181.37z"/>
		</g>
	</g>
</g>
<g>
	<path class="st4" d="M114.34,193.1l-18.36-28.58h-5.06v28.58H72.66v-73.83h18.25v28.48h4.64l17.3-28.48h21.21l-24.06,36.7
		l24.48,37.12H114.34z"/>
	<path class="st4" d="M175.37,119.27c13.72,0,24.69,10.97,24.69,24.79s-10.97,25.42-24.69,25.42h-13.72v23.62h-17.73v-73.83H175.37z
		 M175.37,153.02c4.12,0,8.23-4.11,8.23-8.96c0-4.75-4.11-8.23-8.23-8.23h-13.72v17.19H175.37z"/>
	<path class="st4" d="M262.8,193.1l-5.7-13.61h-31.97l-5.7,13.61h-18.46l30.92-73.83h18.46l30.92,73.83H262.8z M231.25,164.83h19.73
		l-9.81-23.52L231.25,164.83z"/>
	<path class="st4" d="M338.18,172.01l12.56,11.29c-7.81,7.8-17.73,11.6-27.75,11.6c-4.75,0-9.6-0.42-13.93-2.32
		c-14.03-5.7-23.64-19.93-23.95-34.8c-0.42-15.4,9.39-29.85,22.47-36.07c14.03-6.86,30.07-3.9,41.47,5.27l-10.13,13.5
		c-6.75-5.7-16.67-6.75-24.06-3.16c-6.65,3.06-12.56,11.5-12.56,19.72c0,8.33,6.01,16.35,13.4,19.3
		C323.3,179.18,333.01,177.91,338.18,172.01z"/>
	<path class="st4" d="M394.81,117.69c21.21,0,38.62,17.4,38.62,38.5c0,21.3-17.41,38.6-38.62,38.6c-21.31,0-38.62-17.3-38.62-38.6
		C356.19,135.09,373.49,117.69,394.81,117.69z M394.81,177.28c11.5,0,21-9.49,21-21.09s-9.5-20.99-21-20.99
		c-11.61,0-21,9.39-21,20.99S383.2,177.28,394.81,177.28z"/>
	<path class="st4" d="M502.76,119.27v16.77h-22.47v57.06h-18.46v-57.06h-22.58v-16.77H502.76z"/>
	<path class="st4" d="M563.17,193.1l-5.7-13.61h-31.97l-5.7,13.61h-18.46l30.92-73.83h18.46l30.92,73.83H563.17z M531.63,164.83
		h19.73l-9.81-23.52L531.63,164.83z"/>
</g>
</svg>
