<?xml version="1.0" encoding="utf-8"?>
<!-- Generator: Adobe Illustrator 23.0.1, SVG Export Plug-In . SVG Version: 6.00 Build 0)  -->
<svg version="1.1" id="Layer_1" xmlns="http://www.w3.org/2000/svg" xmlns:xlink="http://www.w3.org/1999/xlink" x="0px" y="0px"
	 viewBox="0 0 380.2 64.1" style="enable-background:new 0 0 380.2 64.1;" xml:space="preserve">
<g>
	<path d="M0,56.8l3.6-11.2c9.2,6.8,29.7,10.1,29.7-0.8c0-3.7-3.1-6.3-6.3-6.3H13.2l-0.3-12.4h12.9c3.2,0,6.5-2.5,6.5-6.4
		c0-9-17.6-8.2-27.4-1.8L1.8,5.7c19.3-11,44.2-5.8,44,14.1c0,4.5-1.7,8.4-4.4,11.5c3.8,3.2,6,7.9,6,13.5C47.7,64.9,18.3,70,0,56.8z"
		/>
	<path d="M100,1.5h15.3v61.1H100V39.3H78v23.3H62.7V1.5H78v23.9h22V1.5z"/>
	<path d="M177.9,62.6l-4.7-11.3h-26.5L142,62.6h-15.3l25.6-61.1h15.3l25.6,61.1H177.9z M151.8,39.2h16.3L160,19.7L151.8,39.2z"/>
	<path d="M241.9,1.5h15.3v61.1h-15.3V39.3h-22v23.3h-15.3V1.5h15.3v23.9h22V1.5z"/>
	<path d="M310.4,1.5h15.2v61.1h-15.2V28.1l-21.1,34.5h-15.1V1.5h15.2l-0.1,34.5L310.4,1.5z"/>
	<path d="M357.8,14.6v9.9h22.4v13h-22.4v11.7h22.3v13.3h-37.5V1.5h37.6v13.2H357.8z"/>
</g>
</svg>
