<?xml version="1.0" encoding="utf-8"?>
<!-- Generator: Adobe Illustrator 23.0.1, SVG Export Plug-In . SVG Version: 6.00 Build 0)  -->
<svg version="1.1" id="Layer_1" xmlns="http://www.w3.org/2000/svg" xmlns:xlink="http://www.w3.org/1999/xlink" x="0px" y="0px"
	 viewBox="0 0 496.57 20.24" style="enable-background:new 0 0 496.57 20.24;" xml:space="preserve">
<g>
	<path d="M15.45,3.15h3.67v14.7H0.84V3.15h3.67v11.4h3.63V3.15h3.67v11.4h3.63V3.15z"/>
	<path d="M29.93,17.85l-3.65-5.69h-1.01v5.69h-3.63V3.15h3.63v5.67h0.92l3.44-5.67h4.22l-4.79,7.31l4.87,7.39H29.93z"/>
	<path d="M42.11,2.84c4.22,0,7.68,3.46,7.68,7.66c0,4.24-3.46,7.68-7.68,7.68c-4.24,0-7.68-3.44-7.68-7.68
		C34.42,6.3,37.87,2.84,42.11,2.84z M42.11,14.7c2.29,0,4.18-1.89,4.18-4.2s-1.89-4.18-4.18-4.18c-2.31,0-4.18,1.87-4.18,4.18
		S39.8,14.7,42.11,14.7z"/>
	<path d="M65.3,17.85h-3.67l-3.82-9.93l-3.84,9.93h-3.67l5.67-14.7h3.67L65.3,17.85z"/>
	<path d="M78.83,17.85l-1.13-2.71h-6.36l-1.13,2.71h-3.67l6.15-14.7h3.67l6.15,14.7H78.83z M72.55,12.22h3.93l-1.95-4.68
		L72.55,12.22z"/>
	<path d="M107.35,14.57v5.67h-3.17v-2.39H93.87v2.39H90.7v-5.67h1.89L97,3.15h3.67l4.41,11.42H107.35z M96.26,14.57h5.14l-2.56-6.66
		L96.26,14.57z"/>
	<path d="M112.35,6.32v2.39h5.38v3.13h-5.38v2.81h5.35v3.19h-9.03V3.15h9.05v3.17H112.35z"/>
	<path d="M131.78,3.15v3.34h-4.47v11.36h-3.67V6.49h-4.49V3.15H131.78z"/>
	<path d="M143.21,13.65l2.5,2.25c-1.55,1.55-3.53,2.31-5.52,2.31c-0.94,0-1.91-0.08-2.77-0.46c-2.79-1.13-4.7-3.97-4.77-6.93
		c-0.08-3.06,1.87-5.94,4.47-7.18c2.79-1.37,5.98-0.78,8.25,1.05l-2.02,2.69c-1.34-1.13-3.32-1.34-4.79-0.63
		c-1.32,0.61-2.5,2.29-2.5,3.93c0,1.66,1.2,3.25,2.67,3.84C140.25,15.08,142.19,14.83,143.21,13.65z"/>
	<path d="M155.6,17.85l-3.65-5.69h-1.01v5.69h-3.63V3.15h3.63v5.67h0.92l3.44-5.67h4.22l-4.79,7.31l4.87,7.39H155.6z"/>
	<path d="M167.78,2.84c4.22,0,7.68,3.46,7.68,7.66c0,4.24-3.46,7.68-7.68,7.68c-4.24,0-7.68-3.44-7.68-7.68
		C160.09,6.3,163.53,2.84,167.78,2.84z M167.78,14.7c2.29,0,4.18-1.89,4.18-4.2s-1.89-4.18-4.18-4.18c-2.31,0-4.18,1.87-4.18,4.18
		S165.47,14.7,167.78,14.7z"/>
	<path d="M186.58,3.15v3.32h-5.61v11.38h-3.65V3.15H186.58z"/>
	<path d="M194.98,2.84c4.22,0,7.68,3.46,7.68,7.66c0,4.24-3.46,7.68-7.68,7.68c-4.24,0-7.68-3.44-7.68-7.68
		C187.29,6.3,190.74,2.84,194.98,2.84z M194.98,14.7c2.29,0,4.18-1.89,4.18-4.2s-1.89-4.18-4.18-4.18c-2.31,0-4.18,1.87-4.18,4.18
		S192.67,14.7,194.98,14.7z"/>
	<path d="M219.99,3.15h3.65v14.7h-3.65V9.56l-5.08,8.29h-3.63V3.15h3.65l-0.02,8.29L219.99,3.15z"/>
	<path d="M252.77,10.5c0,4.24-3.38,7.68-7.52,7.68c-3.61,0-6.63-2.6-7.37-6.07h-1.53v5.73h-3.67V3.15h3.67v5.88h1.51
		c0.67-3.51,3.74-6.19,7.39-6.19C249.39,2.84,252.77,6.3,252.77,10.5z M249.18,10.5c0-2.23-1.76-4.01-3.93-4.01
		c-2.18,0-3.95,1.78-3.95,4.01s1.76,4.03,3.95,4.03C247.41,14.53,249.18,12.73,249.18,10.5z"/>
	<path d="M263.82,3.15h3.67v14.7h-3.67v-5.61h-5.29v5.61h-3.67V3.15h3.67v5.75h5.29V3.15z"/>
	<path d="M277.03,2.84c4.22,0,7.69,3.46,7.69,7.66c0,4.24-3.46,7.68-7.69,7.68c-4.24,0-7.68-3.44-7.68-7.68
		C269.35,6.3,272.79,2.84,277.03,2.84z M277.03,14.7c2.29,0,4.18-1.89,4.18-4.2s-1.89-4.18-4.18-4.18c-2.31,0-4.18,1.87-4.18,4.18
		S274.72,14.7,277.03,14.7z"/>
	<path d="M301.19,3.15h3.67v14.7h-18.29V3.15h3.67v11.4h3.63V3.15h3.67v11.4h3.63V3.15z"/>
	<path d="M311.05,6.32v2.39h5.38v3.13h-5.38v2.81h5.35v3.19h-9.03V3.15h9.05v3.17H311.05z"/>
	<path d="M328.83,13.65l2.5,2.25c-1.55,1.55-3.53,2.31-5.52,2.31c-0.95,0-1.91-0.08-2.77-0.46c-2.79-1.13-4.7-3.97-4.77-6.93
		c-0.08-3.06,1.87-5.94,4.47-7.18c2.79-1.37,5.98-0.78,8.25,1.05l-2.02,2.69c-1.34-1.13-3.32-1.34-4.79-0.63
		c-1.32,0.61-2.5,2.29-2.5,3.93c0,1.66,1.2,3.25,2.67,3.84C325.87,15.08,327.81,14.83,328.83,13.65z"/>
	<path d="M341.22,17.85l-3.65-5.69h-1.01v5.69h-3.63V3.15h3.63v5.67h0.92l3.44-5.67h4.22l-4.79,7.31l4.87,7.39H341.22z"/>
	<path d="M353.4,2.84c4.22,0,7.69,3.46,7.69,7.66c0,4.24-3.46,7.68-7.69,7.68c-4.24,0-7.68-3.44-7.68-7.68
		C345.71,6.3,349.16,2.84,353.4,2.84z M353.4,14.7c2.29,0,4.18-1.89,4.18-4.2s-1.89-4.18-4.18-4.18c-2.31,0-4.18,1.87-4.18,4.18
		S351.09,14.7,353.4,14.7z"/>
	<path d="M372.2,3.15v3.32h-5.61v11.38h-3.65V3.15H372.2z"/>
	<path d="M380.6,2.84c4.22,0,7.69,3.46,7.69,7.66c0,4.24-3.46,7.68-7.69,7.68c-4.24,0-7.68-3.44-7.68-7.68
		C372.92,6.3,376.36,2.84,380.6,2.84z M380.6,14.7c2.29,0,4.18-1.89,4.18-4.2s-1.89-4.18-4.18-4.18c-2.31,0-4.18,1.87-4.18,4.18
		S378.29,14.7,380.6,14.7z"/>
	<path d="M403.15,3.15c2.73,0,4.91,2.18,4.91,4.93c0,2.75-2.18,5.06-4.91,5.06h-2.73v4.7h-3.53V3.15H403.15z M403.15,9.87
		c0.82,0,1.64-0.82,1.64-1.78c0-0.95-0.82-1.64-1.64-1.64h-2.73v3.42H403.15z"/>
	<path d="M413.45,6.32v2.39h5.38v3.13h-5.38v2.81h5.35v3.19h-9.03V3.15h9.05v3.17H413.45z"/>
	<path d="M432.23,3.15h3.63v14.7h-3.63V9.3l-3.67,5.04l-3.7-5.08v8.59h-3.61V3.15h3.61l3.7,5.23L432.23,3.15z"/>
	<path d="M442.03,6.32v2.39h5.38v3.13h-5.38v2.81h5.35v3.19h-9.03V3.15h9.05v3.17H442.03z"/>
	<path d="M459.82,13.65l2.5,2.25c-1.55,1.55-3.53,2.31-5.52,2.31c-0.95,0-1.91-0.08-2.77-0.46c-2.79-1.13-4.7-3.97-4.77-6.93
		c-0.08-3.06,1.87-5.94,4.47-7.18c2.79-1.37,5.98-0.78,8.25,1.05l-2.02,2.69c-1.34-1.13-3.32-1.34-4.79-0.63
		c-1.32,0.61-2.5,2.29-2.5,3.93c0,1.66,1.2,3.25,2.67,3.84C456.85,15.08,458.79,14.83,459.82,13.65z"/>
	<path d="M478.42,17.85h-3.67l-3.82-9.93l-3.84,9.93h-3.67l5.67-14.7h3.67L478.42,17.85z"/>
	<path d="M491.94,17.85l-1.13-2.71h-6.36l-1.13,2.71h-3.67l6.15-14.7h3.67l6.15,14.7H491.94z M485.67,12.22h3.93l-1.95-4.68
		L485.67,12.22z"/>
</g>
</svg>
