<?xml version="1.0" encoding="utf-8"?>
<!-- Generator: Adobe Illustrator 23.0.1, SVG Export Plug-In . SVG Version: 6.00 Build 0)  -->
<svg version="1.1" id="Layer_1" xmlns="http://www.w3.org/2000/svg" xmlns:xlink="http://www.w3.org/1999/xlink" x="0px" y="0px"
	 width="180.4px" height="239.4px" viewBox="0 0 180.4 239.4" style="enable-background:new 0 0 180.4 239.4;" xml:space="preserve"
	>
<style type="text/css">
	.st0{fill:#F2D2CB;}
</style>
<path class="st0" d="M167.8,40.9c-6.9,0.1-12.4,5.4-12.4,11.9v27.6v18.9c0,1.6-1.4,3-3.2,3c-1.7,0-3.1-1.3-3.1-2.9v-19V24.6
	c0-6.5-5.5-11.9-12.4-11.9c-6.9-0.1-12.6,5.2-12.6,11.8v56v18.9c0,1.6-1.4,3-3.2,3c-1.7,0-3.1-1.3-3.1-2.9v-19V11.9
	c0-6.5-5.5-11.9-12.4-11.9C98.6,0,93,5.2,93,11.8v68.6v18.9c0,1.6-1.4,3-3.2,3c-1.7,0-3.1-1.3-3.1-2.9v-19V30.3
	c0-5.9-5.1-10.6-11.3-10.6H73c-6.2,0-11.3,4.8-11.3,10.6v50.1v49.9c0,2.1-2.2,3.5-4.2,2.8c-0.3-0.1-0.6-0.3-0.8-0.4l-40-27.6
	C5.3,99-4.9,110,2.6,120.1l37,51.6c14.1,19.6,21.6,43.3,21.3,67.4l0,0l119.6,0.4v-159V52.7C180.4,46.1,174.8,40.8,167.8,40.9z"/>
</svg>
