<?xml version="1.0" encoding="utf-8"?>
<!-- Generator: Adobe Illustrator 23.0.1, SVG Export Plug-In . SVG Version: 6.00 Build 0)  -->
<svg version="1.1" id="Layer_1" xmlns="http://www.w3.org/2000/svg" xmlns:xlink="http://www.w3.org/1999/xlink" x="0px" y="0px"
	 viewBox="0 0 361.5 91.5" style="enable-background:new 0 0 361.5 91.5;" xml:space="preserve">
<g>
	<path d="M63.1,64.3l14.9,13.4C68.8,87,57,91.5,45.1,91.5c-5.6,0-11.4-0.5-16.6-2.8C11.8,82,0.4,65.1,0,47.4
		C-0.5,29.1,11.2,11.9,26.7,4.5c16.7-8.2,35.8-4.6,49.3,6.3L64,26.8c-8-6.8-19.8-8-28.6-3.8c-7.9,3.6-14.9,13.7-14.9,23.5
		c0,9.9,7.1,19.4,15.9,23C45.4,72.8,57,71.3,63.1,64.3z"/>
	<path d="M139.3,1.6h21.8v87.8h-21.8V39.9l-30.4,49.5H87.2V1.6h21.8l-0.1,49.6L139.3,1.6z"/>
	<path d="M259,89.4h-22l-22.8-59.3l-23,59.3h-22l33.9-87.8h22L259,89.4z"/>
	<path d="M339.5,89.4l-6.8-16.2h-38l-6.8,16.2h-22l36.8-87.8h22l36.8,87.8L339.5,89.4L339.5,89.4z M302,55.8h23.5l-11.7-28L302,55.8
		z"/>
</g>
</svg>
