<?xml version="1.0" encoding="utf-8"?>
<!-- Generator: Adobe Illustrator 23.0.2, SVG Export Plug-In . SVG Version: 6.00 Build 0)  -->
<svg version="1.1" id="Layer_1" xmlns="http://www.w3.org/2000/svg" xmlns:xlink="http://www.w3.org/1999/xlink" x="0px" y="0px"
	 viewBox="0 0 261.29 233.31" style="enable-background:new 0 0 261.29 233.31;" xml:space="preserve">
<style type="text/css">
	.st0{fill:#DB370D;}
	.st1{fill:#ED6DA2;}
	.st2{fill:#56174F;}
	.st3{fill:#FFD71F;}
	.st4{fill:#6EBDE5;}
</style>
<g>
	<g>
		<path class="st0" d="M134.17,203.08L59.8,128.71c-17.34-17.34-17.34-45.45,0-62.8s45.45-17.34,62.8,0l11.57,11.57l11.57-11.57
			c17.34-17.34,45.45-17.34,62.8,0s17.34,45.45,0,62.8L134.17,203.08z"/>
	</g>
</g>
<g>
	<g>
		<path class="st1" d="M235.53,230.61L235.53,230.61c-3.42,3.53-9.06,3.61-12.59,0.19L82.52,94.07c-3.53-3.42-3.61-9.06-0.19-12.59
			l0,0c3.42-3.53,9.06-3.61,12.59-0.19l140.42,136.74C238.87,221.45,238.95,227.08,235.53,230.61z"/>
		<path class="st2" d="M71.35,85.37L71.35,85.37C43.59,72.14,22.43,50.65,9.42,22.48L0.02,2.1c-0.1-0.22,0.25-0.58,0.48-0.49
			l20.65,8.78c28.55,12.15,50.68,32.64,64.74,59.99l0,0C89.31,77.03,78.1,88.59,71.35,85.37z"/>
	</g>
	<g>
		<g>
			<path class="st3" d="M45.61,225.09L45.61,225.09c-6.59-6.25-6.6-16.74-0.02-22.99l110.09-102.03l10.03,9.51L68.67,223.76
				C62.81,230.77,52.24,231.38,45.61,225.09z"/>
		</g>
		<path class="st4" d="M180.33,107.78l80.96-84.69L236.93,0l-80.96,84.69c4.55,4.31,4.74,11.5,0.43,16.05l7.88,7.47
			C168.59,103.66,175.78,103.47,180.33,107.78z"/>
	</g>
</g>
<g>
</g>
<g>
</g>
<g>
</g>
<g>
</g>
<g>
</g>
<g>
</g>
<g>
</g>
<g>
</g>
<g>
</g>
<g>
</g>
<g>
</g>
<g>
</g>
<g>
</g>
<g>
</g>
<g>
</g>
</svg>
