<?xml version="1.0" encoding="utf-8"?>
<!-- Generator: Adobe Illustrator 23.0.1, SVG Export Plug-In . SVG Version: 6.00 Build 0)  -->
<svg version="1.1" id="Layer_1" xmlns="http://www.w3.org/2000/svg" xmlns:xlink="http://www.w3.org/1999/xlink" x="0px" y="0px"
	 viewBox="0 0 1000 1000" style="enable-background:new 0 0 1000 1000;" xml:space="preserve">
<style type="text/css">
	.st0{fill:#FFFFFF;}
</style>
<g>
	<path class="st0" d="M157.1,232.4l-6.3-15.1h-35.5l-6.3,15.1H88.5l34.3-82h20.5l34.3,82L157.1,232.4L157.1,232.4z M122.1,201H144
		l-10.9-26.1L122.1,201z"/>
	<path class="st0" d="M276.6,180c14.4,0,25.9,11.5,25.9,25.8c0,14.4-11.5,26.6-25.9,26.6h-36.7v-82H294v18.3h-33.6V180H276.6z
		 M276,214c3.8,0,7.6-3.6,7.6-8.2c0-4.3-3.9-7.4-7.6-7.4h-15.6V214L276,214L276,214z"/>
	<path class="st0" d="M409,232.4h-39.7v-82h37.4c13.6,0,24.5,10.8,24.5,24.6c0,6.4-2.5,11.6-6.5,15.2c5.4,3.9,8.8,10,8.8,17.6
		C433.6,221.4,422.7,232.3,409,232.4z M388.8,167.1v15.7h17.5c3.9,0,7.9-3.3,7.9-7.9s-4-7.9-7.9-7.9L388.8,167.1L388.8,167.1z
		 M409,216c4.1,0,8.2-3.4,8.2-8.2c0-4.8-4.1-8.2-8.2-8.2h-20.3V216L409,216L409,216z"/>
	<path class="st0" d="M553.1,150.3v18.5h-31.3v63.5h-20.4v-82H553.1z"/>
	<path class="st0" d="M696.5,214.1v31.6h-17.7v-13.4h-57.5v13.4h-17.7v-31.6H614l24.6-63.8h20.5l24.6,63.8H696.5z M634.6,214.1h28.7
		L649,177L634.6,214.1z"/>
	<path class="st0" d="M779.8,168v13.4h30v17.5h-30v15.7h29.9v17.8h-50.4v-82h50.5V168H779.8z"/>
	<path class="st0" d="M111.3,308.7V322h28.8v17.5h-28.8v15.7H140V373H90.8v-82h49.3v17.7L111.3,308.7L111.3,308.7z M98.5,279.3
		c0-3.9,2.3-6.2,6.1-6.2c3.9,0,6.2,2.3,6.2,6.2s-2.3,6.2-6.2,6.2C100.9,285.5,98.5,283.1,98.5,279.3z M118,279.3
		c0-3.9,2.3-6.2,6.2-6.2c3.8,0,6.1,2.3,6.1,6.2s-2.3,6.2-6.1,6.2C120.3,285.5,118,283.1,118,279.3z"/>
	<path class="st0" d="M306.9,373h-22.4l-23.2-30.5V373h-20.4v-32.2L220,373h-21.2l27-43l-26.5-39h22.4l19.3,30.5V291h20.4v28.7
		l21.6-28.7h23.6l-30.9,39L306.9,373z"/>
	<path class="st0" d="M361.6,365.3l4.8-15c12.3,9.1,39.9,13.6,39.9-1c0-4.9-4.2-8.4-8.4-8.4h-18.5l-0.4-16.6h17.4
		c4.3,0,8.7-3.4,8.7-8.6c0-12.1-23.7-11-36.8-2.3l-4.1-16.6c25.9-14.8,59.3-7.7,59.1,19c0,6.1-2.2,11.2-5.9,15.5
		c5,4.3,8.1,10.5,8.1,18.2C425.5,376.2,386,383,361.6,365.3z"/>
	<path class="st0" d="M536.5,291h20.4v82h-20.4v-46.3L508.2,373h-20.3v-82h20.4l-0.1,46.3L536.5,291z"/>
	<path class="st0" d="M670.5,291h20.4v82h-20.4v-46.3L642.2,373h-20.3v-82h20.4l-0.1,46.3L670.5,291z M641.3,277.3h10.9
		c0,2,1.5,3.5,3.5,3.5c1.9,0,3.4-1.5,3.4-3.5h10.9c0,8-6.5,14.4-14.3,14.4C647.8,291.7,641.3,285.2,641.3,277.3z"/>
	<path class="st0" d="M799.8,373l-20.4-31.8h-5.6V373h-20.3v-82h20.3v31.6h5.2l19.2-31.6h23.6L795,331.8l27.2,41.3L799.8,373
		L799.8,373z"/>
	<path class="st0" d="M174.6,513.7h-20.5l-21.3-55.4l-21.4,55.4H90.8l31.7-82H143L174.6,513.7z"/>
	<path class="st0" d="M289.8,431.6h20.3v82h-20.3V466l-20.5,28.1l-20.6-28.4v47.9h-20.2v-82h20.2l20.6,29.2L289.8,431.6z"/>
	<path class="st0" d="M425.1,431.6h20.5v82h-20.5v-31.3h-29.5v31.3H375v-82h20.5v32.1h29.5V431.6z"/>
	<path class="st0" d="M547.5,429.9c23.6,0,42.9,19.3,42.9,42.8c0,23.7-19.3,42.9-42.9,42.9c-23.7,0-42.9-19.2-42.9-42.9
		C504.5,449.2,523.8,429.9,547.5,429.9z M547.5,496.1c12.8,0,23.3-10.5,23.3-23.4s-10.5-23.3-23.3-23.3c-12.9,0-23.3,10.4-23.3,23.3
		S534.6,496.1,547.5,496.1z"/>
	<path class="st0" d="M715.3,431.6v82h-20.5v-63.4h-27.2v63.4h-20.5v-82L715.3,431.6L715.3,431.6z"/>
	<path class="st0" d="M816.6,431.6c15.2,0,27.4,12.2,27.4,27.5s-12.2,28.2-27.4,28.2h-15.2v26.3h-19.7v-82L816.6,431.6L816.6,431.6z
		 M816.6,469.1c4.6,0,9.1-4.6,9.1-10c0-5.3-4.6-9.1-9.1-9.1h-15.2v19.1H816.6z"/>
	<path class="st0" d="M149.8,630.9l13.9,12.5c-8.7,8.7-19.7,12.9-30.8,12.9c-5.3,0-10.7-0.5-15.5-2.6c-15.6-6.3-26.2-22.2-26.6-38.7
		c-0.5-17.1,10.4-33.2,25-40.1c15.6-7.6,33.4-4.3,46.1,5.9l-11.2,15c-7.5-6.3-18.5-7.5-26.7-3.5c-7.4,3.4-13.9,12.8-13.9,21.9
		c0,9.3,6.7,18.2,14.9,21.5C133.2,638.9,144,637.5,149.8,630.9z"/>
	<path class="st0" d="M296.5,572.3v18.6h-25v63.4H251v-63.4h-25.1v-18.6H296.5z"/>
	<path class="st0" d="M418.3,572.4h20.9l-39.6,81.9h-20.9l11-22.7l-30-59.3h20.9l19.3,38.3L418.3,572.4z"/>
	<path class="st0" d="M565.6,579.2c18.5,0,33.4,14.9,33.4,33.5c0,18.8-14.9,34.5-33.4,34.5h-9.3v7.2h-20.5v-7.2h-9.1
		c-18.5,0-33.4-15.7-33.4-34.5c0-18.6,14.9-33.5,33.4-33.5h9.1v-6.9h20.5v6.9H565.6z M535.9,628v-29.4h-9c-7,0-14.1,6-14.1,14.1
		c0,8.2,7,15.3,14.1,15.3L535.9,628L535.9,628z M565.5,628c7,0,14.1-7.2,14.1-15.3c0-8.1-7-14.1-14.1-14.1h-9.1V628L565.5,628
		L565.5,628z"/>
	<path class="st0" d="M677.8,654.3H657l23.1-41l-23.1-41h20.9l14.7,27l13.6-27h20.9l-23.2,41.1l23.1,40.9h-20.9l-14.7-26.8
		L677.8,654.3z"/>
	<path class="st0" d="M859.4,635.8h15.3v27.8h-15.3v-9.3h-68.2v-82h20.5v63.4h27.2v-63.4h20.5V635.8z"/>
	<path class="st0" d="M90.8,713.1h19.7v29.4c0,8,2.6,10.7,9.8,10.7h16.1v-40.2h20.4v82h-20.4v-22.2h-16.1
		c-18.2,0-29.5-11.7-29.5-30.4L90.8,713.1L90.8,713.1z"/>
	<path class="st0" d="M301.5,713H322v82H219.9v-82h20.5v63.6h20.3V713h20.5v63.6h20.3L301.5,713L301.5,713z"/>
	<path class="st0" d="M487.2,776.5h15.2v27.8h-15.4V795H385.2v-82h20.5v63.5H426V713h20.5v63.5h20.2V713h20.5L487.2,776.5
		L487.2,776.5z"/>
	<path class="st0" d="M597.1,739.2c15.2,0,27.4,12.9,27.4,28.2S612.4,795,597.1,795h-34.9v-69h-5.5v-13h25.2v26.2L597.1,739.2
		L597.1,739.2z M597.1,776.6c4.6,0,9.1-3.9,9.1-9.1c0-5.4-4.6-10-9.1-10h-15.2v19.1L597.1,776.6L597.1,776.6z"/>
	<path class="st0" d="M718.5,739.2c15.2,0,27.4,12.9,27.4,28.2S733.8,795,718.5,795h-34.9v-82h19.7v26.2H718.5z M718.5,776.6
		c4.6,0,9.1-3.9,9.1-9.1c0-5.4-4.6-10-9.1-10h-15.2v19.1L718.5,776.6L718.5,776.6z M748.3,713h20.5v82h-20.5V713z"/>
	<path class="st0" d="M866.9,739.2c15.2,0,27.4,12.9,27.4,28.2S882.2,795,866.9,795H832v-82h19.7v26.2H866.9z M866.9,776.6
		c4.6,0,9.1-3.9,9.1-9.1c0-5.4-4.6-10-9.1-10h-15.2v19.1L866.9,776.6L866.9,776.6z"/>
	<path class="st0" d="M163.7,896.4c-0.5,23-18.6,41.2-42.1,41.2c-10.6,0-21.9-3.2-31.2-9.8l4.8-15c6.6,4.8,17.3,7.7,26,7.8
		c10.4-0.5,18.5-6.9,22-15.3h-28.5v-18.8h28.8c-3.4-9.5-12.2-16.4-23.3-16.8c-7.7-0.5-17.5,2-24.4,6.6l-4.1-16.6
		c9.3-5.3,19.6-7.7,28.8-7.6C145.1,852.5,164.3,873.2,163.7,896.4z"/>
	<path class="st0" d="M342.7,894.6c0,23.7-18.9,42.9-42,42.9c-20.2,0-37-14.5-41.1-33.9h-8.6v32h-20.5v-82.1h20.5v32.8h8.4
		c3.8-19.6,20.9-34.6,41.3-34.6C323.9,851.8,342.7,871.2,342.7,894.6z M322.7,894.6c0-12.4-9.9-22.4-21.9-22.4
		c-12.2,0-22,10-22,22.4c0,12.4,9.9,22.5,22,22.5C312.9,917.1,322.7,907,322.7,894.6z"/>
	<path class="st0" d="M467.4,853.6v82h-19.7v-26.2h-8.7l-12.3,26.2h-20.4l14.3-29.1c-9.3-4.6-15.6-14.4-15.6-25.4
		c0-15.3,12.2-27.5,27.4-27.5H467.4z M447.7,891.1V872h-15.2c-4.6,0-9.1,3.9-9.1,9.1c0,5.4,4.6,10,9.1,10L447.7,891.1L447.7,891.1z"
		/>
</g>
<g>
	<path class="st0" d="M136.3,41.2h10.8v43.2H93.4V41.2h10.8v33.5h10.7V41.2h10.8v33.5h10.7V41.2z"/>
	<path class="st0" d="M177.6,41.2c8,0,14.4,6.4,14.4,14.5s-6.4,14.9-14.4,14.9h-8v13.8h-10.4V41.2H177.6z M177.6,61
		c2.4,0,4.8-2.4,4.8-5.2c0-2.8-2.4-4.8-4.8-4.8h-8V61L177.6,61L177.6,61z"/>
	<path class="st0" d="M227.2,41.2h10.7v43.2h-10.7V60.1l-14.9,24.4h-10.7V41.2h10.7l-0.1,24.4L227.2,41.2z"/>
	<path class="st0" d="M285.8,44.9c9.8,0,17.6,7.8,17.6,17.7c0,9.9-7.8,18.1-17.6,18.1h-4.9v3.8h-10.8v-3.8h-4.8
		c-9.8,0-17.6-8.3-17.6-18.2c0-9.8,7.8-17.7,17.6-17.7h4.8v-3.6h10.8v3.6L285.8,44.9L285.8,44.9z M270.1,70.6V55.1h-4.8
		c-3.7,0-7.4,3.2-7.4,7.4c0,4.3,3.7,8.1,7.4,8.1H270.1z M285.8,70.6c3.7,0,7.4-3.8,7.4-8.1c0-4.3-3.7-7.4-7.4-7.4h-4.8v15.5H285.8z"
		/>
	<path class="st0" d="M346.8,41.2v9.8h-13.1v33.4h-10.8V51.1h-13.2v-9.8H346.8z"/>
</g>
</svg>
