<?xml version="1.0" encoding="utf-8"?>
<!-- Generator: Adobe Illustrator 23.0.1, SVG Export Plug-In . SVG Version: 6.00 Build 0)  -->
<svg version="1.1" id="Layer_1" xmlns="http://www.w3.org/2000/svg" xmlns:xlink="http://www.w3.org/1999/xlink" x="0px" y="0px"
	 viewBox="0 0 1000 1000" style="enable-background:new 0 0 1000 1000;" xml:space="preserve">
<style type="text/css">
	.st0{font-family:'ArialMT';}
	.st1{font-size:11.9988px;}
	.st2{fill:#213B6B;}
	.st3{fill:#FFFFFF;}
</style>
<text transform="matrix(1 0 0 1 500.0513 500.3618)" class="st0 st1">vertical-align: bottom</text>
<rect class="st2" width="1000" height="1000"/>
<g>
	<g>
		<g>
			<g>
				<path class="st3" d="M134.97,176.53c-11.47-4.46-20.76-16.87-20.76-29.84c0-12.98,8.96-26.2,19.46-31.14
					c11.56-5.44,27.25-3.89,37.63,5.19l19.46-24.65C171.3,80.51,144.19,75.59,120.7,87c-21.93,10.65-38.29,35.01-37.63,60.98
					c0.63,24.64,16.63,48.56,40.22,58.39c7.57,3.16,15.57,3.89,23.36,3.89c16.87,0,33.74-6.49,46.71-19.46l-23.36-20.76
					C162.22,179.12,146.88,181.16,134.97,176.53z"/>
			</g>
			<path class="st3" d="M238.34,175.31c-11.47-4.46-20.76-16.87-20.76-29.84c0-12.98,8.96-26.2,19.46-31.14
				c11.56-5.44,27.25-3.89,37.63,5.19l19.46-24.65c-19.46-15.57-46.58-20.49-70.07-9.08c-21.93,10.65-38.29,35.01-37.63,60.98
				c0.63,24.64,16.63,48.56,40.22,58.39c7.57,3.16,15.57,3.89,23.36,3.89c16.87,0,33.74-6.49,46.71-19.46l-23.36-20.76
				C265.59,177.91,250.25,179.95,238.34,175.31z"/>
			<path class="st3" d="M341.71,174.1c-11.47-4.46-20.76-16.87-20.76-29.84c0-12.98,8.96-26.2,19.46-31.14
				c11.56-5.44,27.25-3.89,37.63,5.19l19.46-24.65c-19.46-15.57-46.58-20.49-70.07-9.08c-21.93,10.65-38.29,35.01-37.63,60.98
				c0.63,24.64,16.63,48.56,40.22,58.39c7.58,3.16,15.57,3.89,23.36,3.89c16.87,0,33.74-6.49,46.71-19.46l-23.36-20.76
				C368.96,176.7,353.62,178.73,341.71,174.1z"/>
			<path class="st3" d="M445.08,172.89c-11.47-4.46-20.76-16.87-20.76-29.84c0-12.98,8.96-26.2,19.46-31.14
				c11.56-5.44,27.25-3.89,37.63,5.19l19.46-24.65c-19.46-15.57-46.58-20.49-70.07-9.08c-21.93,10.65-38.29,35.01-37.63,60.98
				c0.63,24.64,16.63,48.56,40.22,58.39c7.57,3.16,15.57,3.89,23.36,3.89c16.87,0,33.74-6.49,46.71-19.46l-23.36-20.76
				C472.33,175.48,456.99,177.52,445.08,172.89z"/>
			<path class="st3" d="M548.45,171.68c-11.47-4.46-20.76-16.87-20.76-29.84c0-12.98,8.96-26.2,19.46-31.14
				c11.56-5.44,27.25-3.89,37.63,5.19l19.46-24.65c-19.46-15.57-46.58-20.49-70.07-9.08c-21.93,10.65-38.29,35.01-37.63,60.98
				c0.63,24.64,16.63,48.56,40.22,58.39c7.58,3.16,15.57,3.89,23.36,3.89c16.87,0,33.74-6.49,46.71-19.46l-23.36-20.76
				C575.7,174.27,560.36,176.31,548.45,171.68z"/>
			<path class="st3" d="M651.82,170.46c-11.47-4.46-20.76-16.87-20.76-29.84s8.96-26.2,19.46-31.14
				c11.56-5.44,27.25-3.89,37.63,5.19l19.46-24.65c-19.46-15.57-46.58-20.49-70.07-9.08c-21.93,10.65-38.29,35.01-37.63,60.98
				c0.63,24.64,16.63,48.56,40.22,58.39c7.58,3.16,15.57,3.89,23.36,3.89c16.87,0,33.74-6.49,46.71-19.46l-23.36-20.76
				C679.07,173.06,663.73,175.09,651.82,170.46z"/>
			<path class="st3" d="M755.19,169.25c-11.47-4.46-20.76-16.87-20.76-29.84s8.96-26.2,19.46-31.14
				c11.56-5.44,27.25-3.89,37.63,5.19l19.46-24.65c-19.46-15.57-46.58-20.49-70.07-9.08c-21.93,10.65-38.29,35.01-37.63,60.98
				c0.63,24.64,16.63,48.56,40.22,58.39c7.58,3.16,15.57,3.89,23.36,3.89c16.87,0,33.74-6.49,46.71-19.46l-23.36-20.76
				C782.44,171.84,767.1,173.88,755.19,169.25z"/>
			<g>
				<path class="st3" d="M858.56,168.04c-11.47-4.46-20.76-16.87-20.76-29.84s8.96-26.2,19.46-31.14
					c11.56-5.44,27.25-3.89,37.63,5.19l19.46-24.65c-19.46-15.57-46.58-20.49-70.07-9.08c-21.93,10.65-38.29,35.01-37.63,60.98
					c0.63,24.64,16.63,48.56,40.22,58.39c7.58,3.16,15.57,3.89,23.36,3.89c16.87,0,33.74-6.49,46.71-19.46l-23.36-20.76
					C885.81,170.63,870.47,172.67,858.56,168.04z"/>
			</g>
		</g>
		<g>
			<path class="st3" d="M134.97,320.24c-11.47-4.46-20.76-16.87-20.76-29.84s8.96-26.2,19.46-31.14
				c11.56-5.44,27.25-3.89,37.63,5.19l19.46-24.65c-19.46-15.57-46.58-20.49-70.07-9.08c-21.93,10.65-38.29,35.01-37.63,60.98
				c0.63,24.64,16.63,48.56,40.22,58.39c7.57,3.16,15.57,3.89,23.36,3.89c16.87,0,33.74-6.49,46.71-19.46l-23.36-20.76
				C162.22,322.83,146.88,324.87,134.97,320.24z"/>
			<path class="st3" d="M238.34,319.03c-11.47-4.46-20.76-16.87-20.76-29.84c0-12.98,8.96-26.2,19.46-31.14
				c11.56-5.44,27.25-3.89,37.63,5.19l19.46-24.65c-19.46-15.57-46.58-20.49-70.07-9.08c-21.93,10.65-38.29,35.01-37.63,60.98
				c0.63,24.64,16.63,48.56,40.22,58.39c7.57,3.16,15.57,3.89,23.36,3.89c16.87,0,33.74-6.49,46.71-19.46l-23.36-20.76
				C265.59,321.62,250.25,323.66,238.34,319.03z"/>
			<path class="st3" d="M341.71,317.81c-11.47-4.46-20.76-16.87-20.76-29.84s8.96-26.2,19.46-31.14
				c11.56-5.44,27.25-3.89,37.63,5.19l19.46-24.65c-19.46-15.57-46.58-20.49-70.07-9.08c-21.93,10.65-38.29,35.01-37.63,60.98
				c0.63,24.64,16.63,48.56,40.22,58.39c7.58,3.16,15.57,3.89,23.36,3.89c16.87,0,33.74-6.49,46.71-19.46l-23.36-20.76
				C368.96,320.41,353.62,322.44,341.71,317.81z"/>
			<path class="st3" d="M445.08,316.6c-11.47-4.46-20.76-16.87-20.76-29.84s8.96-26.2,19.46-31.14c11.56-5.44,27.25-3.89,37.63,5.19
				l19.46-24.65c-19.46-15.57-46.58-20.49-70.07-9.08c-21.93,10.65-38.29,35.01-37.63,60.98c0.63,24.64,16.63,48.56,40.22,58.39
				c7.57,3.16,15.57,3.89,23.36,3.89c16.87,0,33.74-6.49,46.71-19.46l-23.36-20.76C472.33,319.19,456.99,321.23,445.08,316.6z"/>
			<path class="st3" d="M548.45,315.39c-11.47-4.46-20.76-16.87-20.76-29.84c0-12.98,8.96-26.2,19.46-31.14
				c11.56-5.44,27.25-3.89,37.63,5.19l19.46-24.65c-19.46-15.57-46.58-20.49-70.07-9.08c-21.93,10.65-38.29,35.01-37.63,60.98
				c0.63,24.64,16.63,48.56,40.22,58.39c7.58,3.16,15.57,3.89,23.36,3.89c16.87,0,33.74-6.49,46.71-19.46l-23.36-20.76
				C575.7,317.98,560.36,320.02,548.45,315.39z"/>
			<path class="st3" d="M651.82,314.17c-11.47-4.46-20.76-16.87-20.76-29.84s8.96-26.2,19.46-31.14
				c11.56-5.44,27.25-3.89,37.63,5.19l19.46-24.65c-19.46-15.57-46.58-20.49-70.07-9.08c-21.93,10.65-38.29,35.01-37.63,60.98
				c0.63,24.64,16.63,48.56,40.22,58.39c7.58,3.16,15.57,3.89,23.36,3.89c16.87,0,33.74-6.49,46.71-19.46l-23.36-20.76
				C679.07,316.77,663.73,318.81,651.82,314.17z"/>
			<path class="st3" d="M755.19,312.96c-11.47-4.46-20.76-16.87-20.76-29.84c0-12.98,8.96-26.2,19.46-31.14
				c11.56-5.44,27.25-3.89,37.63,5.19l19.46-24.65c-19.46-15.57-46.58-20.49-70.07-9.08c-21.93,10.65-38.29,35.01-37.63,60.98
				c0.63,24.64,16.63,48.56,40.22,58.39c7.58,3.16,15.57,3.89,23.36,3.89c16.87,0,33.74-6.49,46.71-19.46l-23.36-20.76
				C782.44,315.56,767.1,317.59,755.19,312.96z"/>
			<path class="st3" d="M858.56,311.75c-11.47-4.46-20.76-16.87-20.76-29.84s8.96-26.2,19.46-31.14
				c11.56-5.44,27.25-3.89,37.63,5.19l19.46-24.65c-19.46-15.57-46.58-20.49-70.07-9.08c-21.93,10.65-38.29,35.01-37.63,60.98
				c0.63,24.64,16.63,48.56,40.22,58.39c7.58,3.16,15.57,3.89,23.36,3.89c16.87,0,33.74-6.49,46.71-19.46l-23.36-20.76
				C885.81,314.34,870.47,316.38,858.56,311.75z"/>
		</g>
		<g>
			<path class="st3" d="M134.97,463.95c-11.47-4.46-20.76-16.87-20.76-29.84c0-12.98,8.96-26.2,19.46-31.14
				c11.56-5.44,27.25-3.89,37.63,5.19l19.46-24.65c-19.46-15.57-46.58-20.49-70.07-9.08c-21.93,10.65-38.29,35.01-37.63,60.98
				c0.63,24.64,16.63,48.56,40.22,58.39c7.57,3.16,15.57,3.89,23.36,3.89c16.87,0,33.74-6.49,46.71-19.46l-23.36-20.76
				C162.22,466.54,146.88,468.58,134.97,463.95z"/>
			<path class="st3" d="M238.34,462.74c-11.47-4.46-20.76-16.87-20.76-29.84s8.96-26.2,19.46-31.14
				c11.56-5.44,27.25-3.89,37.63,5.19l19.46-24.65c-19.46-15.57-46.58-20.49-70.07-9.08c-21.93,10.65-38.29,35.01-37.63,60.98
				c0.63,24.64,16.63,48.56,40.22,58.39c7.57,3.16,15.57,3.89,23.36,3.89c16.87,0,33.74-6.49,46.71-19.46l-23.36-20.76
				C265.59,465.33,250.25,467.37,238.34,462.74z"/>
			<path class="st3" d="M341.71,461.52c-11.47-4.46-20.76-16.87-20.76-29.84c0-12.98,8.96-26.2,19.46-31.14
				c11.56-5.44,27.25-3.89,37.63,5.19l19.46-24.65c-19.46-15.57-46.58-20.49-70.07-9.08c-21.93,10.65-38.29,35.01-37.63,60.98
				c0.63,24.64,16.63,48.56,40.22,58.39c7.58,3.16,15.57,3.89,23.36,3.89c16.87,0,33.74-6.49,46.71-19.46l-23.36-20.76
				C368.96,464.12,353.62,466.15,341.71,461.52z"/>
			<path class="st3" d="M445.08,460.31c-11.47-4.46-20.76-16.87-20.76-29.84s8.96-26.2,19.46-31.14
				c11.56-5.44,27.25-3.89,37.63,5.19l19.46-24.65c-19.46-15.57-46.58-20.49-70.07-9.08c-21.93,10.65-38.29,35.01-37.63,60.98
				c0.63,24.64,16.63,48.56,40.22,58.39c7.57,3.16,15.57,3.89,23.36,3.89c16.87,0,33.74-6.49,46.71-19.46l-23.36-20.76
				C472.33,462.91,456.99,464.94,445.08,460.31z"/>
			<path class="st3" d="M548.45,459.1c-11.47-4.46-20.76-16.87-20.76-29.84c0-12.98,8.96-26.2,19.46-31.14
				c11.56-5.44,27.25-3.89,37.63,5.19l19.46-24.65c-19.46-15.57-46.58-20.49-70.07-9.08c-21.93,10.65-38.29,35.01-37.63,60.98
				c0.63,24.64,16.63,48.56,40.22,58.39c7.58,3.16,15.57,3.89,23.36,3.89c16.87,0,33.74-6.49,46.71-19.46l-23.36-20.76
				C575.7,461.69,560.36,463.73,548.45,459.1z"/>
			<path class="st3" d="M651.82,457.88c-11.47-4.46-20.76-16.87-20.76-29.84s8.96-26.2,19.46-31.14
				c11.56-5.44,27.25-3.89,37.63,5.19l19.46-24.65c-19.46-15.57-46.58-20.49-70.07-9.08c-21.93,10.65-38.29,35.01-37.63,60.98
				c0.63,24.64,16.63,48.56,40.22,58.39c7.58,3.16,15.57,3.89,23.36,3.89c16.87,0,33.74-6.49,46.71-19.46l-23.36-20.76
				C679.07,460.48,663.73,462.52,651.82,457.88z"/>
			<path class="st3" d="M755.19,456.67c-11.47-4.46-20.76-16.87-20.76-29.84c0-12.98,8.96-26.2,19.46-31.14
				c11.56-5.44,27.25-3.89,37.63,5.19l19.46-24.65c-19.46-15.57-46.58-20.49-70.07-9.08c-21.93,10.65-38.29,35.01-37.63,60.98
				c0.63,24.64,16.63,48.56,40.22,58.39c7.58,3.16,15.57,3.89,23.36,3.89c16.87,0,33.74-6.49,46.71-19.46l-23.36-20.76
				C782.44,459.27,767.1,461.3,755.19,456.67z"/>
			<path class="st3" d="M858.56,455.46c-11.47-4.46-20.76-16.87-20.76-29.84c0-12.98,8.96-26.2,19.46-31.14
				c11.56-5.44,27.25-3.89,37.63,5.19l19.46-24.65c-19.46-15.57-46.58-20.49-70.07-9.08c-21.93,10.65-38.29,35.01-37.63,60.98
				c0.63,24.64,16.63,48.56,40.22,58.39c7.58,3.16,15.57,3.89,23.36,3.89c16.87,0,33.74-6.49,46.71-19.46l-23.36-20.76
				C885.81,458.05,870.47,460.09,858.56,455.46z"/>
		</g>
	</g>
	<g>
		<g>
			<g>
				<path class="st3" d="M134.97,606.58c-11.47-4.46-20.76-16.87-20.76-29.84c0-12.98,8.96-26.2,19.46-31.14
					c11.56-5.44,27.25-3.89,37.63,5.19l19.46-24.65c-19.46-15.57-46.58-20.49-70.07-9.08c-21.93,10.65-38.29,35.01-37.63,60.98
					c0.63,24.64,16.63,48.56,40.22,58.39c7.57,3.16,15.57,3.89,23.36,3.89c16.87,0,33.74-6.49,46.71-19.46l-23.36-20.76
					C162.22,609.17,146.88,611.21,134.97,606.58z"/>
			</g>
			<path class="st3" d="M238.34,605.37c-11.47-4.46-20.76-16.87-20.76-29.84s8.96-26.2,19.46-31.14
				c11.56-5.44,27.25-3.89,37.63,5.19l19.46-24.65c-19.46-15.57-46.58-20.49-70.07-9.08c-21.93,10.65-38.29,35.01-37.63,60.98
				c0.63,24.64,16.63,48.56,40.22,58.39c7.57,3.16,15.57,3.89,23.36,3.89c16.87,0,33.74-6.49,46.71-19.46l-23.36-20.76
				C265.59,607.96,250.25,610,238.34,605.37z"/>
			<path class="st3" d="M341.71,604.15c-11.47-4.46-20.76-16.87-20.76-29.84s8.96-26.2,19.46-31.14
				c11.56-5.44,27.25-3.89,37.63,5.19l19.46-24.65c-19.46-15.57-46.58-20.49-70.07-9.08c-21.93,10.65-38.29,35.01-37.63,60.98
				c0.63,24.64,16.63,48.56,40.22,58.39c7.58,3.16,15.57,3.89,23.36,3.89c16.87,0,33.74-6.49,46.71-19.46l-23.36-20.76
				C368.96,606.75,353.62,608.79,341.71,604.15z"/>
			<path class="st3" d="M445.08,602.94c-11.47-4.46-20.76-16.87-20.76-29.84s8.96-26.2,19.46-31.14
				c11.56-5.44,27.25-3.89,37.63,5.19l19.46-24.65c-19.46-15.57-46.58-20.49-70.07-9.08c-21.93,10.65-38.29,35.01-37.63,60.98
				c0.63,24.64,16.63,48.56,40.22,58.39c7.57,3.16,15.57,3.89,23.36,3.89c16.87,0,33.74-6.49,46.71-19.46l-23.36-20.76
				C472.33,605.54,456.99,607.57,445.08,602.94z"/>
			<path class="st3" d="M548.45,601.73c-11.47-4.46-20.76-16.87-20.76-29.84c0-12.98,8.96-26.2,19.46-31.14
				c11.56-5.44,27.25-3.89,37.63,5.19l19.46-24.65c-19.46-15.57-46.58-20.49-70.07-9.08c-21.93,10.65-38.29,35.01-37.63,60.98
				c0.63,24.64,16.63,48.56,40.22,58.39c7.58,3.16,15.57,3.89,23.36,3.89c16.87,0,33.74-6.49,46.71-19.46l-23.36-20.76
				C575.7,604.32,560.36,606.36,548.45,601.73z"/>
			<path class="st3" d="M651.82,600.51c-11.47-4.46-20.76-16.87-20.76-29.84s8.96-26.2,19.46-31.14
				c11.56-5.44,27.25-3.89,37.63,5.19l19.46-24.65c-19.46-15.57-46.58-20.49-70.07-9.08c-21.93,10.65-38.29,35.01-37.63,60.98
				c0.63,24.64,16.63,48.56,40.22,58.39c7.58,3.16,15.57,3.89,23.36,3.89c16.87,0,33.74-6.49,46.71-19.46l-23.36-20.76
				C679.07,603.11,663.73,605.15,651.82,600.51z"/>
			<path class="st3" d="M755.19,599.3c-11.47-4.46-20.76-16.87-20.76-29.84s8.96-26.2,19.46-31.14c11.56-5.44,27.25-3.89,37.63,5.19
				l19.46-24.65c-19.46-15.57-46.58-20.49-70.07-9.08c-21.93,10.65-38.29,35.01-37.63,60.98c0.63,24.64,16.63,48.56,40.22,58.39
				c7.58,3.16,15.57,3.89,23.36,3.89c16.87,0,33.74-6.49,46.71-19.46l-23.36-20.76C782.44,601.9,767.1,603.93,755.19,599.3z"/>
			<g>
				<path class="st3" d="M858.56,598.09c-11.47-4.46-20.76-16.87-20.76-29.84s8.96-26.2,19.46-31.14
					c11.56-5.44,27.25-3.89,37.63,5.19l19.46-24.65c-19.46-15.57-46.58-20.49-70.07-9.08c-21.93,10.65-38.29,35.01-37.63,60.98
					c0.63,24.64,16.63,48.56,40.22,58.39c7.58,3.16,15.57,3.89,23.36,3.89c16.87,0,33.74-6.49,46.71-19.46l-23.36-20.76
					C885.81,600.68,870.47,602.72,858.56,598.09z"/>
			</g>
		</g>
		<g>
			<path class="st3" d="M134.97,750.29c-11.47-4.46-20.76-16.87-20.76-29.84c0-12.98,8.96-26.2,19.46-31.14
				c11.56-5.44,27.25-3.89,37.63,5.19l19.46-24.65c-19.46-15.57-46.58-20.49-70.07-9.08c-21.93,10.65-38.29,35.01-37.63,60.98
				c0.63,24.64,16.63,48.56,40.22,58.39c7.57,3.16,15.57,3.89,23.36,3.89c16.87,0,33.74-6.49,46.71-19.46l-23.36-20.76
				C162.22,752.89,146.88,754.92,134.97,750.29z"/>
			<path class="st3" d="M238.34,749.08c-11.47-4.46-20.76-16.87-20.76-29.84s8.96-26.2,19.46-31.14
				c11.56-5.44,27.25-3.89,37.63,5.19l19.46-24.65c-19.46-15.57-46.58-20.49-70.07-9.08c-21.93,10.65-38.29,35.01-37.63,60.98
				c0.63,24.64,16.63,48.56,40.22,58.39c7.57,3.16,15.57,3.89,23.36,3.89c16.87,0,33.74-6.49,46.71-19.46l-23.36-20.76
				C265.59,751.67,250.25,753.71,238.34,749.08z"/>
			<path class="st3" d="M341.71,747.86c-11.47-4.46-20.76-16.87-20.76-29.84s8.96-26.2,19.46-31.14
				c11.56-5.44,27.25-3.89,37.63,5.19l19.46-24.65c-19.46-15.57-46.58-20.49-70.07-9.08c-21.93,10.65-38.29,35.01-37.63,60.98
				c0.63,24.64,16.63,48.56,40.22,58.39c7.58,3.16,15.57,3.89,23.36,3.89c16.87,0,33.74-6.49,46.71-19.46l-23.36-20.76
				C368.96,750.46,353.62,752.5,341.71,747.86z"/>
			<path class="st3" d="M445.08,746.65c-11.47-4.46-20.76-16.87-20.76-29.84s8.96-26.2,19.46-31.14
				c11.56-5.44,27.25-3.89,37.63,5.19l19.46-24.65c-19.46-15.57-46.58-20.49-70.07-9.08c-21.93,10.65-38.29,35.01-37.63,60.98
				c0.63,24.64,16.63,48.56,40.22,58.39c7.57,3.16,15.57,3.89,23.36,3.89c16.87,0,33.74-6.49,46.71-19.46l-23.36-20.76
				C472.33,749.25,456.99,751.28,445.08,746.65z"/>
			<path class="st3" d="M548.45,745.44c-11.47-4.46-20.76-16.87-20.76-29.84c0-12.98,8.96-26.2,19.46-31.14
				c11.56-5.44,27.25-3.89,37.63,5.19l19.46-24.65c-19.46-15.57-46.58-20.49-70.07-9.08c-21.93,10.65-38.29,35.01-37.63,60.98
				c0.63,24.64,16.63,48.56,40.22,58.39c7.58,3.16,15.57,3.89,23.36,3.89c16.87,0,33.74-6.49,46.71-19.46l-23.36-20.76
				C575.7,748.03,560.36,750.07,548.45,745.44z"/>
			<path class="st3" d="M651.82,744.23c-11.47-4.46-20.76-16.87-20.76-29.84s8.96-26.2,19.46-31.14
				c11.56-5.44,27.25-3.89,37.63,5.19l19.46-24.65c-19.46-15.57-46.58-20.49-70.07-9.08c-21.93,10.65-38.29,35.01-37.63,60.98
				c0.63,24.64,16.63,48.56,40.22,58.39c7.58,3.16,15.57,3.89,23.36,3.89c16.87,0,33.74-6.49,46.71-19.46l-23.36-20.76
				C679.07,746.82,663.73,748.86,651.82,744.23z"/>
			<path class="st3" d="M755.19,743.01c-11.47-4.46-20.76-16.87-20.76-29.84s8.96-26.2,19.46-31.14
				c11.56-5.44,27.25-3.89,37.63,5.19l19.46-24.65c-19.46-15.57-46.58-20.49-70.07-9.08c-21.93,10.65-38.29,35.01-37.63,60.98
				c0.63,24.64,16.63,48.56,40.22,58.39c7.58,3.16,15.57,3.89,23.36,3.89c16.87,0,33.74-6.49,46.71-19.46l-23.36-20.76
				C782.44,745.61,767.1,747.64,755.19,743.01z"/>
			<path class="st3" d="M858.56,741.8c-11.47-4.46-20.76-16.87-20.76-29.84s8.96-26.2,19.46-31.14c11.56-5.44,27.25-3.89,37.63,5.19
				l19.46-24.65c-19.46-15.57-46.58-20.49-70.07-9.08c-21.93,10.65-38.29,35.01-37.63,60.98c0.63,24.64,16.63,48.56,40.22,58.39
				c7.58,3.16,15.57,3.89,23.36,3.89c16.87,0,33.74-6.49,46.71-19.46l-23.36-20.76C885.81,744.39,870.47,746.43,858.56,741.8z"/>
		</g>
		<g>
			<path class="st3" d="M134.97,894c-11.47-4.46-20.76-16.87-20.76-29.84c0-12.98,8.96-26.2,19.46-31.14
				c11.56-5.44,27.25-3.89,37.63,5.19l19.46-24.65c-19.46-15.57-46.58-20.49-70.07-9.08c-21.93,10.65-38.29,35.01-37.63,60.98
				c0.63,24.64,16.63,48.56,40.22,58.39c7.57,3.16,15.57,3.89,23.36,3.89c16.87,0,33.74-6.49,46.71-19.46l-23.36-20.76
				C162.22,896.6,146.88,898.63,134.97,894z"/>
			<path class="st3" d="M238.34,892.79c-11.47-4.46-20.76-16.87-20.76-29.84c0-12.98,8.96-26.2,19.46-31.14
				c11.56-5.44,27.25-3.89,37.63,5.19l19.46-24.65c-19.46-15.57-46.58-20.49-70.07-9.08c-21.93,10.65-38.29,35.01-37.63,60.98
				c0.63,24.64,16.63,48.56,40.22,58.39c7.57,3.16,15.57,3.89,23.36,3.89c16.87,0,33.74-6.49,46.71-19.46l-23.36-20.76
				C265.59,895.38,250.25,897.42,238.34,892.79z"/>
			<path class="st3" d="M341.71,891.58c-11.47-4.46-20.76-16.87-20.76-29.84s8.96-26.2,19.46-31.14
				c11.56-5.44,27.25-3.89,37.63,5.19l19.46-24.65c-19.46-15.57-46.58-20.49-70.07-9.08c-21.93,10.65-38.29,35.01-37.63,60.98
				c0.63,24.64,16.63,48.56,40.22,58.39c7.58,3.16,15.57,3.89,23.36,3.89c16.87,0,33.74-6.49,46.71-19.46l-23.36-20.76
				C368.96,894.17,353.62,896.21,341.71,891.58z"/>
			<path class="st3" d="M445.08,890.36c-11.47-4.46-20.76-16.87-20.76-29.84s8.96-26.2,19.46-31.14
				c11.56-5.44,27.25-3.89,37.63,5.19l19.46-24.65c-19.46-15.57-46.58-20.49-70.07-9.08c-21.93,10.65-38.29,35.01-37.63,60.98
				c0.63,24.64,16.63,48.56,40.22,58.39c7.57,3.16,15.57,3.89,23.36,3.89c16.87,0,33.74-6.49,46.71-19.46l-23.36-20.76
				C472.33,892.96,456.99,894.99,445.08,890.36z"/>
			<path class="st3" d="M548.45,889.15c-11.47-4.46-20.76-16.87-20.76-29.84s8.96-26.2,19.46-31.14
				c11.56-5.44,27.25-3.89,37.63,5.19l19.46-24.65c-19.46-15.57-46.58-20.49-70.07-9.08c-21.93,10.65-38.29,35.01-37.63,60.98
				c0.63,24.64,16.63,48.56,40.22,58.39c7.58,3.16,15.57,3.89,23.36,3.89c16.87,0,33.74-6.49,46.71-19.46l-23.36-20.76
				C575.7,891.74,560.36,893.78,548.45,889.15z"/>
			<path class="st3" d="M651.82,887.94c-11.47-4.46-20.76-16.87-20.76-29.84c0-12.98,8.96-26.2,19.46-31.14
				c11.56-5.44,27.25-3.89,37.63,5.19l19.46-24.65c-19.46-15.57-46.58-20.49-70.07-9.08c-21.93,10.65-38.29,35.01-37.63,60.98
				c0.63,24.64,16.63,48.56,40.22,58.39c7.58,3.16,15.57,3.89,23.36,3.89c16.87,0,33.74-6.49,46.71-19.46l-23.36-20.76
				C679.07,890.53,663.73,892.57,651.82,887.94z"/>
			<path class="st3" d="M755.19,886.72c-11.47-4.46-20.76-16.87-20.76-29.84s8.96-26.2,19.46-31.14
				c11.56-5.44,27.25-3.89,37.63,5.19l19.46-24.65c-19.46-15.57-46.58-20.49-70.07-9.08c-21.93,10.65-38.29,35.01-37.63,60.98
				c0.63,24.64,16.63,48.56,40.22,58.39c7.58,3.16,15.57,3.89,23.36,3.89c16.87,0,33.74-6.49,46.71-19.46l-23.36-20.76
				C782.44,889.32,767.1,891.35,755.19,886.72z"/>
			<path class="st3" d="M858.56,885.51c-11.47-4.46-20.76-16.87-20.76-29.84s8.96-26.2,19.46-31.14
				c11.56-5.44,27.25-3.89,37.63,5.19l19.46-24.65c-19.46-15.57-46.58-20.49-70.07-9.08c-21.93,10.65-38.29,35.01-37.63,60.98
				c0.63,24.64,16.63,48.56,40.22,58.39c7.58,3.16,15.57,3.89,23.36,3.89c16.87,0,33.74-6.49,46.71-19.46l-23.36-20.76
				C885.81,888.11,870.47,890.14,858.56,885.51z"/>
		</g>
	</g>
</g>
</svg>
