<?xml version="1.0" encoding="utf-8"?>
<!-- Generator: Adobe Illustrator 23.0.1, SVG Export Plug-In . SVG Version: 6.00 Build 0)  -->
<svg version="1.1" id="Layer_1" xmlns="http://www.w3.org/2000/svg" xmlns:xlink="http://www.w3.org/1999/xlink" x="0px" y="0px"
	 viewBox="0 0 430.2 52.4" style="enable-background:new 0 0 430.2 52.4;" xml:space="preserve">
<style type="text/css">
	.st0{fill:#00000;}
</style>
<g>
	<path class="st0" d="M51.2,51.2H38.7l-13-33.9L12.5,51.2H0L19.3,1.1h12.5L51.2,51.2z"/>
	<path class="st0" d="M84.1,0c14.4,0,26.2,11.8,26.2,26.1c0,14.5-11.8,26.2-26.2,26.2c-14.5,0-26.2-11.7-26.2-26.2
		C57.9,11.8,69.6,0,84.1,0z M84.1,40.4c7.8,0,14.2-6.4,14.2-14.3s-6.4-14.2-14.2-14.2c-7.9,0-14.2,6.4-14.2,14.2
		C69.9,34,76.2,40.4,84.1,40.4z"/>
	<path class="st0" d="M146.3,51.2h-24.3V1.1h22.8c8.3,0,15,6.6,15,15c0,3.9-1.5,7.1-3.9,9.3c3.3,2.4,5.4,6.1,5.4,10.7
		C161.4,44.5,154.7,51.1,146.3,51.2z M134,11.3v9.6h10.7c2.4,0,4.8-2,4.8-4.8c0-2.8-2.4-4.8-4.8-4.8L134,11.3L134,11.3z M146.3,41.2
		c2.5,0,5-2.1,5-5c0-2.9-2.5-5-5-5H134v10L146.3,41.2L146.3,41.2z"/>
	<path class="st0" d="M202.4,51.2L190,31.8h-3.4v19.4h-12.4V1.1h12.4v19.3h3.1l11.8-19.3h14.4L199.5,26l16.6,25.2L202.4,51.2
		L202.4,51.2z"/>
	<path class="st0" d="M249,0c14.4,0,26.2,11.8,26.2,26.1c0,14.5-11.8,26.2-26.2,26.2c-14.5,0-26.2-11.7-26.2-26.2
		C222.7,11.8,234.5,0,249,0z M249,40.4c7.8,0,14.2-6.4,14.2-14.3s-6.5-14.2-14.2-14.2c-7.9,0-14.2,6.4-14.2,14.2
		C234.7,34,241.1,40.4,249,40.4z"/>
	<path class="st0" d="M321.1,36.9l8.5,7.7c-5.3,5.3-12,7.9-18.8,7.9c-3.2,0-6.5-0.3-9.5-1.6c-9.5-3.9-16-13.5-16.3-23.6
		c-0.3-10.4,6.4-20.3,15.3-24.5c9.5-4.6,20.4-2.6,28.1,3.6l-6.9,9.2c-4.6-3.9-11.3-4.6-16.3-2.1c-4.5,2.1-8.5,7.8-8.5,13.4
		c0,5.7,4.1,11.1,9.1,13.1C311,41.7,317.6,40.9,321.1,36.9z"/>
	<path class="st0" d="M382.1,1.1v11.4h-15.3v38.7h-12.5V12.4H339V1.1H382.1z"/>
	<path class="st0" d="M413.4,17.1c9.3,0,16.8,7.9,16.8,17.2s-7.5,16.8-16.8,16.8h-21.3V1.1h12v16L413.4,17.1L413.4,17.1z
		 M413.4,39.9c2.8,0,5.6-2.4,5.6-5.6c0-3.3-2.8-6.1-5.6-6.1h-9.3v11.7H413.4z"/>
</g>
</svg>
