<?xml version="1.0" encoding="utf-8"?>
<!-- Generator: Adobe Illustrator 21.1.0, SVG Export Plug-In . SVG Version: 6.00 Build 0)  -->
<svg version="1.0" id="Layer_1" xmlns="http://www.w3.org/2000/svg" xmlns:xlink="http://www.w3.org/1999/xlink" x="0px" y="0px"
	 viewBox="0 0 436.8 427.1" style="enable-background:new 0 0 436.8 427.1;" xml:space="preserve">
<style type="text/css">
	.st0{fill:#F2120A;}
	.st1{fill:#F5C900;}
</style>
<g>
	<path class="st0" d="M428,417.9L428,417.9c-6.6,6.9-17.5,7.2-24.4,0.6L161.9,188.9c-6.9-6.6-7.2-17.5-0.6-24.4l0,0
		c6.6-6.9,17.5-7.2,24.4-0.6l241.7,229.6C434.3,400,434.5,411,428,417.9z"/>
	<path class="st1" d="M140,172.3L140,172.3C85.9,147.2,44.4,106,18.6,51.6L0,12.3c-0.2-0.4,0.5-1.1,0.9-1l40.2,16.6
		c55.6,23,98.9,62.3,126.8,115l0,0C174.7,155.8,153.2,178.4,140,172.3z"/>
</g>
</svg>
