<?xml version="1.0" encoding="utf-8"?>
<!-- Generator: Adobe Illustrator 23.0.1, SVG Export Plug-In . SVG Version: 6.00 Build 0)  -->
<svg version="1.1" id="Layer_1" xmlns="http://www.w3.org/2000/svg" xmlns:xlink="http://www.w3.org/1999/xlink" x="0px" y="0px"
	 viewBox="0 0 635 311" style="enable-background:new 0 0 635 311;" xml:space="preserve">
<style type="text/css">
	.st0{clip-path:url(#SVGID_2_);}
	.st1{fill:#E8C72F;}
	.st2{clip-path:url(#SVGID_2_);fill:#D16D9E;}
	.st3{fill:#FFFFFF;}
</style>
<g>
	<defs>
		<rect id="SVGID_1_" width="635" height="311"/>
	</defs>
	<use xlink:href="#SVGID_1_"  style="overflow:visible;fill:#213B6B;"/>
	<clipPath id="SVGID_2_">
		<use xlink:href="#SVGID_1_"  style="overflow:visible;"/>
	</clipPath>
	<g class="st0">
		<polygon class="st1" points="38.16,213.32 57.3,232.45 76.44,213.32 95.59,232.45 114.73,213.32 133.87,232.45 153.02,213.32 
			172.16,232.45 191.31,213.32 210.45,232.45 229.59,213.32 248.74,232.45 267.88,213.32 287.02,232.45 306.17,213.32 
			325.31,232.45 344.45,213.32 363.6,232.45 363.6,98.5 -57.56,98.5 -57.56,232.45 19.01,232.45 		"/>
	</g>
	<path class="st2" d="M440.01,369.07c-16.54-6.64-29.8-24.75-29.59-43.54s13.4-37.79,28.69-44.77c16.83-7.69,39.53-5.2,54.42,8.11
		l28.58-35.38c-27.94-22.85-67.13-30.41-101.33-14.27c-31.93,15.07-56.02,50.07-55.47,87.69c0.52,35.69,23.31,70.56,57.32,85.17
		c10.92,4.69,22.49,5.88,33.76,6.01c24.43,0.27,48.96-8.85,67.96-27.43l-33.5-30.43C479.44,373.26,457.19,375.96,440.01,369.07z"/>
</g>
<g>
	<path class="st3" d="M149.23,193.46H136.7l-13.04-33.86l-13.11,33.86H98.02l19.34-50.12h12.53L149.23,193.46z"/>
	<path class="st3" d="M182.13,142.27c14.4,0,26.21,11.81,26.21,26.13c0,14.46-11.82,26.2-26.21,26.2
		c-14.47,0-26.21-11.74-26.21-26.2C155.92,154.08,167.66,142.27,182.13,142.27z M182.13,182.72c7.81,0,14.25-6.44,14.25-14.32
		c0-7.88-6.45-14.25-14.25-14.25c-7.88,0-14.25,6.37-14.25,14.25C167.88,176.27,174.25,182.72,182.13,182.72z"/>
	<path class="st3" d="M244.36,193.46h-24.28v-50.12h22.85c8.31,0,14.97,6.59,14.97,15.03c0,3.94-1.5,7.09-3.94,9.31
		c3.29,2.36,5.37,6.09,5.37,10.74C259.4,186.73,252.74,193.38,244.36,193.46z M231.97,153.58v9.59h10.67c2.36,0,4.8-2,4.8-4.8
		c0-2.79-2.44-4.8-4.8-4.8H231.97z M244.36,183.43c2.51,0,5.01-2.08,5.01-5.01c0-2.94-2.51-5.01-5.01-5.01h-12.39v10.02H244.36z"/>
	<path class="st3" d="M300.44,193.46l-12.46-19.4h-3.44v19.4h-12.39v-50.12h12.39v19.33h3.15l11.75-19.33h14.4l-16.33,24.91
		l16.62,25.2H300.44z"/>
	<path class="st3" d="M346.98,142.27c14.4,0,26.21,11.81,26.21,26.13c0,14.46-11.82,26.2-26.21,26.2
		c-14.47,0-26.21-11.74-26.21-26.2C320.76,154.08,332.51,142.27,346.98,142.27z M346.98,182.72c7.81,0,14.25-6.44,14.25-14.32
		c0-7.88-6.45-14.25-14.25-14.25c-7.88,0-14.25,6.37-14.25,14.25C332.72,176.27,339.1,182.72,346.98,182.72z"/>
	<path class="st3" d="M419.14,179.14l8.52,7.66c-5.3,5.3-12.03,7.88-18.84,7.88c-3.22,0-6.52-0.29-9.45-1.58
		c-9.53-3.87-16.04-13.53-16.26-23.63c-0.29-10.45,6.37-20.26,15.26-24.49c9.53-4.65,20.41-2.65,28.15,3.58l-6.88,9.16
		c-4.58-3.87-11.32-4.58-16.33-2.15c-4.51,2.08-8.52,7.8-8.52,13.39c0,5.66,4.08,11.1,9.1,13.1
		C409.04,184,415.63,183.15,419.14,179.14z"/>
	<path class="st3" d="M480.13,143.34v11.38h-15.26v38.73h-12.53v-38.73h-15.33v-11.38H480.13z"/>
	<path class="st3" d="M511.45,159.38c9.31,0,16.76,7.88,16.76,17.25s-7.45,16.82-16.76,16.82h-21.34v-50.12h12.03v16.04H511.45z
		 M511.45,182.22c2.79,0,5.59-2.36,5.59-5.58c0-3.29-2.79-6.09-5.59-6.09h-9.31v11.67H511.45z"/>
</g>
<g>
</g>
<g>
</g>
<g>
</g>
<g>
</g>
<g>
</g>
<g>
</g>
<g>
</g>
<g>
</g>
<g>
</g>
<g>
</g>
<g>
</g>
<g>
</g>
<g>
</g>
<g>
</g>
<g>
</g>
</svg>
