<?xml version="1.0" encoding="utf-8"?>
<!-- Generator: Adobe Illustrator 23.0.1, SVG Export Plug-In . SVG Version: 6.00 Build 0)  -->
<svg version="1.1" id="Layer_1" xmlns="http://www.w3.org/2000/svg" xmlns:xlink="http://www.w3.org/1999/xlink" x="0px" y="0px"
	 viewBox="0 0 1000 600" style="enable-background:new 0 0 1000 600;" xml:space="preserve">
<style type="text/css">
	.st0{fill:#213B6B;}
	.st1{fill:#FFFFFF;}
</style>
<rect class="st0" width="1000" height="600"/>
<g>
	<g>
		<g>
			<path class="st1" d="M134.97,191.55c-11.47-4.46-20.76-16.87-20.76-29.84c0-12.98,8.96-26.2,19.46-31.14
				c11.56-5.44,27.25-3.89,37.63,5.19l19.46-24.65c-19.46-15.57-46.58-20.49-70.07-9.08c-21.93,10.65-38.29,35.01-37.63,60.98
				c0.63,24.64,16.63,48.56,40.22,58.39c7.57,3.16,15.57,3.89,23.36,3.89c16.87,0,33.74-6.49,46.71-19.46l-23.36-20.76
				C162.22,194.15,146.88,196.19,134.97,191.55z"/>
		</g>
		<path class="st1" d="M238.34,190.34c-11.47-4.46-20.76-16.87-20.76-29.84c0-12.98,8.96-26.2,19.46-31.14
			c11.56-5.44,27.25-3.89,37.63,5.19l19.46-24.65c-19.46-15.57-46.58-20.49-70.07-9.08c-21.93,10.65-38.29,35.01-37.63,60.98
			c0.63,24.64,16.63,48.56,40.22,58.39c7.57,3.16,15.57,3.89,23.36,3.89c16.87,0,33.74-6.49,46.71-19.46l-23.36-20.76
			C265.59,192.94,250.25,194.97,238.34,190.34z"/>
		<path class="st1" d="M341.71,189.13c-11.47-4.46-20.76-16.87-20.76-29.84c0-12.98,8.96-26.2,19.46-31.14
			c11.56-5.44,27.25-3.89,37.63,5.19l19.46-24.65c-19.46-15.57-46.58-20.49-70.07-9.08c-21.93,10.65-38.29,35.01-37.63,60.98
			c0.63,24.64,16.63,48.56,40.22,58.39c7.58,3.16,15.57,3.89,23.36,3.89c16.87,0,33.74-6.49,46.71-19.46l-23.36-20.76
			C368.96,191.72,353.62,193.76,341.71,189.13z"/>
		<path class="st1" d="M445.08,187.91c-11.47-4.46-20.76-16.87-20.76-29.84c0-12.98,8.96-26.2,19.46-31.14
			c11.56-5.44,27.25-3.89,37.63,5.19l19.46-24.65c-19.46-15.57-46.58-20.49-70.07-9.08c-21.93,10.65-38.29,35.01-37.63,60.98
			c0.63,24.64,16.63,48.56,40.22,58.39c7.57,3.16,15.57,3.89,23.36,3.89c16.87,0,33.74-6.49,46.71-19.46l-23.36-20.76
			C472.33,190.51,456.99,192.55,445.08,187.91z"/>
		<path class="st1" d="M548.45,186.7c-11.47-4.46-20.76-16.87-20.76-29.84c0-12.98,8.96-26.2,19.46-31.14
			c11.56-5.44,27.25-3.89,37.63,5.19l19.46-24.65c-19.46-15.57-46.58-20.49-70.07-9.08c-21.93,10.65-38.29,35.01-37.63,60.98
			c0.63,24.64,16.63,48.56,40.22,58.39c7.58,3.16,15.57,3.89,23.36,3.89c16.87,0,33.74-6.49,46.71-19.46l-23.36-20.76
			C575.7,189.3,560.36,191.33,548.45,186.7z"/>
		<path class="st1" d="M651.82,185.49c-11.47-4.46-20.76-16.87-20.76-29.84c0-12.98,8.96-26.2,19.46-31.14
			c11.56-5.44,27.25-3.89,37.63,5.19l19.46-24.65c-19.46-15.57-46.58-20.49-70.07-9.08c-21.93,10.65-38.29,35.01-37.63,60.98
			c0.63,24.64,16.63,48.56,40.22,58.39c7.58,3.16,15.57,3.89,23.36,3.89c16.87,0,33.74-6.49,46.71-19.46L686.85,179
			C679.07,188.08,663.73,190.12,651.82,185.49z"/>
		<path class="st1" d="M755.19,184.28c-11.47-4.46-20.76-16.87-20.76-29.84c0-12.98,8.96-26.2,19.46-31.14
			c11.56-5.44,27.25-3.89,37.63,5.19l19.46-24.65c-19.46-15.57-46.58-20.49-70.07-9.08c-21.93,10.65-38.29,35.01-37.63,60.98
			c0.63,24.64,16.63,48.56,40.22,58.39c7.58,3.16,15.57,3.89,23.36,3.89c16.87,0,33.74-6.49,46.71-19.46l-23.36-20.76
			C782.44,186.87,767.1,188.91,755.19,184.28z"/>
		<g>
			<path class="st1" d="M858.56,183.06c-11.47-4.46-20.76-16.87-20.76-29.84c0-12.98,8.96-26.2,19.46-31.14
				c11.56-5.44,27.25-3.89,37.63,5.19l19.46-24.65c-19.46-15.57-46.58-20.49-70.07-9.08c-21.93,10.65-38.29,35.01-37.63,60.98
				c0.63,24.64,16.63,48.56,40.22,58.39c7.58,3.16,15.57,3.89,23.36,3.89c16.87,0,33.74-6.49,46.71-19.46l-23.36-20.76
				C885.81,185.66,870.47,187.69,858.56,183.06z"/>
		</g>
	</g>
	<g>
		<path class="st1" d="M134.97,335.26c-11.47-4.46-20.76-16.87-20.76-29.84c0-12.98,8.96-26.2,19.46-31.14
			c11.56-5.44,27.25-3.89,37.63,5.19l19.46-24.65c-19.46-15.57-46.58-20.49-70.07-9.08c-21.93,10.65-38.29,35.01-37.63,60.98
			c0.63,24.64,16.63,48.56,40.22,58.39c7.57,3.16,15.57,3.89,23.36,3.89c16.87,0,33.74-6.49,46.71-19.46l-23.36-20.76
			C162.22,337.86,146.88,339.9,134.97,335.26z"/>
		<path class="st1" d="M238.34,334.05c-11.47-4.46-20.76-16.87-20.76-29.84s8.96-26.2,19.46-31.14c11.56-5.44,27.25-3.89,37.63,5.19
			l19.46-24.65c-19.46-15.57-46.58-20.49-70.07-9.08c-21.93,10.65-38.29,35.01-37.63,60.98c0.63,24.64,16.63,48.56,40.22,58.39
			c7.57,3.16,15.57,3.89,23.36,3.89c16.87,0,33.74-6.49,46.71-19.46l-23.36-20.76C265.59,336.65,250.25,338.68,238.34,334.05z"/>
		<path class="st1" d="M341.71,332.84c-11.47-4.46-20.76-16.87-20.76-29.84c0-12.98,8.96-26.2,19.46-31.14
			c11.56-5.44,27.25-3.89,37.63,5.19l19.46-24.65c-19.46-15.57-46.58-20.49-70.07-9.08c-21.93,10.65-38.29,35.01-37.63,60.98
			c0.63,24.64,16.63,48.56,40.22,58.39c7.58,3.16,15.57,3.89,23.36,3.89c16.87,0,33.74-6.49,46.71-19.46l-23.36-20.76
			C368.96,335.43,353.62,337.47,341.71,332.84z"/>
		<path class="st1" d="M445.08,331.63c-11.47-4.46-20.76-16.87-20.76-29.84s8.96-26.2,19.46-31.14c11.56-5.44,27.25-3.89,37.63,5.19
			l19.46-24.65c-19.46-15.57-46.58-20.49-70.07-9.08c-21.93,10.65-38.29,35.01-37.63,60.98c0.63,24.64,16.63,48.56,40.22,58.39
			c7.57,3.16,15.57,3.89,23.36,3.89c16.87,0,33.74-6.49,46.71-19.46l-23.36-20.76C472.33,334.22,456.99,336.26,445.08,331.63z"/>
		<path class="st1" d="M548.45,330.41c-11.47-4.46-20.76-16.87-20.76-29.84c0-12.98,8.96-26.2,19.46-31.14
			c11.56-5.44,27.25-3.89,37.63,5.19l19.46-24.65c-19.46-15.57-46.58-20.49-70.07-9.08c-21.93,10.65-38.29,35.01-37.63,60.98
			c0.63,24.64,16.63,48.56,40.22,58.39c7.58,3.16,15.57,3.89,23.36,3.89c16.87,0,33.74-6.49,46.71-19.46l-23.36-20.76
			C575.7,333.01,560.36,335.04,548.45,330.41z"/>
		<path class="st1" d="M651.82,329.2c-11.47-4.46-20.76-16.87-20.76-29.84s8.96-26.2,19.46-31.14c11.56-5.44,27.25-3.89,37.63,5.19
			l19.46-24.65c-19.46-15.57-46.58-20.49-70.07-9.08c-21.93,10.65-38.29,35.01-37.63,60.98c0.63,24.64,16.63,48.56,40.22,58.39
			c7.58,3.16,15.57,3.89,23.36,3.89c16.87,0,33.74-6.49,46.71-19.46l-23.36-20.76C679.07,331.79,663.73,333.83,651.82,329.2z"/>
		<path class="st1" d="M755.19,327.99c-11.47-4.46-20.76-16.87-20.76-29.84s8.96-26.2,19.46-31.14c11.56-5.44,27.25-3.89,37.63,5.19
			l19.46-24.65c-19.46-15.57-46.58-20.49-70.07-9.08c-21.93,10.65-38.29,35.01-37.63,60.98c0.63,24.64,16.63,48.56,40.22,58.39
			c7.58,3.16,15.57,3.89,23.36,3.89c16.87,0,33.74-6.49,46.71-19.46l-23.36-20.76C782.44,330.58,767.1,332.62,755.19,327.99z"/>
		<path class="st1" d="M858.56,326.77c-11.47-4.46-20.76-16.87-20.76-29.84c0-12.98,8.96-26.2,19.46-31.14
			c11.56-5.44,27.25-3.89,37.63,5.19l19.46-24.65c-19.46-15.57-46.58-20.49-70.07-9.08c-21.93,10.65-38.29,35.01-37.63,60.98
			c0.63,24.64,16.63,48.56,40.22,58.39c7.58,3.16,15.57,3.89,23.36,3.89c16.87,0,33.74-6.49,46.71-19.46l-23.36-20.76
			C885.81,329.37,870.47,331.41,858.56,326.77z"/>
	</g>
	<g>
		<path class="st1" d="M134.97,478.97c-11.47-4.46-20.76-16.87-20.76-29.84s8.96-26.2,19.46-31.14c11.56-5.44,27.25-3.89,37.63,5.19
			l19.46-24.65c-19.46-15.57-46.58-20.49-70.07-9.08c-21.93,10.65-38.29,35.01-37.63,60.98c0.63,24.64,16.63,48.56,40.22,58.39
			c7.57,3.16,15.57,3.89,23.36,3.89c16.87,0,33.74-6.49,46.71-19.46l-23.36-20.76C162.22,481.57,146.88,483.61,134.97,478.97z"/>
		<path class="st1" d="M238.34,477.76c-11.47-4.46-20.76-16.87-20.76-29.84c0-12.98,8.96-26.2,19.46-31.14
			c11.56-5.44,27.25-3.89,37.63,5.19l19.46-24.65c-19.46-15.57-46.58-20.49-70.07-9.08c-21.93,10.65-38.29,35.01-37.63,60.98
			c0.63,24.64,16.63,48.56,40.22,58.39c7.57,3.16,15.57,3.89,23.36,3.89c16.87,0,33.74-6.49,46.71-19.46l-23.36-20.76
			C265.59,480.36,250.25,482.39,238.34,477.76z"/>
		<path class="st1" d="M341.71,476.55c-11.47-4.46-20.76-16.87-20.76-29.84s8.96-26.2,19.46-31.14c11.56-5.44,27.25-3.89,37.63,5.19
			l19.46-24.65c-19.46-15.57-46.58-20.49-70.07-9.08c-21.93,10.65-38.29,35.01-37.63,60.98c0.63,24.64,16.63,48.56,40.22,58.39
			c7.58,3.16,15.57,3.89,23.36,3.89c16.87,0,33.74-6.49,46.71-19.46l-23.36-20.76C368.96,479.14,353.62,481.18,341.71,476.55z"/>
		<path class="st1" d="M445.08,475.34c-11.47-4.46-20.76-16.87-20.76-29.84c0-12.98,8.96-26.2,19.46-31.14
			c11.56-5.44,27.25-3.89,37.63,5.19l19.46-24.65c-19.46-15.57-46.58-20.49-70.07-9.08c-21.93,10.65-38.29,35.01-37.63,60.98
			c0.63,24.64,16.63,48.56,40.22,58.39c7.57,3.16,15.57,3.89,23.36,3.89c16.87,0,33.74-6.49,46.71-19.46l-23.36-20.76
			C472.33,477.93,456.99,479.97,445.08,475.34z"/>
		<path class="st1" d="M548.45,474.12c-11.47-4.46-20.76-16.87-20.76-29.84s8.96-26.2,19.46-31.14c11.56-5.44,27.25-3.89,37.63,5.19
			l19.46-24.65c-19.46-15.57-46.58-20.49-70.07-9.08c-21.93,10.65-38.29,35.01-37.63,60.98c0.63,24.64,16.63,48.56,40.22,58.39
			c7.58,3.16,15.57,3.89,23.36,3.89c16.87,0,33.74-6.49,46.71-19.46l-23.36-20.76C575.7,476.72,560.36,478.75,548.45,474.12z"/>
		<path class="st1" d="M651.82,472.91c-11.47-4.46-20.76-16.87-20.76-29.84c0-12.98,8.96-26.2,19.46-31.14
			c11.56-5.44,27.25-3.89,37.63,5.19l19.46-24.65c-19.46-15.57-46.58-20.49-70.07-9.08c-21.93,10.65-38.29,35.01-37.63,60.98
			c0.63,24.64,16.63,48.56,40.22,58.39c7.58,3.16,15.57,3.89,23.36,3.89c16.87,0,33.74-6.49,46.71-19.46l-23.36-20.76
			C679.07,475.51,663.73,477.54,651.82,472.91z"/>
		<path class="st1" d="M755.19,471.7c-11.47-4.46-20.76-16.87-20.76-29.84s8.96-26.2,19.46-31.14c11.56-5.44,27.25-3.89,37.63,5.19
			l19.46-24.65c-19.46-15.57-46.58-20.49-70.07-9.08c-21.93,10.65-38.29,35.01-37.63,60.98c0.63,24.64,16.63,48.56,40.22,58.39
			c7.58,3.16,15.57,3.89,23.36,3.89c16.87,0,33.74-6.49,46.71-19.46l-23.36-20.76C782.44,474.29,767.1,476.33,755.19,471.7z"/>
		<path class="st1" d="M858.56,470.48c-11.47-4.46-20.76-16.87-20.76-29.84c0-12.98,8.96-26.2,19.46-31.14
			c11.56-5.44,27.25-3.89,37.63,5.19l19.46-24.65c-19.46-15.57-46.58-20.49-70.07-9.08c-21.93,10.65-38.29,35.01-37.63,60.98
			c0.63,24.64,16.63,48.56,40.22,58.39c7.58,3.16,15.57,3.89,23.36,3.89c16.87,0,33.74-6.49,46.71-19.46L893.59,464
			C885.81,473.08,870.47,475.12,858.56,470.48z"/>
	</g>
</g>
</svg>
