<?xml version="1.0" encoding="utf-8"?>
<!-- Generator: Adobe Illustrator 21.1.0, SVG Export Plug-In . SVG Version: 6.00 Build 0)  -->
<svg version="1.0" id="Layer_1" xmlns="http://www.w3.org/2000/svg" xmlns:xlink="http://www.w3.org/1999/xlink" x="0px" y="0px"
	 viewBox="0 0 562.9 612" style="enable-background:new 0 0 562.9 612;" xml:space="preserve">
<style type="text/css">
	.st0{fill:#F2D2CB;}
	.st1{fill:#FFFFFF;}
</style>
<g>
	<g>
		<path class="st0" d="M442.4,508.2c-1.3,0-2.5-0.1-3.8-0.2L119,481.4C50.7,475.7-0.3,415.6,5.4,347.3l7.6-91.2
			c2.6-31.3,16.8-60.1,39.9-81.3c23-21,52.7-32.6,83.8-32.6c3.5,0,7,0.1,10.5,0.4l369.5,30.8c12,1,22.9,6.6,30.6,15.8
			s11.5,20.8,10.5,32.8c-1.9,23.1-21.6,41.3-44.8,41.3c-1.3,0-2.5-0.1-3.8-0.2l-115.1-9.6l-0.8,10c17.9,1.5,31.2,17.2,29.7,35.1
			c-1.4,16.7-15.6,29.8-32.3,29.8c-0.9,0-1.8,0-2.7-0.1l-0.8,10c17.9,1.5,31.2,17.2,29.7,35.1c-1.4,16.7-15.6,29.8-32.3,29.8
			c-0.9,0-1.8,0-2.7-0.1l-0.8,10l65.3,5.4c12,1,22.9,6.6,30.6,15.8s11.5,20.8,10.5,32.8C485.2,490.1,465.6,508.2,442.4,508.2
			L442.4,508.2z"/>
		<path class="st1" d="M136.7,147.2c3.3,0,6.7,0.1,10,0.4l170.2,14.2l199.3,16.6c10.6,0.9,20.3,5.9,27.2,14
			c6.9,8.2,10.2,18.5,9.3,29.2c-0.8,10.1-5.4,19.4-12.8,26.2c-7.4,6.8-17,10.5-27,10.5c-1.1,0-2.3,0-3.4-0.1l-115.1-9.6l-0.8,10
			l-0.8,10c15.1,1.3,26.4,14.6,25.1,29.7c-1.2,14.1-13.2,25.2-27.4,25.2c-0.8,0-1.6,0-2.3-0.1l-0.8,10l-0.8,10
			c7.3,0.6,14,4,18.7,9.6s7,12.7,6.4,20c-1.2,14.1-13.2,25.2-27.4,25.2c-0.8,0-1.6,0-2.3-0.1l-0.8,10l-0.8,10l65.3,5.4
			c10.6,0.9,20.3,5.9,27.2,14c6.9,8.2,10.2,18.5,9.3,29.2c-0.8,10.1-5.4,19.4-12.8,26.2c-7.4,6.8-17,10.5-27,10.5
			c-1.1,0-2.3,0-3.4-0.1l-149.5-12.5l-49.8-4.2l-120.3-10c-31.7-2.6-60.6-17.5-81.1-41.8c-20.6-24.3-30.4-55.2-27.8-86.9l7.6-91.2
			c2.5-30,16.1-57.7,38.3-78C78.4,158.3,106.9,147.2,136.7,147.2 M136.7,137.2c-66.5,0-123,51-128.7,118.5l-7.6,91.2
			c-5.9,71.1,47,133.6,118.1,139.5l120.3,10l49.8,4.2L438.2,513c1.4,0.1,2.8,0.2,4.2,0.2c25.7,0,47.6-19.7,49.8-45.9
			c2.3-27.5-18.2-51.7-45.7-54l-65.3-5.4c1.1,0.1,2.1,0.1,3.2,0.1c19.3,0,35.7-14.8,37.3-34.4c1.7-20.6-13.6-38.8-34.3-40.5
			c1.1,0.1,2.1,0.1,3.2,0.1c19.3,0,35.7-14.8,37.3-34.4c1.7-20.6-13.6-38.8-34.3-40.5l115.1,9.6c1.4,0.1,2.8,0.2,4.2,0.2
			c25.7,0,47.6-19.7,49.8-45.9c2.3-27.5-18.2-51.7-45.7-54l-199.3-16.6l-170.2-14.2C143.9,137.3,140.3,137.2,136.7,137.2
			L136.7,137.2z"/>
	</g>
	<g>
		<path class="st0" d="M390.6,338.3c-1.2,0-2.4-0.1-3.6-0.1l-96.7-8.1c-23.4-1.9-40.8-22.5-38.8-45.9c1.8-21.9,20.4-39,42.3-39
			c1.2,0,2.4,0.1,3.6,0.1l96.7,8.1c11.3,0.9,21.6,6.2,28.9,14.9s10.9,19.7,9.9,31C431.1,321.2,412.5,338.3,390.6,338.3z"/>
		<path class="st1" d="M293.8,250.3c1,0,2.1,0,3.2,0.1l96.7,8.1c20.6,1.7,36,19.8,34.3,40.5l0,0c-1.6,19.6-18,34.4-37.3,34.4
			c-1,0-2.1,0-3.2-0.1l-96.7-8.1c-20.6-1.7-36-19.8-34.3-40.5l0,0C258.1,265.1,274.5,250.3,293.8,250.3 M293.8,240.3v10V240.3
			L293.8,240.3c-11.9,0-23.3,4.4-32,12.5c-8.8,8.1-14.3,19.1-15.3,31.1c-2.2,26.1,17.3,49.1,43.4,51.3l96.7,8.1
			c1.3,0.1,2.7,0.2,4,0.2c11.9,0,23.3-4.4,32-12.5c8.8-8.1,14.3-19.1,15.3-31.1c2.2-26.1-17.3-49.1-43.4-51.3l-96.7-8.1
			C296.5,240.3,295.2,240.3,293.8,240.3L293.8,240.3z"/>
	</g>
	<g>
		<path class="st0" d="M384.4,413.1c-1.2,0-2.4-0.1-3.6-0.1l-96.7-8.1c-23.4-1.9-40.8-22.5-38.8-45.9c1.8-21.9,20.4-39,42.3-39
			c1.2,0,2.4,0.1,3.6,0.1l96.7,8.1c23.4,1.9,40.8,22.5,38.8,45.9C424.8,396,406.3,413.1,384.4,413.1z"/>
		<path class="st1" d="M287.6,325c1,0,2.1,0,3.2,0.1l96.7,8.1c20.6,1.7,36,19.8,34.3,40.5l0,0c-1.6,19.6-18,34.4-37.3,34.4
			c-1,0-2.1,0-3.2-0.1l-96.7-8.1c-20.6-1.7-36-19.8-34.3-40.5l0,0C251.9,339.8,268.3,325,287.6,325 M287.6,315v10V315L287.6,315
			c-11.9,0-23.3,4.4-32,12.5c-8.8,8.1-14.3,19.1-15.3,31.1c-1.1,12.6,2.9,24.9,11.1,34.6c8.2,9.7,19.7,15.6,32.3,16.7l96.7,8.1
			c1.3,0.1,2.7,0.2,4,0.2c11.9,0,23.3-4.4,32-12.5c8.8-8.1,14.3-19.1,15.3-31.1c2.2-26.1-17.3-49.1-43.4-51.3l-96.7-8.1
			C290.3,315.1,288.9,315,287.6,315L287.6,315z"/>
	</g>
	<g>
		<path class="st0" d="M295.4,347.7c-11.9,0-23.1-3.9-32.5-11.3l-48.4-38.2c-20.5,30.6-55.4,49.5-92.4,49.5c-3.1,0-6.3-0.1-9.4-0.4
			c-48.5-4-87.1-35.8-98.3-80.8l-0.2-0.8l0.1-0.8c3.5-46,20.5-79.6,50.3-100c21.5-14.7,48.9-22.1,81.5-22.1
			c26.2,0,45.8,4.9,46.6,5.1l1,0.3l134.2,106c11,8.7,17.9,21.1,19.5,35s-2.3,27.6-10.9,38.6C326.5,340.4,311.5,347.7,295.4,347.7
			L295.4,347.7z"/>
		<path class="st1" d="M146.1,147.7c25.9,0,45.4,5,45.4,5l133.3,105.4c20.5,16.2,24,46,7.8,66.6c-9.4,11.8-23.2,18-37.2,18
			c-10.3,0-20.7-3.3-29.4-10.2l-52.7-41.7c-18.7,31.3-52.9,51.8-91.2,51.8c-3,0-5.9-0.1-8.9-0.4c-46.6-3.9-83.2-34.1-93.9-77.1
			C27,165.1,97.7,147.7,146.1,147.7 M146.1,137.7c-33.6,0-62,7.7-84.3,23C30.6,181.9,13,216.8,9.3,264.4L9.2,266l0.4,1.6
			c11.7,47.1,52.1,80.3,102.8,84.6c3.2,0.3,6.5,0.4,9.8,0.4c20.3,0,40.3-5.4,57.9-15.5c13.9-8,26.1-18.9,35.6-31.8l44.2,35
			c10.2,8.1,22.5,12.4,35.6,12.4c17.7,0,34.1-7.9,45-21.8c9.5-12,13.8-27,12-42.3c-1.8-15.2-9.4-28.8-21.4-38.4L197.7,144.8
			l-1.7-1.3l-2.1-0.5C193.2,142.7,173,137.7,146.1,137.7L146.1,137.7z"/>
	</g>
</g>
<g>
	<g>
		<g>
			<polygon points="164.7,121.4 168.3,78.5 140.1,76.2 136.6,119 103.9,116.3 113.1,5.4 145.8,8.1 142.6,46.7 170.8,49.1 174,10.5 
				206.7,13.2 197.4,124.1 			"/>
			<path class="st1" d="M117.7,10.8c9.1,0.8,13.6,1.1,22.7,1.9c-1.1,12.9-2.1,25.7-3.2,38.6c12.7,1.1,25.4,2.1,38.2,3.2
				c1.1-12.9,2.1-25.7,3.2-38.6c9.1,0.8,13.6,1.1,22.7,1.9c-2.8,33.6-5.6,67.3-8.4,100.9c-9.1-0.8-13.6-1.1-22.7-1.9
				c1.2-14.3,2.4-28.5,3.6-42.8c-12.7-1.1-25.4-2.1-38.2-3.2c-1.2,14.3-2.4,28.5-3.6,42.8c-9.1-0.8-13.6-1.1-22.7-1.9
				C112.1,78.1,114.9,44.4,117.7,10.8 M108.5,0l-0.8,10l-8.4,100.9l-0.8,10l10,0.8l12.2,1l10.5,0.9l10,0.8l0.8-10l0.3-3.1l2.5-29.8
				L163,83l-2.7,32.9l-0.8,10l10,0.8l17.6,1.5l5.1,0.4l10,0.8l0.8-10c2.8-33.6,5.6-67.3,8.4-100.9l0.8-10l-10-0.8l-11.4-0.9
				l-11.4-0.9l-10-0.8l-0.8,10l-2.4,28.6L148,42.1l2.4-28.6l0.8-10l-10-0.8l-6-0.5l-16.8-1.4L108.5,0L108.5,0z"/>
		</g>
		<g>
			<path d="M255.1,130c-4,0-8.4-0.2-13.1-0.6c-5.3-0.4-10.1-1.3-14.4-2.6c-4.6-1.4-8.5-3.4-11.7-6.1c-3.4-2.8-6-6.3-7.6-10.4
				c-1.6-4-2.1-8.8-1.7-14.2c0.4-5.3,2-9.9,4.5-13.6c2.5-3.6,5.8-6.5,9.7-8.4c3.7-1.8,7.8-3.1,12.3-3.6c2.5-0.3,5.1-0.5,7.8-0.5
				c1.8,0,3.6,0.1,5.5,0.2c2.5,0.2,4.9,0.5,7,0.9c-0.3-0.6-0.6-1.1-0.9-1.5c-0.5-0.6-2.3-2.1-8-2.6c-1.9-0.2-3.9-0.2-5.8-0.2
				c-1.5,0-3,0-4.4,0.1c-3.3,0.2-6.1,0.7-8.5,1.3l-5.9,1.6l-2.1-28.1l4.2-0.9c1.4-0.3,3.2-0.6,5.2-0.9c2-0.3,4.3-0.5,6.7-0.7
				c2.3-0.2,4.8-0.3,7.4-0.3c0.4,0,0.8,0,1.2,0c2.3,0,4.6,0.1,6.9,0.3c6.9,0.6,12.8,1.9,17.4,3.9c4.9,2.1,8.8,5,11.6,8.6
				c2.9,3.6,4.8,7.8,5.6,12.6c0.8,4.4,1,9.2,0.6,14.4l-4.1,49.2l-4,0.5c-3.2,0.4-7.7,0.9-13.4,1.4C260.6,129.9,257.9,130,255.1,130z
				 M245,94.9c-0.6,0-1.2,0-1.7,0c-1.3,0.1-2.3,0.3-3.2,0.6c-0.6,0.2-1,0.6-1.4,1c-0.2,0.3-0.4,0.9-0.5,1.6
				c-0.2,2.2,0.5,2.7,0.7,2.8c1,0.7,3,1.6,6.8,1.9c2,0.2,4,0.3,5.8,0.3l0.6-7.6c-1.4-0.3-2.6-0.4-3.7-0.5
				C247.2,94.9,246.1,94.9,245,94.9z"/>
			<path class="st1" d="M242.4,43.9c2.1,0,4.3,0.1,6.4,0.3c6.4,0.5,11.7,1.7,15.8,3.5c4.1,1.8,7.4,4.2,9.7,7.1
				c2.3,2.9,3.9,6.4,4.6,10.4s0.9,8.3,0.5,13.1c-1.3,15-2.5,30.1-3.8,45.1c-3.2,0.4-7.6,0.9-13.2,1.3c-2.3,0.2-4.8,0.3-7.5,0.3
				c-3.8,0-8.1-0.2-12.7-0.6c-5-0.4-9.4-1.2-13.4-2.4c-4-1.2-7.3-2.9-10.1-5.2c-2.7-2.2-4.8-5-6.1-8.4c-1.3-3.3-1.7-7.3-1.3-12
				c0.4-4.5,1.6-8.2,3.6-11.1c2.1-3,4.7-5.2,7.8-6.8c3.2-1.6,6.7-2.6,10.7-3.1c2.3-0.3,4.7-0.4,7.1-0.4c1.7,0,3.4,0.1,5.1,0.2
				c2.8,0.2,5.3,0.6,7.5,1s3.9,0.9,5.2,1.4c0.1-0.8,0.1-1.2,0.2-2c0.3-3.7-0.6-6.7-2.6-9.2c-2-2.4-5.8-3.9-11.4-4.3
				c-2.1-0.2-4.2-0.3-6.3-0.3c-1.6,0-3.2,0.1-4.7,0.2c-3.6,0.2-6.8,0.7-9.5,1.5c-0.5-7.1-0.8-10.6-1.3-17.7c1.3-0.3,2.9-0.6,4.8-0.8
				c1.9-0.3,4-0.5,6.3-0.6c2.3-0.2,4.6-0.2,7.1-0.3C241.6,43.9,242,43.9,242.4,43.9 M253.6,108.2c1,0,1.8,0,2.5-0.1
				c0.5-6.6,0.8-9.9,1.4-16.5c-0.9-0.3-2.2-0.6-3.9-0.9s-3.3-0.6-4.8-0.7c-1.3-0.1-2.6-0.2-3.8-0.2c-0.7,0-1.3,0-2,0
				c-1.8,0.1-3.4,0.4-4.8,1c-1.4,0.6-2.6,1.4-3.4,2.5c-0.9,1.1-1.4,2.5-1.5,4.3c-0.3,3.4,0.7,5.8,2.8,7.3c2.2,1.5,5.2,2.4,9.2,2.7
				c2.1,0.2,4.2,0.3,6.1,0.4C252.2,108.2,252.9,108.2,253.6,108.2 M242.4,33.9c-0.4,0-0.8,0-1.2,0c-2.7,0-5.2,0.1-7.7,0.3
				s-4.9,0.4-7,0.7s-4,0.6-5.5,1l-8.5,1.8c-22.8,9.8-8,22.9-10.8,57.9c-0.5,6.2,0.2,11.7,2,16.4c1.9,5,5,9.2,9.1,12.5
				c3.7,3,8.3,5.4,13.4,7c4.6,1.4,9.8,2.4,15.5,2.8c4.9,0.4,9.4,0.6,13.5,0.6c3,0,5.8-0.1,8.3-0.3c5.8-0.5,10.3-0.9,13.7-1.4l8-1.1
				l0.7-8l3.8-45.1c0.5-5.6,0.2-10.9-0.7-15.8c-1-5.6-3.3-10.5-6.7-14.8c-3.4-4.2-7.9-7.6-13.6-10c-5.2-2.3-11.4-3.7-19-4.3
				C247.2,34,244.8,33.9,242.4,33.9z"/>
		</g>
		<g>
			<polygon points="289.9,131.8 297.1,45.2 328.7,47.9 323.8,106.7 333.8,107.5 338.7,48.7 370.4,51.3 365.5,110.2 375.3,111 
				380.2,52.1 411.9,54.8 404.7,141.4 			"/>
			<path class="st1" d="M301.6,50.6c8.7,0.7,13,1.1,21.7,1.8c-1.6,19.6-3.3,39.2-4.9,58.8c8,0.7,12,1,20,1.7
				c1.6-19.6,3.3-39.2,4.9-58.8c8.7,0.7,13,1.1,21.7,1.8c-1.6,19.6-3.3,39.2-4.9,58.8c7.9,0.7,11.9,1,19.8,1.7
				c1.6-19.6,3.3-39.2,4.9-58.8c8.7,0.7,13,1.1,21.7,1.8c-2.1,25.5-4.3,51.1-6.4,76.6c-35-2.9-69.9-5.8-104.9-8.7
				C297.4,101.7,299.5,76.1,301.6,50.6 M292.5,39.8l-0.8,10c-2.1,25.5-4.3,51.1-6.4,76.6l-0.8,10l10,0.8l34.7,2.9l70.1,5.8l11.9,0.8
				l0.8-10c2.1-25.5,4.3-51.1,6.4-76.6l0.8-10l-11.9-0.8l-12-1l-9.7-0.8l-9.8-0.8l-10-0.8l-21.7-1.8c0,0-20-1.7-20-1.7l-19.8-1.8
				L292.5,39.8z"/>
		</g>
		<g>
			<path d="M463,146.2l0.4-5c0.4-4.8,0.9-9.7,1.4-14.6c0.5-4.8,1-9.2,1.4-13.3c0-0.2,0-0.5,0.1-0.7c-2.6,3.2-5.2,6.4-7.7,9.6
				c-2.8,3.6-5.6,7.2-8.2,10.6c-2.5,3.3-4.8,6.4-6.8,9.2l-1.6,2.4l-26.9-2.2l7.2-86.6l31.7,2.6l-0.4,5c-0.4,4.9-0.8,9.6-1.2,14
				c-0.4,4.1-0.7,7.6-1.1,10.9c2.6-3.1,5-6,7.4-8.7c5.5-6.5,11-12.4,16.1-17.6l1.6-1.6l25.7,2.1l-7.2,86.6L463,146.2z"/>
			<path class="st1" d="M426.9,61c8.7,0.7,13,1.1,21.7,1.8c-0.4,4.9-0.8,9.5-1.2,13.9c-0.4,4.4-0.8,8.4-1.2,12
				c-0.4,3.6-0.8,6.7-1.1,9.4c-0.3,2.7-0.5,4.7-0.7,6.2c6.5-8.1,12.5-15.3,18-21.7s10.8-12.2,15.9-17.3c7.3,0.6,11,0.9,18.4,1.5
				c-2.1,25.5-4.3,51.1-6.4,76.6c-8.7-0.7-13.1-1.1-21.8-1.8c0.4-4.9,0.9-9.7,1.4-14.5s1-9.2,1.4-13.3c0.4-4.1,0.9-7.6,1.3-10.7
				c0.4-3,0.7-5.3,0.8-6.8c-3.1,3.7-6.3,7.5-9.5,11.4c-3.2,3.8-6.2,7.6-9.1,11.3c-2.9,3.7-5.6,7.3-8.2,10.7
				c-2.6,3.4-4.9,6.5-6.9,9.4c-7.6-0.6-11.4-1-19.1-1.6C422.6,112.1,424.8,86.6,426.9,61 M417.8,50.3l-0.8,10l-6.4,76.6l-0.8,10
				l10,0.8l10.2,0.8l8.9,0.7l5.7,0.5l3.3-4.7c1.9-2.8,4.2-5.8,6.6-9.1c1.6-2.2,3.3-4.4,5.1-6.7c-0.4,3.9-0.7,7.7-1.1,11.6l-0.8,10
				l10,0.8l11.9,1l10,0.8l10,0.8l0.8-10l3.4-40.6l3-36.1l0.8-10l-10-0.8l-18.4-1.5l-4.6-0.4l-3.3,3.3c-4.3,4.4-8.8,9.2-13.4,14.4
				c0.3-2.9,0.5-5.9,0.8-9l0.8-10l-10-0.8l-21.7-1.8L417.8,50.3L417.8,50.3z"/>
		</g>
	</g>
</g>
<g>
	<g>
		<g>
			<path d="M43.4,584c-3,0-6.3-0.5-9.8-1.4c-3.1-0.8-5.9-1.9-8.4-3.1c-2.4-1.2-4.4-2.4-6-3.6l-3.5-2.6l2.1-3.8
				c2.7-4.8,4-7.3,6.6-12.1l2.6-4.8l4.5,3c1.4,0.9,2.6,1.6,3.7,2.1c1.1,0.5,2.3,0.9,3.6,1.3c0.9,0.2,1.7,0.4,2.4,0.4
				s1.3-0.1,1.7-0.4c0.9-0.5,1.9-1.3,2.9-2.3c-1.8-7.7-3.4-16.2-4.7-25.6c-1.6-11.6-2.1-23.1-2.4-33.9l-0.2-6.8l6.6,1.8
				c7,1.9,10.4,2.9,17.3,4.7l3.7,1v3.9c0,2.9,0.1,6.2,0.2,9.7s0.3,7.1,0.6,10.7c0.1,2.1,0.3,4.2,0.5,6.3c1.1-1.7,2.1-3.5,3.1-5.2
				c1.8-3.1,3.6-6.2,5.3-9.3c1.7-3.1,3.3-5.9,4.7-8.6l1.8-3.4l3.8,0.9c6.9,1.6,10.2,2.4,17,4l6.6,1.5l-3.4,5.9
				c-5.5,9.5-11.5,19.6-18,29.3c-6.3,9.4-12.9,18.1-19.5,25.8c-2.6,3.1-5.1,5.7-7.5,7.7c-2.6,2.2-5.3,3.9-8.1,5.1
				c-2.9,1.3-6.1,1.9-9.4,2C43.7,584,43.5,584,43.4,584z"/>
			<path class="st1" d="M43.7,496.9c7,1.9,10.4,2.9,17.4,4.7c0,3,0.1,6.3,0.2,9.9c0.1,3.6,0.3,7.2,0.6,10.9s0.6,7.3,0.9,10.8
				c0.4,3.5,0.8,6.7,1.2,9.6c1.7-2.4,3.4-5,5.3-8s3.7-6,5.6-9.2s3.6-6.3,5.4-9.4c1.7-3.1,3.3-6,4.8-8.7c6.8,1.6,10.3,2.4,17.1,4
				c-5.7,9.8-11.5,19.6-17.8,29c-5.9,8.7-12.3,17.4-19.1,25.4c-2.4,2.9-4.8,5.3-7,7.2s-4.5,3.3-6.8,4.3s-4.8,1.5-7.5,1.6
				c-0.1,0-0.3,0-0.4,0c-2.5,0-5.4-0.4-8.5-1.2c-2.8-0.7-5.2-1.7-7.4-2.8s-3.9-2.2-5.3-3.2c2.7-4.8,4-7.3,6.6-12.1
				c1.6,1.1,3.1,1.9,4.4,2.5s2.8,1.1,4.3,1.5c1.3,0.4,2.5,0.5,3.7,0.5c1.5,0,2.9-0.3,4.1-1c2.1-1.1,4.1-2.9,5.9-5.4
				c-2.3-9-3.9-18.4-5.2-27.6C44.5,519.2,44,508,43.7,496.9 M33.2,483.6l0.4,13.6c0.4,10.9,0.8,22.6,2.5,34.4
				c1.1,8.2,2.4,15.5,4,22.4c-1-0.3-1.9-0.6-2.8-1c-0.6-0.3-1.6-0.8-3-1.7l-9.1-6l-5.2,9.6c-2.6,4.8-3.9,7.3-6.6,12.1l-4.2,7.6
				l6.9,5.2c1.8,1.4,4,2.7,6.7,4.1c2.8,1.4,5.9,2.6,9.3,3.5c3.9,1.1,7.7,1.6,11.1,1.6c0.2,0,0.4,0,0.6,0c3.9-0.1,7.7-0.9,11.2-2.4
				c3.3-1.4,6.4-3.4,9.4-5.9c2.6-2.2,5.4-5.1,8.1-8.3c6.7-7.9,13.3-16.7,19.8-26.2c6.6-9.8,12.7-20,18.2-29.5l6.8-11.8l-13.3-3
				c-6.8-1.5-10.1-2.3-17-3.9l-7.5-1.8l-3.6,6.8c-1.4,2.6-3,5.5-4.6,8.5c-0.1,0.1-0.1,0.2-0.2,0.3c0-0.2,0-0.4,0-0.6
				c-0.1-3.5-0.2-6.6-0.2-9.5V494l-7.5-2c-6.9-1.8-10.3-2.7-17.3-4.7L33.2,483.6L33.2,483.6z"/>
		</g>
		<g>
			<path d="M147.6,586.3c-7.1-1.2-10.6-1.9-17.6-3.2l-4.9-0.9l3.5-18.7c-1.9-0.2-3.3-0.4-4.3-0.6c-4.3-0.8-8.1-2-11.5-3.5
				c-3.6-1.6-6.7-3.7-9.1-6.3c-2.5-2.7-4.2-6.1-5-9.9c-0.8-3.6-0.7-7.8,0.4-12.5l5.2-23.8l4.9,1.1c6.7,1.5,9.9,2.1,16.5,3.5l4.9,1
				l-4.9,23.7c-0.1,0.3-0.3,1.4,0.1,1.7c0.5,0.5,1.9,1.4,5.1,2c0.3,0.1,0.9,0.2,2.2,0.3l5-26.3l4.9,0.9c6.7,1.3,9.9,1.9,16.6,3
				l4.9,0.9l-12,68.4L147.6,586.3z"/>
			<path class="st1" d="M108.1,512.9c6.6,1.5,10,2.2,16.6,3.5c-1.5,7.5-2.3,11.3-3.9,18.8c-0.6,2.8,0,5,1.6,6.4
				c1.6,1.5,4.1,2.6,7.5,3.2c0.7,0.1,1.8,0.3,3.2,0.5c1.5,0.2,2.8,0.3,4,0.4c2-10.3,2.9-15.5,4.9-25.9c6.7,1.3,10,1.9,16.7,3
				c-3.4,19.5-6.8,39-10.2,58.6c-7-1.2-10.5-1.9-17.5-3.2c1.5-7.7,2.2-11.5,3.6-19.2c-1.6-0.1-3.3-0.2-5.1-0.4s-3.2-0.4-4.1-0.6
				c-3.9-0.8-7.4-1.8-10.5-3.2c-3-1.4-5.5-3.1-7.4-5.1c-1.9-2.1-3.2-4.6-3.8-7.5c-0.6-3-0.5-6.4,0.4-10.4
				C105.6,524.2,106.4,520.4,108.1,512.9 M100.4,501l-2.1,9.8l-1.4,6.2l-2.8,12.7c-1.2,5.4-1.3,10.3-0.4,14.6
				c1,4.7,3.1,8.8,6.3,12.2c2.8,3.1,6.4,5.6,10.7,7.5c3.6,1.6,7.6,2.9,12,3.8l-1.6,8.6l-1.9,9.8l9.8,1.9c7,1.3,10.6,2,17.6,3.2
				l9.9,1.7l1.7-9.9l10.2-58.6l1.7-9.9l-9.9-1.7c-6.7-1.2-9.9-1.8-16.5-3l-8.6-1.6l-8.5-1.7c-6.6-1.4-9.9-2-16.5-3.5L100.4,501
				L100.4,501z"/>
		</g>
		<g>
			<path d="M221,596.9c-7.2-0.8-10.7-1.3-17.8-2.2l-5-0.6l0.6-5c0.5-3.7,1-7.5,1.6-11.2c0.4-2.6,0.8-5.1,1.1-7.5
				c-1.5,1.6-3,3.2-4.4,4.8c-2.5,2.7-4.8,5.3-7.1,7.8c-2.2,2.4-4.2,4.7-5.9,6.8l-1.8,2.1l-2.8-0.4c-6.2-0.9-9.3-1.4-15.5-2.4
				l-4.9-0.8l11-68.6l4.9,0.8c6.7,1.1,10,1.6,16.7,2.6l4.9,0.7l-0.7,4.9c-0.5,3.7-1.1,7.3-1.6,10.7c-0.3,1.8-0.5,3.4-0.8,4.9
				c1.3-1.4,2.6-2.7,3.8-4c4.6-4.8,9.1-9.2,13.3-13l1.7-1.6l2.3,0.3c5.7,0.7,8.4,1.1,14.2,1.7l5,0.6l-7.9,69L221,596.9z"/>
			<path class="st1" d="M174.4,525.5c6.7,1.1,10,1.6,16.7,2.6c-0.5,3.7-1.1,7.3-1.6,10.7s-1,6.5-1.5,9.2s-0.9,5.1-1.3,7.2
				c-0.4,2-0.7,3.6-0.8,4.7c5.6-5.9,10.6-11.2,15.2-15.9c4.5-4.7,8.9-9,13-12.8c5.7,0.7,8.5,1.1,14.2,1.7c-2.3,19.7-4.5,39.4-6.8,59
				c-7.1-0.8-10.7-1.3-17.8-2.2c0.5-3.7,1-7.4,1.6-11.1c0.6-3.7,1.1-7.1,1.6-10.2c0.5-3.1,0.9-5.9,1.4-8.2c0.4-2.3,0.7-4.1,0.8-5.2
				c-2.6,2.8-5.3,5.6-7.9,8.4c-2.7,2.8-5.2,5.6-7.7,8.4c-2.5,2.7-4.8,5.3-7.1,7.8c-2.2,2.5-4.2,4.8-6,6.9c-6.2-0.9-9.3-1.4-15.4-2.4
				C168.1,564.6,171.2,545,174.4,525.5 M166.1,514l-1.6,9.9c-3.2,19.6-6.3,39.1-9.5,58.7l-1.6,9.9l9.9,1.6c6.2,1,9.4,1.5,15.6,2.4
				c0,0,23.6,3.3,23.6,3.3c7.1,0.9,10.8,1.4,17.9,2.2l9.9,1.1l1.1-9.9c2.3-19.7,4.5-39.4,6.8-59l1.1-9.9l-9.9-1.1
				c-5.7-0.7-8.4-1-14.1-1.7l-4.6-0.6l-3.4,3.1c-2.1,1.9-4.2,3.9-6.4,6c0-0.1,0-0.2,0.1-0.4l1.5-9.9l-9.9-1.5
				c-6.7-1-9.9-1.5-16.6-2.6L166.1,514L166.1,514z"/>
		</g>
		<g>
			<path d="M269.5,601.6c-7.1-0.5-10.6-0.8-17.8-1.5l-5-0.4l4.1-45.5c-4.8-0.5-8.4-0.8-14.3-1.4l-5-0.5l2.5-23.6l4.9,0.5
				c18.1,1.8,36.6,3.4,54.8,4.6l5,0.3l-1.4,23.7l-5-0.3c-5.9-0.4-9.5-0.6-14.4-0.9l-3.5,45.5L269.5,601.6z"/>
			<path class="st1" d="M238.5,534c18.3,1.9,36.6,3.4,54.9,4.6c-0.3,5.5-0.5,8.3-0.8,13.8c-7.7-0.5-11.6-0.7-19.3-1.3
				c-1.2,15.2-2.3,30.3-3.5,45.5c-7.1-0.5-10.6-0.8-17.7-1.5c1.4-15.2,2.7-30.3,4.1-45.5c-7.7-0.7-11.5-1.1-19.2-1.9
				C237.6,542.3,237.9,539.5,238.5,534 M229.6,523.1l-1.1,9.9l-0.7,6.9l-0.7,6.8l-1.1,9.9l9.9,1.1c3.7,0.4,6.6,0.7,9.4,1
				c-1.1,11.8-2.1,23.7-3.2,35.5l-0.9,10l10,0.9c7.1,0.6,10.8,0.9,17.9,1.5l10,0.8l0.8-10v-0.1c0.9-11.8,1.8-23.7,2.7-35.5
				c2.8,0.2,5.7,0.4,9.5,0.6l10,0.6l0.6-10l0.4-7.3l0.4-6.4l0.6-9.9l-9.9-0.6c-18.1-1.2-36.5-2.7-54.6-4.5L229.6,523.1L229.6,523.1z
				"/>
		</g>
		<g>
			<path d="M332.4,606.3c-0.6,0-1.3,0-1.9,0c-6.2-0.2-11.8-1.3-16.5-3.3c-4.8-2-8.7-4.8-11.8-8.2c-3.1-3.4-5.3-7.5-6.6-12
				c-1.2-4.3-1.7-9-1.5-13.9c0.3-5.9,1.6-11.1,3.7-15.6c2.1-4.4,4.9-8.2,8.1-11.1c3.3-2.9,7-5.2,11.1-6.6c3.7-1.3,7.6-2,11.4-2
				c0.3,0,0.7,0,1,0c9.8,0.3,17.7,3.6,23.5,9.8s8.7,15,8.6,26.3c0,1.1-0.1,2.3-0.2,3.5s-0.2,2.3-0.3,3.2l-0.4,4.6c0,0-5.4,0-5.7,0
				l0.4,2.5c0.9,5.5,1.3,8.2,2.2,13.7l0.6,3.8l-3.5,1.6c-1.2,0.6-2.7,1.1-4.6,1.6c-1.8,0.5-3.7,0.9-5.9,1.2
				c-2.1,0.3-4.3,0.6-6.7,0.8C336,606.3,334.2,606.3,332.4,606.3z M326,580.4c1.9,0.9,4.5,1.4,7.5,1.5c0.4,0,0.8,0,1.2,0
				c2.5,0,5-0.2,7.4-0.6c0.9-0.2,1.8-0.3,2.6-0.5C338.5,580.7,332.2,580.6,326,580.4z M324.8,558.8c2.9,0.1,5.5,0.2,8.4,0.3
				c-0.4-0.4-0.8-0.7-1.4-1c-0.4-0.2-1.3-0.5-2.7-0.6c-0.1,0-0.2,0-0.3,0c-1,0-1.9,0.1-2.5,0.4C325.7,558.2,325.2,558.5,324.8,558.8
				z"/>
			<path class="st1" d="M328.6,538.6c0.3,0,0.6,0,0.9,0c8.5,0.3,15.1,2.9,20,8.2c4.9,5.2,7.3,12.8,7.3,22.8c0,1-0.1,2.1-0.1,3.2
				c-0.1,1.2-0.2,2.2-0.3,3.1c-13.2-0.1-26.4-0.4-39.5-0.9c0.3,3.5,1.8,6.3,4.7,8.4c2.9,2.1,6.9,3.3,11.9,3.4c0.4,0,0.9,0,1.3,0
				c2.8,0,5.5-0.2,8.2-0.7c3.1-0.5,5.7-1.2,7.6-2c0.9,5.5,1.3,8.2,2.2,13.7c-1,0.4-2.2,0.9-3.8,1.3c-1.6,0.4-3.4,0.8-5.3,1.1
				c-2,0.3-4.1,0.5-6.3,0.7c-1.7,0.1-3.3,0.2-5,0.2c-0.6,0-1.2,0-1.7,0c-5.7-0.2-10.5-1.1-14.7-2.9c-4.1-1.7-7.5-4.1-10.1-6.9
				c-2.6-2.9-4.4-6.2-5.5-10.1c-1.1-3.8-1.5-7.9-1.3-12.3c0.3-5.3,1.4-9.8,3.2-13.7c1.9-3.9,4.2-7,7-9.6c2.8-2.5,5.9-4.4,9.4-5.6
				C322,539.2,325.2,538.6,328.6,538.6 M340,564.2c0-1.4-0.3-2.8-0.7-4.2c-0.4-1.4-1-2.6-1.9-3.7s-2-2-3.3-2.7s-3-1.1-5-1.2
				c-0.2,0-0.3,0-0.5,0c-1.7,0-3.2,0.3-4.5,0.8c-1.4,0.6-2.6,1.4-3.5,2.4c-1,1-1.7,2.2-2.3,3.6c-0.6,1.4-1,2.8-1.3,4.2
				C326.3,563.9,330.9,564,340,564.2 M328.6,528.6c-4.4,0-8.8,0.8-13.1,2.2c-4.7,1.7-9.1,4.2-12.8,7.6c-3.7,3.4-6.9,7.6-9.3,12.7
				c-2.4,5.1-3.8,10.9-4.2,17.5c-0.3,5.5,0.3,10.7,1.7,15.6c1.5,5.3,4.1,10,7.7,14s8.1,7.1,13.6,9.4c5.3,2.2,11.4,3.5,18.3,3.7
				c0.7,0,1.3,0,2,0c1.9,0,3.8-0.1,5.8-0.2c2.5-0.2,4.8-0.5,7-0.8c2.3-0.4,4.4-0.8,6.4-1.3c2.2-0.6,3.9-1.2,5.4-1.9l6.9-3.2
				l-1.2-7.5c-0.7-4.2-1.1-6.8-1.7-10.4h4.4l0.9-9.1c0.1-1,0.2-2.1,0.3-3.3c0.1-1.4,0.2-2.7,0.2-3.9c0.1-12.6-3.3-22.6-10-29.7
				c-6.7-7.2-15.8-11-27-11.3C329.4,528.6,329,528.6,328.6,528.6L328.6,528.6z"/>
		</g>
		<g>
			<path d="M360.5,602.1c-1-5.6-1.4-8.4-2.4-14l-0.8-4.8l4.8-0.9c4.2-0.8,6.4-1.8,7.5-2.5c1.4-0.9,2.5-2,3.1-3.3
				c0.6-1.4,1.2-3.2,1.6-5.4c0.4-2.3,0.8-4.7,0.9-7.3c0.2-2.6,0.3-5.3,0.3-8.1s0-5.6,0-8.2l-0.1-11.7l5-0.1
				c14.9-0.3,29.9-0.7,44.8-1.4l5-0.2l3.5,69.3l-5,0.3c-7.1,0.4-10.7,0.5-17.9,0.8l-5,0.2l-1.6-45.6c-0.7,0-1.3,0-2,0.1
				c0,0.7,0,1.5,0,2.2c-0.1,2.6-0.2,5.2-0.5,7.8s-0.6,5.2-1.1,7.6c-0.5,2.6-1.2,5.1-2,7.4c-1,2.8-2.4,5.4-4,7.9
				c-1.7,2.5-3.9,4.9-6.6,6.9s-5.9,3.7-9.5,5s-7.8,2.1-12.5,2.5l-4.6,0.4L360.5,602.1z"/>
			<path class="st1" d="M425.4,539.3c1,19.8,2,39.6,3,59.4c-7.1,0.4-10.7,0.5-17.8,0.8c-0.5-15.2-1.1-30.4-1.6-45.6
				c-4.7,0.2-7,0.2-11.7,0.4c0,2.2-0.1,4.5-0.1,7c-0.1,2.5-0.2,4.9-0.5,7.4c-0.2,2.5-0.6,4.9-1,7.2c-0.5,2.3-1,4.6-1.8,6.6
				c-0.9,2.4-2,4.7-3.5,6.8c-1.4,2.1-3.2,4-5.5,5.7c-2.2,1.7-5,3.1-8.2,4.2c-3.2,1.1-7,1.9-11.3,2.3c-1-5.6-1.4-8.4-2.4-14
				c4-0.7,7.1-1.8,9.3-3.2c2.2-1.4,3.9-3.2,4.9-5.4c0.9-1.8,1.5-4.1,2-6.6s0.8-5.1,1-7.9c0.2-2.8,0.3-5.6,0.3-8.4c0-2.9,0-5.6,0-8.2
				c0-2.7-0.1-4.1-0.1-6.8C395.5,540.4,410.4,539.9,425.4,539.3 M434.9,528.8l-9.9,0.4c-14.8,0.7-29.8,1.1-44.7,1.4l-9.9,0.2
				l0.1,9.9v3.4v3.4c0,2.5,0,5.2,0,8.1c0,2.6-0.1,5.2-0.3,7.7c-0.2,2.4-0.5,4.6-0.9,6.7c-0.4,2.3-0.9,3.5-1.2,4.2
				c-0.2,0.4-0.6,0.8-1.2,1.2c-0.5,0.3-2.1,1.1-5.7,1.8l-9.7,1.8l1.6,9.7c0.9,5.6,1.4,8.4,2.4,14.1l1.6,9.1l9.2-0.8
				c5.1-0.4,9.7-1.4,13.7-2.8c4.2-1.5,7.8-3.4,10.9-5.7s5.7-5.1,7.7-8.1c0.6-0.9,1.1-1.8,1.7-2.7c0.1,2.6,0.2,5.2,0.3,7.8l0.4,10
				l10-0.4c7.1-0.3,10.8-0.4,17.9-0.8l10-0.5l-0.5-10c-1-19.8-2-39.6-3-59.4L434.9,528.8L434.9,528.8z"/>
		</g>
		<g>
			<path d="M435.7,596.1c2.1-5.1,4.2-9.9,6.3-14.2c1.2-2.5,2.4-4.7,3.6-6.8c-1.9-1.3-3.6-2.8-5.1-4.5c-2.8-3.3-4.4-7.5-4.7-12.5
				c-0.5-8.2,2.2-14.9,8.1-19.8c5.4-4.5,12.7-7.2,22.4-8c2-0.2,4.2-0.3,6.6-0.3c1,0,2,0,3,0c1.4,0,2.8,0,4.2,0.1
				c2.3,0.1,4.6,0.2,6.7,0.3c2.3,0.1,4.2,0.3,5.8,0.6l3.8,0.6l7,66.2l-5,0.5c-7.1,0.8-10.6,1.1-17.8,1.8l-5,0.5l-1.9-21.1
				c-0.5,0-1,0.1-1.5,0.1c-1.6,2.9-3.1,5.7-4.4,8.5c-1.7,3.7-3.3,7.3-4.9,10.8l-1.2,2.7l-3,0.2c-7.4,0.5-10.9,0.8-18.3,1.2l-7.9,0.5
				L435.7,596.1z M471.4,552.9c-1.1,0-2,0.1-2.8,0.1c-4.2,0.4-5.2,1.2-5.2,1.2c-0.4,0.4-0.6,0.8-0.5,1.7c0,0.4,0.1,0.6,0.2,0.7
				c0.2,0.3,0.4,0.4,0.7,0.6c0.5,0.2,1.2,0.4,1.9,0.5c0.5,0.1,1,0.1,1.5,0.1c0.4,0,0.9,0,1.3-0.1c1.3-0.1,2.4-0.2,3.3-0.3
				L471.4,552.9z"/>
			<path class="st1" d="M475.9,534.9c1.4,0,2.7,0,4.1,0.1c2.3,0.1,4.5,0.2,6.6,0.3s3.9,0.3,5.4,0.5c2,19.1,4,38.3,6.1,57.4
				c-7.1,0.8-10.7,1.1-17.8,1.8c-0.8-8.4-1.2-12.6-1.9-21c-3.6,0.3-5.4,0.5-9,0.8c-2.2,3.7-4.2,7.5-5.9,11.2
				c-1.7,3.7-3.3,7.3-4.9,10.9c-7.3,0.5-10.9,0.8-18.2,1.2c2-5,4.1-9.6,6.2-13.9c2.1-4.2,4.1-7.9,6.1-10.9c-3.4-1.4-6.1-3.4-8.3-5.8
				c-2.1-2.5-3.3-5.7-3.5-9.6c-0.4-6.6,1.7-11.8,6.3-15.7c4.6-3.9,11.1-6.1,19.6-6.8c1.9-0.2,4-0.3,6.3-0.3
				C474,534.9,474.9,534.9,475.9,534.9 M467.2,562.8c0.6,0,1.1,0,1.7-0.1c3.3-0.3,5-0.4,8.4-0.7c-0.5-5.7-0.8-8.5-1.3-14.2
				c-0.1,0-0.2,0-0.3,0c-0.8,0-1.9,0-3.3,0c-1.6,0-3,0.1-4.1,0.2c-4.2,0.4-7,1.3-8.4,2.8s-2.1,3.4-1.9,5.5c0.1,1.4,0.5,2.5,1.2,3.4
				s1.6,1.6,2.6,2.1s2.2,0.8,3.5,0.9C465.8,562.8,466.5,562.8,467.2,562.8 M475.9,524.9c-1,0-2.1,0-3.1,0c-2.5,0.1-4.8,0.2-6.9,0.4
				c-10.7,0.9-18.9,3.9-25.2,9.1c-7,5.9-10.5,14.2-9.9,24c0.4,6.1,2.3,30.6,0.2,35.9l-5.9,14.6l15.7-0.9c7.3-0.4,11.1-0.7,18.3-1.2
				c0,0,21.7-1.7,21.9-1.7c7.1-0.7,10.8-1,17.9-1.8l9.9-1.1l-1.1-9.9c-2-19.1-4-38.3-6.1-57.4l-0.8-7.7l-7.7-1.1
				c-1.8-0.3-3.8-0.5-6.3-0.6c-2.2-0.1-4.5-0.2-6.9-0.3C478.8,524.9,477.4,524.9,475.9,524.9L475.9,524.9z"/>
		</g>
	</g>
</g>
</svg>
