<?xml version="1.0" encoding="utf-8"?>
<!-- Generator: Adobe Illustrator 23.0.2, SVG Export Plug-In . SVG Version: 6.00 Build 0)  -->
<svg version="1.1" id="Layer_1" xmlns="http://www.w3.org/2000/svg" xmlns:xlink="http://www.w3.org/1999/xlink" x="0px" y="0px"
	 viewBox="0 0 204.88 202.95" style="enable-background:new 0 0 204.88 202.95;" xml:space="preserve">
<style type="text/css">
	.st0{fill:#FFD71F;}
	.st1{fill:#56174F;}
	.st2{fill:#FD3401;}
</style>
<g>
	<polygon class="st0" points="56.74,8.93 94.21,46.51 119.78,0 128.01,52.43 176.03,29.83 151.87,77.08 204,87.02 156.68,111.05 
		193.01,149.74 140.61,141.36 147.26,194.02 109.79,156.44 84.22,202.95 75.99,150.52 27.97,173.12 52.13,125.86 0,115.92 
		47.32,91.89 10.99,53.21 63.39,61.58 	"/>
</g>
<g>
	
		<rect x="89.19" y="1.07" transform="matrix(0.6989 0.7152 -0.7152 0.6989 109.6521 -39.5763)" class="st1" width="25.28" height="218.74"/>
	<g>
		
			<rect x="138.07" y="10.3" transform="matrix(0.7152 -0.6989 0.6989 0.7152 8.5588 126.6553)" class="st2" width="43.25" height="85.05"/>
	</g>
</g>
<g>
</g>
<g>
</g>
<g>
</g>
<g>
</g>
<g>
</g>
<g>
</g>
<g>
</g>
<g>
</g>
<g>
</g>
<g>
</g>
<g>
</g>
<g>
</g>
<g>
</g>
<g>
</g>
<g>
</g>
</svg>
