<?xml version="1.0" encoding="utf-8"?>
<!-- Generator: Adobe Illustrator 21.1.0, SVG Export Plug-In . SVG Version: 6.00 Build 0)  -->
<svg version="1.0" id="Layer_1" xmlns="http://www.w3.org/2000/svg" xmlns:xlink="http://www.w3.org/1999/xlink" x="0px" y="0px"
	 viewBox="0 0 222 222" style="enable-background:new 0 0 222 222;" xml:space="preserve">
<style type="text/css">
	.st0{fill:#FF3400;}
	.st1{fill:#FFFFFF;}
</style>
<circle class="st0" cx="111" cy="111" r="111"/>
<g>
	<path class="st1" d="M137.9,173c-4.7,1.8-9.1,3-13.3,3.6c-4.1,0.6-8,1-11.5,1c-9,0-15.7-2.2-20-6.6c-4.3-4.4-6.5-10.6-6.5-18.6
		c0-4.2,0.7-9.1,2.1-14.7l7.6-32.4H71.5l4.8-19.5h48.2l-13,54.7c-0.8,2.7-1.1,5-1.1,7.1c0,6.4,3.2,9.5,9.7,9.5
		c2.2,0,4.7-0.2,7.6-0.7c2.9-0.4,6.2-1.3,9.7-2.6L137.9,173z M113.6,75c-4.1,0-7.3-1.1-9.8-3.2c-2.5-2.2-3.7-5.5-3.7-10.1
		c0-2.4,0.4-4.7,1.3-6.8c0.9-2.1,2.1-3.8,3.5-5.2c1.5-1.4,3.1-2.5,5.1-3.3c1.9-0.8,3.9-1.2,5.9-1.2c3.7,0,6.9,1.1,9.6,3.2
		c2.7,2.2,4.1,5.7,4.1,10.5c0,2.3-0.5,4.5-1.4,6.5c-1,2-2.2,3.8-3.7,5.1c-1.5,1.4-3.2,2.5-5.1,3.3C117.5,74.6,115.5,75,113.6,75z"/>
</g>
</svg>
