<?xml version="1.0" encoding="utf-8"?>
<!-- Generator: Adobe Illustrator 23.0.1, SVG Export Plug-In . SVG Version: 6.00 Build 0)  -->
<svg version="1.1" id="Layer_1" xmlns="http://www.w3.org/2000/svg" xmlns:xlink="http://www.w3.org/1999/xlink" x="0px" y="0px"
	 viewBox="0 0 635 311" style="enable-background:new 0 0 635 311;" xml:space="preserve">
<style type="text/css">
	.st0{clip-path:url(#SVGID_2_);}
	.st1{fill:#DB370D;}
	.st2{fill:#56174F;}
	.st3{fill:#E8C72F;}
	.st4{clip-path:url(#SVGID_2_);fill:#E8D0C9;}
	.st5{fill:#FFFFFF;}
</style>
<g>
	<defs>
		<rect id="SVGID_1_" width="635" height="311"/>
	</defs>
	<use xlink:href="#SVGID_1_"  style="overflow:visible;fill:#FD3401;"/>
	<clipPath id="SVGID_2_">
		<use xlink:href="#SVGID_1_"  style="overflow:visible;"/>
	</clipPath>
	<g class="st0">
		<path class="st1" d="M161.08,322.66L161.08,322.66c-0.97,0-1.76-0.79-1.76-1.76v-55.86c0-0.97,0.79-1.76,1.76-1.76h0
			c0.97,0,1.76,0.79,1.76,1.76v55.86C162.84,321.87,162.05,322.66,161.08,322.66z"/>
		<path class="st2" d="M161.08,231.67l-4.5,22.56c-0.19,0.96-0.24,1.96-0.15,2.95v0c0.73,8.13,8.57,8.13,9.3,0v0
			c0.09-0.99,0.04-2-0.15-2.95L161.08,231.67z"/>
	</g>
	<g class="st0">
		<polygon class="st3" points="560.33,20.91 592.91,-30.14 542.46,-65.25 465.8,44.8 465.77,44.8 333.27,44.8 333.27,-7.13 
			281.32,-7.13 281.32,44.8 255.34,44.8 255.34,148.68 593.07,148.68 593.07,44.8 		"/>
	</g>
	<path class="st4" d="M189.75,196.44c-6.89,0.05-12.4,5.42-12.4,11.91v27.6v18.93c0,1.65-1.43,3.04-3.18,3.01
		c-1.7-0.03-3.06-1.33-3.06-2.94v-18.99v-55.85c0-6.49-5.51-11.86-12.4-11.91c-6.94-0.05-12.59,5.24-12.59,11.76v55.99v18.93
		c0,1.65-1.43,3.04-3.18,3.01c-1.7-0.03-3.06-1.33-3.06-2.94v-18.99v-68.5c0-6.49-5.51-11.86-12.4-11.91
		c-6.94-0.05-12.59,5.24-12.59,11.76v68.64v18.93c0,1.65-1.43,3.04-3.18,3.01c-1.7-0.03-3.06-1.33-3.06-2.94v-18.99v-50.1
		c0-5.88-5.06-10.64-11.3-10.64h-2.39c-6.24,0-11.3,4.76-11.3,10.64v50.1v49.88c0,2.11-2.21,3.49-4.22,2.83
		c-0.3-0.1-0.58-0.26-0.85-0.44l-39.95-27.59c-11.36-6.11-21.65,4.89-14.15,14.98l36.96,51.57c14.08,19.65,21.55,43.26,21.31,67.43
		v0l119.58,0.36V235.95V208.2C202.34,201.68,196.7,196.39,189.75,196.44z"/>
</g>
<g>
	<path class="st5" d="M191.16,173.4l14.93,13.42c-9.29,9.28-21.08,13.8-33,13.8c-5.65,0-11.42-0.5-16.56-2.76
		c-16.69-6.77-28.11-23.71-28.49-41.4c-0.5-18.31,11.17-35.5,26.73-42.9c16.69-8.15,35.76-4.64,49.32,6.27l-12.05,16.06
		c-8.03-6.77-19.83-8.03-28.61-3.76c-7.91,3.64-14.93,13.67-14.93,23.46c0,9.91,7.15,19.44,15.94,22.96
		C173.46,181.93,185.01,180.43,191.16,173.4z"/>
	<path class="st5" d="M267.34,110.68h21.84v87.81h-21.84v-49.55l-30.37,49.55h-21.71v-87.81h21.83l-0.12,49.55L267.34,110.68z"/>
	<path class="st5" d="M386.98,198.49h-21.96l-22.84-59.33l-22.96,59.33h-21.96l33.88-87.81h21.96L386.98,198.49z"/>
	<path class="st5" d="M467.53,198.49l-6.78-16.18h-38.02l-6.78,16.18H394l36.77-87.81h21.96l36.77,87.81H467.53z M430.01,164.87
		h23.47l-11.67-27.97L430.01,164.87z"/>
</g>
</svg>
